<?xml version="1.0" encoding="UTF-8" standalone="yes" ?>
<!DOCTYPE xmeml>
<xmeml version="4">

  <project>
    <name>CH_BreatheFence_B.png</name>
    <children>
      <sequence MZ.Sequence.EditingModeGUID="35d109db-457b-43c1-9452-9cb7be9f121c" explodedTracks="true" id="sequence-1">
        <uuid>5e219446-85b3-4a0b-8fba-26a6b27cac86</uuid>
        <duration>129</duration>
        <rate>
          <timebase>12</timebase>
          <ntsc>FALSE</ntsc>
        </rate>
        <name>CH_BreatheFence_B.png</name>
        <media>
          <video>
            <track>
              <clipitem frameBlend="FALSE" id="clipitem-132">
                <name>CH_BreatheFence_B.png.00.png</name>
                <masterclipid>masterclip-2</masterclipid>
                <rate>
                  <timebase>12</timebase>
                  <ntsc>FALSE</ntsc>
                </rate>
                <duration>1</duration>
                <enabled>TRUE</enabled>
                <alphatype>straight</alphatype>
                <rate>
                  <timebase>12</timebase>
                  <ntsc>FALSE</ntsc>
                </rate>
                <enabled>TRUE</enabled>
                <start>0</start>
                <end>1</end>
                <file id="file-2"/>
              </clipitem>
              <clipitem frameBlend="FALSE" id="clipitem-133">
                <name>CH_BreatheFence_B.png.01.png</name>
                <masterclipid>masterclip-3</masterclipid>
                <rate>
                  <timebase>12</timebase>
                  <ntsc>FALSE</ntsc>
                </rate>
                <duration>1</duration>
                <enabled>TRUE</enabled>
                <alphatype>straight</alphatype>
                <rate>
                  <timebase>12</timebase>
                  <ntsc>FALSE</ntsc>
                </rate>
                <enabled>TRUE</enabled>
                <start>1</start>
                <end>2</end>
                <file id="file-3"/>
              </clipitem>
              <clipitem frameBlend="FALSE" id="clipitem-134">
                <name>CH_BreatheFence_B.png.02.png</name>
                <masterclipid>masterclip-4</masterclipid>
                <rate>
                  <timebase>12</timebase>
                  <ntsc>FALSE</ntsc>
                </rate>
                <duration>1</duration>
                <enabled>TRUE</enabled>
                <alphatype>straight</alphatype>
                <rate>
                  <timebase>12</timebase>
                  <ntsc>FALSE</ntsc>
                </rate>
                <enabled>TRUE</enabled>
                <start>2</start>
                <end>3</end>
                <file id="file-4"/>
              </clipitem>
              <clipitem frameBlend="FALSE" id="clipitem-135">
                <name>CH_BreatheFence_B.png.03.png</name>
                <masterclipid>masterclip-5</masterclipid>
                <rate>
                  <timebase>12</timebase>
                  <ntsc>FALSE</ntsc>
                </rate>
                <duration>1</duration>
                <enabled>TRUE</enabled>
                <alphatype>straight</alphatype>
                <rate>
                  <timebase>12</timebase>
                  <ntsc>FALSE</ntsc>
                </rate>
                <enabled>TRUE</enabled>
                <start>3</start>
                <end>4</end>
                <file id="file-5"/>
              </clipitem>
              <clipitem frameBlend="FALSE" id="clipitem-136">
                <name>CH_BreatheFence_B.png.04.png</name>
                <masterclipid>masterclip-6</masterclipid>
                <rate>
                  <timebase>12</timebase>
                  <ntsc>FALSE</ntsc>
                </rate>
                <duration>1</duration>
                <enabled>TRUE</enabled>
                <alphatype>straight</alphatype>
                <rate>
                  <timebase>12</timebase>
                  <ntsc>FALSE</ntsc>
                </rate>
                <enabled>TRUE</enabled>
                <start>4</start>
                <end>5</end>
                <file id="file-6"/>
              </clipitem>
              <clipitem frameBlend="FALSE" id="clipitem-137">
                <name>CH_BreatheFence_B.png.05.png</name>
                <masterclipid>masterclip-7</masterclipid>
                <rate>
                  <timebase>12</timebase>
                  <ntsc>FALSE</ntsc>
                </rate>
                <duration>1</duration>
                <enabled>TRUE</enabled>
                <alphatype>straight</alphatype>
                <rate>
                  <timebase>12</timebase>
                  <ntsc>FALSE</ntsc>
                </rate>
                <enabled>TRUE</enabled>
                <start>5</start>
                <end>6</end>
                <file id="file-7"/>
              </clipitem>
              <clipitem frameBlend="FALSE" id="clipitem-138">
                <name>CH_BreatheFence_B.png.06.png</name>
                <masterclipid>masterclip-8</masterclipid>
                <rate>
                  <timebase>12</timebase>
                  <ntsc>FALSE</ntsc>
                </rate>
                <duration>1</duration>
                <enabled>TRUE</enabled>
                <alphatype>straight</alphatype>
                <rate>
                  <timebase>12</timebase>
                  <ntsc>FALSE</ntsc>
                </rate>
                <enabled>TRUE</enabled>
                <start>6</start>
                <end>7</end>
                <file id="file-8"/>
              </clipitem>
              <clipitem frameBlend="FALSE" id="clipitem-139">
                <name>CH_BreatheFence_B.png.07.png</name>
                <masterclipid>masterclip-9</masterclipid>
                <rate>
                  <timebase>12</timebase>
                  <ntsc>FALSE</ntsc>
                </rate>
                <duration>1</duration>
                <enabled>TRUE</enabled>
                <alphatype>straight</alphatype>
                <rate>
                  <timebase>12</timebase>
                  <ntsc>FALSE</ntsc>
                </rate>
                <enabled>TRUE</enabled>
                <start>7</start>
                <end>8</end>
                <file id="file-9"/>
              </clipitem>
              <clipitem frameBlend="FALSE" id="clipitem-140">
                <name>CH_BreatheFence_B.png.08.png</name>
                <masterclipid>masterclip-10</masterclipid>
                <rate>
                  <timebase>12</timebase>
                  <ntsc>FALSE</ntsc>
                </rate>
                <duration>1</duration>
                <enabled>TRUE</enabled>
                <alphatype>straight</alphatype>
                <rate>
                  <timebase>12</timebase>
                  <ntsc>FALSE</ntsc>
                </rate>
                <enabled>TRUE</enabled>
                <start>8</start>
                <end>9</end>
                <file id="file-10"/>
              </clipitem>
              <clipitem frameBlend="FALSE" id="clipitem-141">
                <name>CH_BreatheFence_B.png.09.png</name>
                <masterclipid>masterclip-11</masterclipid>
                <rate>
                  <timebase>12</timebase>
                  <ntsc>FALSE</ntsc>
                </rate>
                <duration>1</duration>
                <enabled>TRUE</enabled>
                <alphatype>straight</alphatype>
                <rate>
                  <timebase>12</timebase>
                  <ntsc>FALSE</ntsc>
                </rate>
                <enabled>TRUE</enabled>
                <start>9</start>
                <end>10</end>
                <file id="file-11"/>
              </clipitem>
              <clipitem frameBlend="FALSE" id="clipitem-142">
                <name>CH_BreatheFence_B.png.10.png</name>
                <masterclipid>masterclip-12</masterclipid>
                <rate>
                  <timebase>12</timebase>
                  <ntsc>FALSE</ntsc>
                </rate>
                <duration>1</duration>
                <enabled>TRUE</enabled>
                <alphatype>straight</alphatype>
                <rate>
                  <timebase>12</timebase>
                  <ntsc>FALSE</ntsc>
                </rate>
                <enabled>TRUE</enabled>
                <start>10</start>
                <end>11</end>
                <file id="file-12"/>
              </clipitem>
              <clipitem frameBlend="FALSE" id="clipitem-143">
                <name>CH_BreatheFence_B.png.11.png</name>
                <masterclipid>masterclip-13</masterclipid>
                <rate>
                  <timebase>12</timebase>
                  <ntsc>FALSE</ntsc>
                </rate>
                <duration>1</duration>
                <enabled>TRUE</enabled>
                <alphatype>straight</alphatype>
                <rate>
                  <timebase>12</timebase>
                  <ntsc>FALSE</ntsc>
                </rate>
                <enabled>TRUE</enabled>
                <start>11</start>
                <end>12</end>
                <file id="file-13"/>
              </clipitem>
              <clipitem frameBlend="FALSE" id="clipitem-144">
                <name>CH_BreatheFence_B.png.12.png</name>
                <masterclipid>masterclip-14</masterclipid>
                <rate>
                  <timebase>12</timebase>
                  <ntsc>FALSE</ntsc>
                </rate>
                <duration>1</duration>
                <enabled>TRUE</enabled>
                <alphatype>straight</alphatype>
                <rate>
                  <timebase>12</timebase>
                  <ntsc>FALSE</ntsc>
                </rate>
                <enabled>TRUE</enabled>
                <start>12</start>
                <end>13</end>
                <file id="file-14"/>
              </clipitem>
              <clipitem frameBlend="FALSE" id="clipitem-145">
                <name>CH_BreatheFence_B.png.13.png</name>
                <masterclipid>masterclip-15</masterclipid>
                <rate>
                  <timebase>12</timebase>
                  <ntsc>FALSE</ntsc>
                </rate>
                <duration>1</duration>
                <enabled>TRUE</enabled>
                <alphatype>straight</alphatype>
                <rate>
                  <timebase>12</timebase>
                  <ntsc>FALSE</ntsc>
                </rate>
                <enabled>TRUE</enabled>
                <start>13</start>
                <end>14</end>
                <file id="file-15"/>
              </clipitem>
              <clipitem frameBlend="FALSE" id="clipitem-146">
                <name>CH_BreatheFence_B.png.14.png</name>
                <masterclipid>masterclip-16</masterclipid>
                <rate>
                  <timebase>12</timebase>
                  <ntsc>FALSE</ntsc>
                </rate>
                <duration>1</duration>
                <enabled>TRUE</enabled>
                <alphatype>straight</alphatype>
                <rate>
                  <timebase>12</timebase>
                  <ntsc>FALSE</ntsc>
                </rate>
                <enabled>TRUE</enabled>
                <start>14</start>
                <end>15</end>
                <file id="file-16"/>
              </clipitem>
              <clipitem frameBlend="FALSE" id="clipitem-147">
                <name>CH_BreatheFence_B.png.15.png</name>
                <masterclipid>masterclip-17</masterclipid>
                <rate>
                  <timebase>12</timebase>
                  <ntsc>FALSE</ntsc>
                </rate>
                <duration>1</duration>
                <enabled>TRUE</enabled>
                <alphatype>straight</alphatype>
                <rate>
                  <timebase>12</timebase>
                  <ntsc>FALSE</ntsc>
                </rate>
                <enabled>TRUE</enabled>
                <start>15</start>
                <end>16</end>
                <file id="file-17"/>
              </clipitem>
              <clipitem frameBlend="FALSE" id="clipitem-148">
                <name>CH_BreatheFence_B.png.16.png</name>
                <masterclipid>masterclip-18</masterclipid>
                <rate>
                  <timebase>12</timebase>
                  <ntsc>FALSE</ntsc>
                </rate>
                <duration>1</duration>
                <enabled>TRUE</enabled>
                <alphatype>straight</alphatype>
                <rate>
                  <timebase>12</timebase>
                  <ntsc>FALSE</ntsc>
                </rate>
                <enabled>TRUE</enabled>
                <start>16</start>
                <end>17</end>
                <file id="file-18"/>
              </clipitem>
              <clipitem frameBlend="FALSE" id="clipitem-149">
                <name>CH_BreatheFence_B.png.17.png</name>
                <masterclipid>masterclip-19</masterclipid>
                <rate>
                  <timebase>12</timebase>
                  <ntsc>FALSE</ntsc>
                </rate>
                <duration>1</duration>
                <enabled>TRUE</enabled>
                <alphatype>straight</alphatype>
                <rate>
                  <timebase>12</timebase>
                  <ntsc>FALSE</ntsc>
                </rate>
                <enabled>TRUE</enabled>
                <start>17</start>
                <end>18</end>
                <file id="file-19"/>
              </clipitem>
              <clipitem frameBlend="FALSE" id="clipitem-150">
                <name>CH_BreatheFence_B.png.18.png</name>
                <masterclipid>masterclip-20</masterclipid>
                <rate>
                  <timebase>12</timebase>
                  <ntsc>FALSE</ntsc>
                </rate>
                <duration>1</duration>
                <enabled>TRUE</enabled>
                <alphatype>straight</alphatype>
                <rate>
                  <timebase>12</timebase>
                  <ntsc>FALSE</ntsc>
                </rate>
                <enabled>TRUE</enabled>
                <start>18</start>
                <end>19</end>
                <file id="file-20"/>
              </clipitem>
              <clipitem frameBlend="FALSE" id="clipitem-151">
                <name>CH_BreatheFence_B.png.19.png</name>
                <masterclipid>masterclip-21</masterclipid>
                <rate>
                  <timebase>12</timebase>
                  <ntsc>FALSE</ntsc>
                </rate>
                <duration>1</duration>
                <enabled>TRUE</enabled>
                <alphatype>straight</alphatype>
                <rate>
                  <timebase>12</timebase>
                  <ntsc>FALSE</ntsc>
                </rate>
                <enabled>TRUE</enabled>
                <start>19</start>
                <end>20</end>
                <file id="file-21"/>
              </clipitem>
              <clipitem frameBlend="FALSE" id="clipitem-152">
                <name>CH_BreatheFence_B.png.20.png</name>
                <masterclipid>masterclip-22</masterclipid>
                <rate>
                  <timebase>12</timebase>
                  <ntsc>FALSE</ntsc>
                </rate>
                <duration>1</duration>
                <enabled>TRUE</enabled>
                <alphatype>straight</alphatype>
                <rate>
                  <timebase>12</timebase>
                  <ntsc>FALSE</ntsc>
                </rate>
                <enabled>TRUE</enabled>
                <start>20</start>
                <end>21</end>
                <file id="file-22"/>
              </clipitem>
              <clipitem frameBlend="FALSE" id="clipitem-153">
                <name>CH_BreatheFence_B.png.21.png</name>
                <masterclipid>masterclip-23</masterclipid>
                <rate>
                  <timebase>12</timebase>
                  <ntsc>FALSE</ntsc>
                </rate>
                <duration>1</duration>
                <enabled>TRUE</enabled>
                <alphatype>straight</alphatype>
                <rate>
                  <timebase>12</timebase>
                  <ntsc>FALSE</ntsc>
                </rate>
                <enabled>TRUE</enabled>
                <start>21</start>
                <end>22</end>
                <file id="file-23"/>
              </clipitem>
              <clipitem frameBlend="FALSE" id="clipitem-154">
                <name>CH_BreatheFence_B.png.22.png</name>
                <masterclipid>masterclip-24</masterclipid>
                <rate>
                  <timebase>12</timebase>
                  <ntsc>FALSE</ntsc>
                </rate>
                <duration>1</duration>
                <enabled>TRUE</enabled>
                <alphatype>straight</alphatype>
                <rate>
                  <timebase>12</timebase>
                  <ntsc>FALSE</ntsc>
                </rate>
                <enabled>TRUE</enabled>
                <start>22</start>
                <end>23</end>
                <file id="file-24"/>
              </clipitem>
              <clipitem frameBlend="FALSE" id="clipitem-155">
                <name>CH_BreatheFence_B.png.23.png</name>
                <masterclipid>masterclip-25</masterclipid>
                <rate>
                  <timebase>12</timebase>
                  <ntsc>FALSE</ntsc>
                </rate>
                <duration>1</duration>
                <enabled>TRUE</enabled>
                <alphatype>straight</alphatype>
                <rate>
                  <timebase>12</timebase>
                  <ntsc>FALSE</ntsc>
                </rate>
                <enabled>TRUE</enabled>
                <start>23</start>
                <end>24</end>
                <file id="file-25"/>
              </clipitem>
              <clipitem frameBlend="FALSE" id="clipitem-156">
                <name>CH_BreatheFence_B.png.24.png</name>
                <masterclipid>masterclip-26</masterclipid>
                <rate>
                  <timebase>12</timebase>
                  <ntsc>FALSE</ntsc>
                </rate>
                <duration>1</duration>
                <enabled>TRUE</enabled>
                <alphatype>straight</alphatype>
                <rate>
                  <timebase>12</timebase>
                  <ntsc>FALSE</ntsc>
                </rate>
                <enabled>TRUE</enabled>
                <start>24</start>
                <end>25</end>
                <file id="file-26"/>
              </clipitem>
              <clipitem frameBlend="FALSE" id="clipitem-157">
                <name>CH_BreatheFence_B.png.25.png</name>
                <masterclipid>masterclip-27</masterclipid>
                <rate>
                  <timebase>12</timebase>
                  <ntsc>FALSE</ntsc>
                </rate>
                <duration>1</duration>
                <enabled>TRUE</enabled>
                <alphatype>straight</alphatype>
                <rate>
                  <timebase>12</timebase>
                  <ntsc>FALSE</ntsc>
                </rate>
                <enabled>TRUE</enabled>
                <start>25</start>
                <end>26</end>
                <file id="file-27"/>
              </clipitem>
              <clipitem frameBlend="FALSE" id="clipitem-158">
                <name>CH_BreatheFence_B.png.26.png</name>
                <masterclipid>masterclip-28</masterclipid>
                <rate>
                  <timebase>12</timebase>
                  <ntsc>FALSE</ntsc>
                </rate>
                <duration>1</duration>
                <enabled>TRUE</enabled>
                <alphatype>straight</alphatype>
                <rate>
                  <timebase>12</timebase>
                  <ntsc>FALSE</ntsc>
                </rate>
                <enabled>TRUE</enabled>
                <start>26</start>
                <end>27</end>
                <file id="file-28"/>
              </clipitem>
              <clipitem frameBlend="FALSE" id="clipitem-159">
                <name>CH_BreatheFence_B.png.27.png</name>
                <masterclipid>masterclip-29</masterclipid>
                <rate>
                  <timebase>12</timebase>
                  <ntsc>FALSE</ntsc>
                </rate>
                <duration>1</duration>
                <enabled>TRUE</enabled>
                <alphatype>straight</alphatype>
                <rate>
                  <timebase>12</timebase>
                  <ntsc>FALSE</ntsc>
                </rate>
                <enabled>TRUE</enabled>
                <start>27</start>
                <end>28</end>
                <file id="file-29"/>
              </clipitem>
              <clipitem frameBlend="FALSE" id="clipitem-160">
                <name>CH_BreatheFence_B.png.28.png</name>
                <masterclipid>masterclip-30</masterclipid>
                <rate>
                  <timebase>12</timebase>
                  <ntsc>FALSE</ntsc>
                </rate>
                <duration>1</duration>
                <enabled>TRUE</enabled>
                <alphatype>straight</alphatype>
                <rate>
                  <timebase>12</timebase>
                  <ntsc>FALSE</ntsc>
                </rate>
                <enabled>TRUE</enabled>
                <start>28</start>
                <end>29</end>
                <file id="file-30"/>
              </clipitem>
              <clipitem frameBlend="FALSE" id="clipitem-161">
                <name>CH_BreatheFence_B.png.29.png</name>
                <masterclipid>masterclip-31</masterclipid>
                <rate>
                  <timebase>12</timebase>
                  <ntsc>FALSE</ntsc>
                </rate>
                <duration>1</duration>
                <enabled>TRUE</enabled>
                <alphatype>straight</alphatype>
                <rate>
                  <timebase>12</timebase>
                  <ntsc>FALSE</ntsc>
                </rate>
                <enabled>TRUE</enabled>
                <start>29</start>
                <end>30</end>
                <file id="file-31"/>
              </clipitem>
              <clipitem frameBlend="FALSE" id="clipitem-162">
                <name>CH_BreatheFence_B.png.30.png</name>
                <masterclipid>masterclip-32</masterclipid>
                <rate>
                  <timebase>12</timebase>
                  <ntsc>FALSE</ntsc>
                </rate>
                <duration>1</duration>
                <enabled>TRUE</enabled>
                <alphatype>straight</alphatype>
                <rate>
                  <timebase>12</timebase>
                  <ntsc>FALSE</ntsc>
                </rate>
                <enabled>TRUE</enabled>
                <start>30</start>
                <end>31</end>
                <file id="file-32"/>
              </clipitem>
              <clipitem frameBlend="FALSE" id="clipitem-163">
                <name>CH_BreatheFence_B.png.31.png</name>
                <masterclipid>masterclip-33</masterclipid>
                <rate>
                  <timebase>12</timebase>
                  <ntsc>FALSE</ntsc>
                </rate>
                <duration>1</duration>
                <enabled>TRUE</enabled>
                <alphatype>straight</alphatype>
                <rate>
                  <timebase>12</timebase>
                  <ntsc>FALSE</ntsc>
                </rate>
                <enabled>TRUE</enabled>
                <start>31</start>
                <end>32</end>
                <file id="file-33"/>
              </clipitem>
              <clipitem frameBlend="FALSE" id="clipitem-164">
                <name>CH_BreatheFence_B.png.32.png</name>
                <masterclipid>masterclip-34</masterclipid>
                <rate>
                  <timebase>12</timebase>
                  <ntsc>FALSE</ntsc>
                </rate>
                <duration>1</duration>
                <enabled>TRUE</enabled>
                <alphatype>straight</alphatype>
                <rate>
                  <timebase>12</timebase>
                  <ntsc>FALSE</ntsc>
                </rate>
                <enabled>TRUE</enabled>
                <start>32</start>
                <end>33</end>
                <file id="file-34"/>
              </clipitem>
              <clipitem frameBlend="FALSE" id="clipitem-165">
                <name>CH_BreatheFence_B.png.33.png</name>
                <masterclipid>masterclip-35</masterclipid>
                <rate>
                  <timebase>12</timebase>
                  <ntsc>FALSE</ntsc>
                </rate>
                <duration>1</duration>
                <enabled>TRUE</enabled>
                <alphatype>straight</alphatype>
                <rate>
                  <timebase>12</timebase>
                  <ntsc>FALSE</ntsc>
                </rate>
                <enabled>TRUE</enabled>
                <start>33</start>
                <end>34</end>
                <file id="file-35"/>
              </clipitem>
              <clipitem frameBlend="FALSE" id="clipitem-166">
                <name>CH_BreatheFence_B.png.34.png</name>
                <masterclipid>masterclip-36</masterclipid>
                <rate>
                  <timebase>12</timebase>
                  <ntsc>FALSE</ntsc>
                </rate>
                <duration>1</duration>
                <enabled>TRUE</enabled>
                <alphatype>straight</alphatype>
                <rate>
                  <timebase>12</timebase>
                  <ntsc>FALSE</ntsc>
                </rate>
                <enabled>TRUE</enabled>
                <start>34</start>
                <end>35</end>
                <file id="file-36"/>
              </clipitem>
              <clipitem frameBlend="FALSE" id="clipitem-167">
                <name>CH_BreatheFence_B.png.35.png</name>
                <masterclipid>masterclip-37</masterclipid>
                <rate>
                  <timebase>12</timebase>
                  <ntsc>FALSE</ntsc>
                </rate>
                <duration>1</duration>
                <enabled>TRUE</enabled>
                <alphatype>straight</alphatype>
                <rate>
                  <timebase>12</timebase>
                  <ntsc>FALSE</ntsc>
                </rate>
                <enabled>TRUE</enabled>
                <start>35</start>
                <end>36</end>
                <file id="file-37"/>
              </clipitem>
              <clipitem frameBlend="FALSE" id="clipitem-168">
                <name>CH_BreatheFence_B.png.36.png</name>
                <masterclipid>masterclip-38</masterclipid>
                <rate>
                  <timebase>12</timebase>
                  <ntsc>FALSE</ntsc>
                </rate>
                <duration>1</duration>
                <enabled>TRUE</enabled>
                <alphatype>straight</alphatype>
                <rate>
                  <timebase>12</timebase>
                  <ntsc>FALSE</ntsc>
                </rate>
                <enabled>TRUE</enabled>
                <start>36</start>
                <end>37</end>
                <file id="file-38"/>
              </clipitem>
              <clipitem frameBlend="FALSE" id="clipitem-169">
                <name>CH_BreatheFence_B.png.37.png</name>
                <masterclipid>masterclip-39</masterclipid>
                <rate>
                  <timebase>12</timebase>
                  <ntsc>FALSE</ntsc>
                </rate>
                <duration>1</duration>
                <enabled>TRUE</enabled>
                <alphatype>straight</alphatype>
                <rate>
                  <timebase>12</timebase>
                  <ntsc>FALSE</ntsc>
                </rate>
                <enabled>TRUE</enabled>
                <start>37</start>
                <end>38</end>
                <file id="file-39"/>
              </clipitem>
              <clipitem frameBlend="FALSE" id="clipitem-170">
                <name>CH_BreatheFence_B.png.38.png</name>
                <masterclipid>masterclip-40</masterclipid>
                <rate>
                  <timebase>12</timebase>
                  <ntsc>FALSE</ntsc>
                </rate>
                <duration>1</duration>
                <enabled>TRUE</enabled>
                <alphatype>straight</alphatype>
                <rate>
                  <timebase>12</timebase>
                  <ntsc>FALSE</ntsc>
                </rate>
                <enabled>TRUE</enabled>
                <start>38</start>
                <end>39</end>
                <file id="file-40"/>
              </clipitem>
              <clipitem frameBlend="FALSE" id="clipitem-171">
                <name>CH_BreatheFence_B.png.39.png</name>
                <masterclipid>masterclip-41</masterclipid>
                <rate>
                  <timebase>12</timebase>
                  <ntsc>FALSE</ntsc>
                </rate>
                <duration>1</duration>
                <enabled>TRUE</enabled>
                <alphatype>straight</alphatype>
                <rate>
                  <timebase>12</timebase>
                  <ntsc>FALSE</ntsc>
                </rate>
                <enabled>TRUE</enabled>
                <start>39</start>
                <end>40</end>
                <file id="file-41"/>
              </clipitem>
              <clipitem frameBlend="FALSE" id="clipitem-172">
                <name>CH_BreatheFence_B.png.40.png</name>
                <masterclipid>masterclip-42</masterclipid>
                <rate>
                  <timebase>12</timebase>
                  <ntsc>FALSE</ntsc>
                </rate>
                <duration>1</duration>
                <enabled>TRUE</enabled>
                <alphatype>straight</alphatype>
                <rate>
                  <timebase>12</timebase>
                  <ntsc>FALSE</ntsc>
                </rate>
                <enabled>TRUE</enabled>
                <start>40</start>
                <end>41</end>
                <file id="file-42"/>
              </clipitem>
              <clipitem frameBlend="FALSE" id="clipitem-173">
                <name>CH_BreatheFence_B.png.41.png</name>
                <masterclipid>masterclip-43</masterclipid>
                <rate>
                  <timebase>12</timebase>
                  <ntsc>FALSE</ntsc>
                </rate>
                <duration>1</duration>
                <enabled>TRUE</enabled>
                <alphatype>straight</alphatype>
                <rate>
                  <timebase>12</timebase>
                  <ntsc>FALSE</ntsc>
                </rate>
                <enabled>TRUE</enabled>
                <start>41</start>
                <end>42</end>
                <file id="file-43"/>
              </clipitem>
              <clipitem frameBlend="FALSE" id="clipitem-174">
                <name>CH_BreatheFence_B.png.42.png</name>
                <masterclipid>masterclip-44</masterclipid>
                <rate>
                  <timebase>12</timebase>
                  <ntsc>FALSE</ntsc>
                </rate>
                <duration>1</duration>
                <enabled>TRUE</enabled>
                <alphatype>straight</alphatype>
                <rate>
                  <timebase>12</timebase>
                  <ntsc>FALSE</ntsc>
                </rate>
                <enabled>TRUE</enabled>
                <start>42</start>
                <end>43</end>
                <file id="file-44"/>
              </clipitem>
              <clipitem frameBlend="FALSE" id="clipitem-175">
                <name>CH_BreatheFence_B.png.43.png</name>
                <masterclipid>masterclip-45</masterclipid>
                <rate>
                  <timebase>12</timebase>
                  <ntsc>FALSE</ntsc>
                </rate>
                <duration>1</duration>
                <enabled>TRUE</enabled>
                <alphatype>straight</alphatype>
                <rate>
                  <timebase>12</timebase>
                  <ntsc>FALSE</ntsc>
                </rate>
                <enabled>TRUE</enabled>
                <start>43</start>
                <end>44</end>
                <file id="file-45"/>
              </clipitem>
              <clipitem frameBlend="FALSE" id="clipitem-176">
                <name>CH_BreatheFence_B.png.44.png</name>
                <masterclipid>masterclip-46</masterclipid>
                <rate>
                  <timebase>12</timebase>
                  <ntsc>FALSE</ntsc>
                </rate>
                <duration>1</duration>
                <enabled>TRUE</enabled>
                <alphatype>straight</alphatype>
                <rate>
                  <timebase>12</timebase>
                  <ntsc>FALSE</ntsc>
                </rate>
                <enabled>TRUE</enabled>
                <start>44</start>
                <end>45</end>
                <file id="file-46"/>
              </clipitem>
              <clipitem frameBlend="FALSE" id="clipitem-177">
                <name>CH_BreatheFence_B.png.45.png</name>
                <masterclipid>masterclip-47</masterclipid>
                <rate>
                  <timebase>12</timebase>
                  <ntsc>FALSE</ntsc>
                </rate>
                <duration>1</duration>
                <enabled>TRUE</enabled>
                <alphatype>straight</alphatype>
                <rate>
                  <timebase>12</timebase>
                  <ntsc>FALSE</ntsc>
                </rate>
                <enabled>TRUE</enabled>
                <start>45</start>
                <end>46</end>
                <file id="file-47"/>
              </clipitem>
              <clipitem frameBlend="FALSE" id="clipitem-178">
                <name>CH_BreatheFence_B.png.46.png</name>
                <masterclipid>masterclip-48</masterclipid>
                <rate>
                  <timebase>12</timebase>
                  <ntsc>FALSE</ntsc>
                </rate>
                <duration>1</duration>
                <enabled>TRUE</enabled>
                <alphatype>straight</alphatype>
                <rate>
                  <timebase>12</timebase>
                  <ntsc>FALSE</ntsc>
                </rate>
                <enabled>TRUE</enabled>
                <start>46</start>
                <end>47</end>
                <file id="file-48"/>
              </clipitem>
              <clipitem frameBlend="FALSE" id="clipitem-179">
                <name>CH_BreatheFence_B.png.47.png</name>
                <masterclipid>masterclip-49</masterclipid>
                <rate>
                  <timebase>12</timebase>
                  <ntsc>FALSE</ntsc>
                </rate>
                <duration>1</duration>
                <enabled>TRUE</enabled>
                <alphatype>straight</alphatype>
                <rate>
                  <timebase>12</timebase>
                  <ntsc>FALSE</ntsc>
                </rate>
                <enabled>TRUE</enabled>
                <start>47</start>
                <end>48</end>
                <file id="file-49"/>
              </clipitem>
              <clipitem frameBlend="FALSE" id="clipitem-180">
                <name>CH_BreatheFence_B.png.48.png</name>
                <masterclipid>masterclip-50</masterclipid>
                <rate>
                  <timebase>12</timebase>
                  <ntsc>FALSE</ntsc>
                </rate>
                <duration>1</duration>
                <enabled>TRUE</enabled>
                <alphatype>straight</alphatype>
                <rate>
                  <timebase>12</timebase>
                  <ntsc>FALSE</ntsc>
                </rate>
                <enabled>TRUE</enabled>
                <start>48</start>
                <end>49</end>
                <file id="file-50"/>
              </clipitem>
              <clipitem frameBlend="FALSE" id="clipitem-181">
                <name>CH_BreatheFence_B.png.49.png</name>
                <masterclipid>masterclip-51</masterclipid>
                <rate>
                  <timebase>12</timebase>
                  <ntsc>FALSE</ntsc>
                </rate>
                <duration>1</duration>
                <enabled>TRUE</enabled>
                <alphatype>straight</alphatype>
                <rate>
                  <timebase>12</timebase>
                  <ntsc>FALSE</ntsc>
                </rate>
                <enabled>TRUE</enabled>
                <start>49</start>
                <end>50</end>
                <file id="file-51"/>
              </clipitem>
              <clipitem frameBlend="FALSE" id="clipitem-182">
                <name>CH_BreatheFence_B.png.50.png</name>
                <masterclipid>masterclip-52</masterclipid>
                <rate>
                  <timebase>12</timebase>
                  <ntsc>FALSE</ntsc>
                </rate>
                <duration>1</duration>
                <enabled>TRUE</enabled>
                <alphatype>straight</alphatype>
                <rate>
                  <timebase>12</timebase>
                  <ntsc>FALSE</ntsc>
                </rate>
                <enabled>TRUE</enabled>
                <start>50</start>
                <end>51</end>
                <file id="file-52"/>
              </clipitem>
              <clipitem frameBlend="FALSE" id="clipitem-183">
                <name>CH_BreatheFence_B.png.51.png</name>
                <masterclipid>masterclip-53</masterclipid>
                <rate>
                  <timebase>12</timebase>
                  <ntsc>FALSE</ntsc>
                </rate>
                <duration>1</duration>
                <enabled>TRUE</enabled>
                <alphatype>straight</alphatype>
                <rate>
                  <timebase>12</timebase>
                  <ntsc>FALSE</ntsc>
                </rate>
                <enabled>TRUE</enabled>
                <start>51</start>
                <end>52</end>
                <file id="file-53"/>
              </clipitem>
              <clipitem frameBlend="FALSE" id="clipitem-184">
                <name>CH_BreatheFence_B.png.52.png</name>
                <masterclipid>masterclip-54</masterclipid>
                <rate>
                  <timebase>12</timebase>
                  <ntsc>FALSE</ntsc>
                </rate>
                <duration>1</duration>
                <enabled>TRUE</enabled>
                <alphatype>straight</alphatype>
                <rate>
                  <timebase>12</timebase>
                  <ntsc>FALSE</ntsc>
                </rate>
                <enabled>TRUE</enabled>
                <start>52</start>
                <end>53</end>
                <file id="file-54"/>
              </clipitem>
              <clipitem frameBlend="FALSE" id="clipitem-185">
                <name>CH_BreatheFence_B.png.53.png</name>
                <masterclipid>masterclip-55</masterclipid>
                <rate>
                  <timebase>12</timebase>
                  <ntsc>FALSE</ntsc>
                </rate>
                <duration>1</duration>
                <enabled>TRUE</enabled>
                <alphatype>straight</alphatype>
                <rate>
                  <timebase>12</timebase>
                  <ntsc>FALSE</ntsc>
                </rate>
                <enabled>TRUE</enabled>
                <start>53</start>
                <end>54</end>
                <file id="file-55"/>
              </clipitem>
              <clipitem frameBlend="FALSE" id="clipitem-186">
                <name>CH_BreatheFence_B.png.54.png</name>
                <masterclipid>masterclip-56</masterclipid>
                <rate>
                  <timebase>12</timebase>
                  <ntsc>FALSE</ntsc>
                </rate>
                <duration>1</duration>
                <enabled>TRUE</enabled>
                <alphatype>straight</alphatype>
                <rate>
                  <timebase>12</timebase>
                  <ntsc>FALSE</ntsc>
                </rate>
                <enabled>TRUE</enabled>
                <start>54</start>
                <end>55</end>
                <file id="file-56"/>
              </clipitem>
              <clipitem frameBlend="FALSE" id="clipitem-187">
                <name>CH_BreatheFence_B.png.55.png</name>
                <masterclipid>masterclip-57</masterclipid>
                <rate>
                  <timebase>12</timebase>
                  <ntsc>FALSE</ntsc>
                </rate>
                <duration>1</duration>
                <enabled>TRUE</enabled>
                <alphatype>straight</alphatype>
                <rate>
                  <timebase>12</timebase>
                  <ntsc>FALSE</ntsc>
                </rate>
                <enabled>TRUE</enabled>
                <start>55</start>
                <end>56</end>
                <file id="file-57"/>
              </clipitem>
              <clipitem frameBlend="FALSE" id="clipitem-188">
                <name>CH_BreatheFence_B.png.56.png</name>
                <masterclipid>masterclip-58</masterclipid>
                <rate>
                  <timebase>12</timebase>
                  <ntsc>FALSE</ntsc>
                </rate>
                <duration>1</duration>
                <enabled>TRUE</enabled>
                <alphatype>straight</alphatype>
                <rate>
                  <timebase>12</timebase>
                  <ntsc>FALSE</ntsc>
                </rate>
                <enabled>TRUE</enabled>
                <start>56</start>
                <end>57</end>
                <file id="file-58"/>
              </clipitem>
              <clipitem frameBlend="FALSE" id="clipitem-189">
                <name>CH_BreatheFence_B.png.57.png</name>
                <masterclipid>masterclip-59</masterclipid>
                <rate>
                  <timebase>12</timebase>
                  <ntsc>FALSE</ntsc>
                </rate>
                <duration>1</duration>
                <enabled>TRUE</enabled>
                <alphatype>straight</alphatype>
                <rate>
                  <timebase>12</timebase>
                  <ntsc>FALSE</ntsc>
                </rate>
                <enabled>TRUE</enabled>
                <start>57</start>
                <end>58</end>
                <file id="file-59"/>
              </clipitem>
              <clipitem frameBlend="FALSE" id="clipitem-190">
                <name>CH_BreatheFence_B.png.58.png</name>
                <masterclipid>masterclip-60</masterclipid>
                <rate>
                  <timebase>12</timebase>
                  <ntsc>FALSE</ntsc>
                </rate>
                <duration>1</duration>
                <enabled>TRUE</enabled>
                <alphatype>straight</alphatype>
                <rate>
                  <timebase>12</timebase>
                  <ntsc>FALSE</ntsc>
                </rate>
                <enabled>TRUE</enabled>
                <start>58</start>
                <end>59</end>
                <file id="file-60"/>
              </clipitem>
              <clipitem frameBlend="FALSE" id="clipitem-191">
                <name>CH_BreatheFence_B.png.59.png</name>
                <masterclipid>masterclip-61</masterclipid>
                <rate>
                  <timebase>12</timebase>
                  <ntsc>FALSE</ntsc>
                </rate>
                <duration>1</duration>
                <enabled>TRUE</enabled>
                <alphatype>straight</alphatype>
                <rate>
                  <timebase>12</timebase>
                  <ntsc>FALSE</ntsc>
                </rate>
                <enabled>TRUE</enabled>
                <start>59</start>
                <end>60</end>
                <file id="file-61"/>
              </clipitem>
              <clipitem frameBlend="FALSE" id="clipitem-192">
                <name>CH_BreatheFence_B.png.60.png</name>
                <masterclipid>masterclip-62</masterclipid>
                <rate>
                  <timebase>12</timebase>
                  <ntsc>FALSE</ntsc>
                </rate>
                <duration>1</duration>
                <enabled>TRUE</enabled>
                <alphatype>straight</alphatype>
                <rate>
                  <timebase>12</timebase>
                  <ntsc>FALSE</ntsc>
                </rate>
                <enabled>TRUE</enabled>
                <start>60</start>
                <end>61</end>
                <file id="file-62"/>
              </clipitem>
              <clipitem frameBlend="FALSE" id="clipitem-193">
                <name>CH_BreatheFence_B.png.61.png</name>
                <masterclipid>masterclip-63</masterclipid>
                <rate>
                  <timebase>12</timebase>
                  <ntsc>FALSE</ntsc>
                </rate>
                <duration>1</duration>
                <enabled>TRUE</enabled>
                <alphatype>straight</alphatype>
                <rate>
                  <timebase>12</timebase>
                  <ntsc>FALSE</ntsc>
                </rate>
                <enabled>TRUE</enabled>
                <start>61</start>
                <end>62</end>
                <file id="file-63"/>
              </clipitem>
              <clipitem frameBlend="FALSE" id="clipitem-194">
                <name>CH_BreatheFence_B.png.62.png</name>
                <masterclipid>masterclip-64</masterclipid>
                <rate>
                  <timebase>12</timebase>
                  <ntsc>FALSE</ntsc>
                </rate>
                <duration>1</duration>
                <enabled>TRUE</enabled>
                <alphatype>straight</alphatype>
                <rate>
                  <timebase>12</timebase>
                  <ntsc>FALSE</ntsc>
                </rate>
                <enabled>TRUE</enabled>
                <start>62</start>
                <end>63</end>
                <file id="file-64"/>
              </clipitem>
              <clipitem frameBlend="FALSE" id="clipitem-195">
                <name>CH_BreatheFence_B.png.63.png</name>
                <masterclipid>masterclip-65</masterclipid>
                <rate>
                  <timebase>12</timebase>
                  <ntsc>FALSE</ntsc>
                </rate>
                <duration>1</duration>
                <enabled>TRUE</enabled>
                <alphatype>straight</alphatype>
                <rate>
                  <timebase>12</timebase>
                  <ntsc>FALSE</ntsc>
                </rate>
                <enabled>TRUE</enabled>
                <start>63</start>
                <end>64</end>
                <file id="file-65"/>
              </clipitem>
              <clipitem frameBlend="FALSE" id="clipitem-196">
                <name>CH_BreatheFence_B.png.64.png</name>
                <masterclipid>masterclip-66</masterclipid>
                <rate>
                  <timebase>12</timebase>
                  <ntsc>FALSE</ntsc>
                </rate>
                <duration>1</duration>
                <enabled>TRUE</enabled>
                <alphatype>straight</alphatype>
                <rate>
                  <timebase>12</timebase>
                  <ntsc>FALSE</ntsc>
                </rate>
                <enabled>TRUE</enabled>
                <start>64</start>
                <end>65</end>
                <file id="file-66"/>
              </clipitem>
              <clipitem frameBlend="FALSE" id="clipitem-197">
                <name>CH_BreatheFence_B.png.65.png</name>
                <masterclipid>masterclip-67</masterclipid>
                <rate>
                  <timebase>12</timebase>
                  <ntsc>FALSE</ntsc>
                </rate>
                <duration>1</duration>
                <enabled>TRUE</enabled>
                <alphatype>straight</alphatype>
                <rate>
                  <timebase>12</timebase>
                  <ntsc>FALSE</ntsc>
                </rate>
                <enabled>TRUE</enabled>
                <start>65</start>
                <end>66</end>
                <file id="file-67"/>
              </clipitem>
              <clipitem frameBlend="FALSE" id="clipitem-198">
                <name>CH_BreatheFence_B.png.66.png</name>
                <masterclipid>masterclip-68</masterclipid>
                <rate>
                  <timebase>12</timebase>
                  <ntsc>FALSE</ntsc>
                </rate>
                <duration>1</duration>
                <enabled>TRUE</enabled>
                <alphatype>straight</alphatype>
                <rate>
                  <timebase>12</timebase>
                  <ntsc>FALSE</ntsc>
                </rate>
                <enabled>TRUE</enabled>
                <start>66</start>
                <end>67</end>
                <file id="file-68"/>
              </clipitem>
              <clipitem frameBlend="FALSE" id="clipitem-199">
                <name>CH_BreatheFence_B.png.67.png</name>
                <masterclipid>masterclip-69</masterclipid>
                <rate>
                  <timebase>12</timebase>
                  <ntsc>FALSE</ntsc>
                </rate>
                <duration>1</duration>
                <enabled>TRUE</enabled>
                <alphatype>straight</alphatype>
                <rate>
                  <timebase>12</timebase>
                  <ntsc>FALSE</ntsc>
                </rate>
                <enabled>TRUE</enabled>
                <start>67</start>
                <end>68</end>
                <file id="file-69"/>
              </clipitem>
              <clipitem frameBlend="FALSE" id="clipitem-200">
                <name>CH_BreatheFence_B.png.68.png</name>
                <masterclipid>masterclip-70</masterclipid>
                <rate>
                  <timebase>12</timebase>
                  <ntsc>FALSE</ntsc>
                </rate>
                <duration>1</duration>
                <enabled>TRUE</enabled>
                <alphatype>straight</alphatype>
                <rate>
                  <timebase>12</timebase>
                  <ntsc>FALSE</ntsc>
                </rate>
                <enabled>TRUE</enabled>
                <start>68</start>
                <end>69</end>
                <file id="file-70"/>
              </clipitem>
              <clipitem frameBlend="FALSE" id="clipitem-201">
                <name>CH_BreatheFence_B.png.69.png</name>
                <masterclipid>masterclip-71</masterclipid>
                <rate>
                  <timebase>12</timebase>
                  <ntsc>FALSE</ntsc>
                </rate>
                <duration>1</duration>
                <enabled>TRUE</enabled>
                <alphatype>straight</alphatype>
                <rate>
                  <timebase>12</timebase>
                  <ntsc>FALSE</ntsc>
                </rate>
                <enabled>TRUE</enabled>
                <start>69</start>
                <end>70</end>
                <file id="file-71"/>
              </clipitem>
              <clipitem frameBlend="FALSE" id="clipitem-202">
                <name>CH_BreatheFence_B.png.70.png</name>
                <masterclipid>masterclip-72</masterclipid>
                <rate>
                  <timebase>12</timebase>
                  <ntsc>FALSE</ntsc>
                </rate>
                <duration>1</duration>
                <enabled>TRUE</enabled>
                <alphatype>straight</alphatype>
                <rate>
                  <timebase>12</timebase>
                  <ntsc>FALSE</ntsc>
                </rate>
                <enabled>TRUE</enabled>
                <start>70</start>
                <end>71</end>
                <file id="file-72"/>
              </clipitem>
              <clipitem frameBlend="FALSE" id="clipitem-203">
                <name>CH_BreatheFence_B.png.71.png</name>
                <masterclipid>masterclip-73</masterclipid>
                <rate>
                  <timebase>12</timebase>
                  <ntsc>FALSE</ntsc>
                </rate>
                <duration>1</duration>
                <enabled>TRUE</enabled>
                <alphatype>straight</alphatype>
                <rate>
                  <timebase>12</timebase>
                  <ntsc>FALSE</ntsc>
                </rate>
                <enabled>TRUE</enabled>
                <start>71</start>
                <end>72</end>
                <file id="file-73"/>
              </clipitem>
              <clipitem frameBlend="FALSE" id="clipitem-204">
                <name>CH_BreatheFence_B.png.72.png</name>
                <masterclipid>masterclip-74</masterclipid>
                <rate>
                  <timebase>12</timebase>
                  <ntsc>FALSE</ntsc>
                </rate>
                <duration>1</duration>
                <enabled>TRUE</enabled>
                <alphatype>straight</alphatype>
                <rate>
                  <timebase>12</timebase>
                  <ntsc>FALSE</ntsc>
                </rate>
                <enabled>TRUE</enabled>
                <start>72</start>
                <end>73</end>
                <file id="file-74"/>
              </clipitem>
              <clipitem frameBlend="FALSE" id="clipitem-205">
                <name>CH_BreatheFence_B.png.73.png</name>
                <masterclipid>masterclip-75</masterclipid>
                <rate>
                  <timebase>12</timebase>
                  <ntsc>FALSE</ntsc>
                </rate>
                <duration>1</duration>
                <enabled>TRUE</enabled>
                <alphatype>straight</alphatype>
                <rate>
                  <timebase>12</timebase>
                  <ntsc>FALSE</ntsc>
                </rate>
                <enabled>TRUE</enabled>
                <start>73</start>
                <end>74</end>
                <file id="file-75"/>
              </clipitem>
              <clipitem frameBlend="FALSE" id="clipitem-206">
                <name>CH_BreatheFence_B.png.74.png</name>
                <masterclipid>masterclip-76</masterclipid>
                <rate>
                  <timebase>12</timebase>
                  <ntsc>FALSE</ntsc>
                </rate>
                <duration>1</duration>
                <enabled>TRUE</enabled>
                <alphatype>straight</alphatype>
                <rate>
                  <timebase>12</timebase>
                  <ntsc>FALSE</ntsc>
                </rate>
                <enabled>TRUE</enabled>
                <start>74</start>
                <end>75</end>
                <file id="file-76"/>
              </clipitem>
              <clipitem frameBlend="FALSE" id="clipitem-207">
                <name>CH_BreatheFence_B.png.75.png</name>
                <masterclipid>masterclip-77</masterclipid>
                <rate>
                  <timebase>12</timebase>
                  <ntsc>FALSE</ntsc>
                </rate>
                <duration>1</duration>
                <enabled>TRUE</enabled>
                <alphatype>straight</alphatype>
                <rate>
                  <timebase>12</timebase>
                  <ntsc>FALSE</ntsc>
                </rate>
                <enabled>TRUE</enabled>
                <start>75</start>
                <end>76</end>
                <file id="file-77"/>
              </clipitem>
              <clipitem frameBlend="FALSE" id="clipitem-208">
                <name>CH_BreatheFence_B.png.76.png</name>
                <masterclipid>masterclip-78</masterclipid>
                <rate>
                  <timebase>12</timebase>
                  <ntsc>FALSE</ntsc>
                </rate>
                <duration>1</duration>
                <enabled>TRUE</enabled>
                <alphatype>straight</alphatype>
                <rate>
                  <timebase>12</timebase>
                  <ntsc>FALSE</ntsc>
                </rate>
                <enabled>TRUE</enabled>
                <start>76</start>
                <end>77</end>
                <file id="file-78"/>
              </clipitem>
              <clipitem frameBlend="FALSE" id="clipitem-209">
                <name>CH_BreatheFence_B.png.77.png</name>
                <masterclipid>masterclip-79</masterclipid>
                <rate>
                  <timebase>12</timebase>
                  <ntsc>FALSE</ntsc>
                </rate>
                <duration>1</duration>
                <enabled>TRUE</enabled>
                <alphatype>straight</alphatype>
                <rate>
                  <timebase>12</timebase>
                  <ntsc>FALSE</ntsc>
                </rate>
                <enabled>TRUE</enabled>
                <start>77</start>
                <end>78</end>
                <file id="file-79"/>
              </clipitem>
              <clipitem frameBlend="FALSE" id="clipitem-210">
                <name>CH_BreatheFence_B.png.78.png</name>
                <masterclipid>masterclip-80</masterclipid>
                <rate>
                  <timebase>12</timebase>
                  <ntsc>FALSE</ntsc>
                </rate>
                <duration>1</duration>
                <enabled>TRUE</enabled>
                <alphatype>straight</alphatype>
                <rate>
                  <timebase>12</timebase>
                  <ntsc>FALSE</ntsc>
                </rate>
                <enabled>TRUE</enabled>
                <start>78</start>
                <end>79</end>
                <file id="file-80"/>
              </clipitem>
              <clipitem frameBlend="FALSE" id="clipitem-211">
                <name>CH_BreatheFence_B.png.79.png</name>
                <masterclipid>masterclip-81</masterclipid>
                <rate>
                  <timebase>12</timebase>
                  <ntsc>FALSE</ntsc>
                </rate>
                <duration>1</duration>
                <enabled>TRUE</enabled>
                <alphatype>straight</alphatype>
                <rate>
                  <timebase>12</timebase>
                  <ntsc>FALSE</ntsc>
                </rate>
                <enabled>TRUE</enabled>
                <start>79</start>
                <end>80</end>
                <file id="file-81"/>
              </clipitem>
              <clipitem frameBlend="FALSE" id="clipitem-212">
                <name>CH_BreatheFence_B.png.80.png</name>
                <masterclipid>masterclip-82</masterclipid>
                <rate>
                  <timebase>12</timebase>
                  <ntsc>FALSE</ntsc>
                </rate>
                <duration>1</duration>
                <enabled>TRUE</enabled>
                <alphatype>straight</alphatype>
                <rate>
                  <timebase>12</timebase>
                  <ntsc>FALSE</ntsc>
                </rate>
                <enabled>TRUE</enabled>
                <start>80</start>
                <end>81</end>
                <file id="file-82"/>
              </clipitem>
              <clipitem frameBlend="FALSE" id="clipitem-213">
                <name>CH_BreatheFence_B.png.81.png</name>
                <masterclipid>masterclip-83</masterclipid>
                <rate>
                  <timebase>12</timebase>
                  <ntsc>FALSE</ntsc>
                </rate>
                <duration>1</duration>
                <enabled>TRUE</enabled>
                <alphatype>straight</alphatype>
                <rate>
                  <timebase>12</timebase>
                  <ntsc>FALSE</ntsc>
                </rate>
                <enabled>TRUE</enabled>
                <start>81</start>
                <end>82</end>
                <file id="file-83"/>
              </clipitem>
              <clipitem frameBlend="FALSE" id="clipitem-214">
                <name>CH_BreatheFence_B.png.82.png</name>
                <masterclipid>masterclip-84</masterclipid>
                <rate>
                  <timebase>12</timebase>
                  <ntsc>FALSE</ntsc>
                </rate>
                <duration>1</duration>
                <enabled>TRUE</enabled>
                <alphatype>straight</alphatype>
                <rate>
                  <timebase>12</timebase>
                  <ntsc>FALSE</ntsc>
                </rate>
                <enabled>TRUE</enabled>
                <start>82</start>
                <end>83</end>
                <file id="file-84"/>
              </clipitem>
              <clipitem frameBlend="FALSE" id="clipitem-215">
                <name>CH_BreatheFence_B.png.83.png</name>
                <masterclipid>masterclip-85</masterclipid>
                <rate>
                  <timebase>12</timebase>
                  <ntsc>FALSE</ntsc>
                </rate>
                <duration>1</duration>
                <enabled>TRUE</enabled>
                <alphatype>straight</alphatype>
                <rate>
                  <timebase>12</timebase>
                  <ntsc>FALSE</ntsc>
                </rate>
                <enabled>TRUE</enabled>
                <start>83</start>
                <end>84</end>
                <file id="file-85"/>
              </clipitem>
              <clipitem frameBlend="FALSE" id="clipitem-216">
                <name>CH_BreatheFence_B.png.84.png</name>
                <masterclipid>masterclip-86</masterclipid>
                <rate>
                  <timebase>12</timebase>
                  <ntsc>FALSE</ntsc>
                </rate>
                <duration>1</duration>
                <enabled>TRUE</enabled>
                <alphatype>straight</alphatype>
                <rate>
                  <timebase>12</timebase>
                  <ntsc>FALSE</ntsc>
                </rate>
                <enabled>TRUE</enabled>
                <start>84</start>
                <end>85</end>
                <file id="file-86"/>
              </clipitem>
              <clipitem frameBlend="FALSE" id="clipitem-217">
                <name>CH_BreatheFence_B.png.85.png</name>
                <masterclipid>masterclip-87</masterclipid>
                <rate>
                  <timebase>12</timebase>
                  <ntsc>FALSE</ntsc>
                </rate>
                <duration>1</duration>
                <enabled>TRUE</enabled>
                <alphatype>straight</alphatype>
                <rate>
                  <timebase>12</timebase>
                  <ntsc>FALSE</ntsc>
                </rate>
                <enabled>TRUE</enabled>
                <start>85</start>
                <end>86</end>
                <file id="file-87"/>
              </clipitem>
              <clipitem frameBlend="FALSE" id="clipitem-218">
                <name>CH_BreatheFence_B.png.86.png</name>
                <masterclipid>masterclip-88</masterclipid>
                <rate>
                  <timebase>12</timebase>
                  <ntsc>FALSE</ntsc>
                </rate>
                <duration>1</duration>
                <enabled>TRUE</enabled>
                <alphatype>straight</alphatype>
                <rate>
                  <timebase>12</timebase>
                  <ntsc>FALSE</ntsc>
                </rate>
                <enabled>TRUE</enabled>
                <start>86</start>
                <end>87</end>
                <file id="file-88"/>
              </clipitem>
              <clipitem frameBlend="FALSE" id="clipitem-219">
                <name>CH_BreatheFence_B.png.87.png</name>
                <masterclipid>masterclip-89</masterclipid>
                <rate>
                  <timebase>12</timebase>
                  <ntsc>FALSE</ntsc>
                </rate>
                <duration>1</duration>
                <enabled>TRUE</enabled>
                <alphatype>straight</alphatype>
                <rate>
                  <timebase>12</timebase>
                  <ntsc>FALSE</ntsc>
                </rate>
                <enabled>TRUE</enabled>
                <start>87</start>
                <end>88</end>
                <file id="file-89"/>
              </clipitem>
              <clipitem frameBlend="FALSE" id="clipitem-220">
                <name>CH_BreatheFence_B.png.88.png</name>
                <masterclipid>masterclip-90</masterclipid>
                <rate>
                  <timebase>12</timebase>
                  <ntsc>FALSE</ntsc>
                </rate>
                <duration>1</duration>
                <enabled>TRUE</enabled>
                <alphatype>straight</alphatype>
                <rate>
                  <timebase>12</timebase>
                  <ntsc>FALSE</ntsc>
                </rate>
                <enabled>TRUE</enabled>
                <start>88</start>
                <end>89</end>
                <file id="file-90"/>
              </clipitem>
              <clipitem frameBlend="FALSE" id="clipitem-221">
                <name>CH_BreatheFence_B.png.89.png</name>
                <masterclipid>masterclip-91</masterclipid>
                <rate>
                  <timebase>12</timebase>
                  <ntsc>FALSE</ntsc>
                </rate>
                <duration>1</duration>
                <enabled>TRUE</enabled>
                <alphatype>straight</alphatype>
                <rate>
                  <timebase>12</timebase>
                  <ntsc>FALSE</ntsc>
                </rate>
                <enabled>TRUE</enabled>
                <start>89</start>
                <end>90</end>
                <file id="file-91"/>
              </clipitem>
              <clipitem frameBlend="FALSE" id="clipitem-222">
                <name>CH_BreatheFence_B.png.90.png</name>
                <masterclipid>masterclip-92</masterclipid>
                <rate>
                  <timebase>12</timebase>
                  <ntsc>FALSE</ntsc>
                </rate>
                <duration>1</duration>
                <enabled>TRUE</enabled>
                <alphatype>straight</alphatype>
                <rate>
                  <timebase>12</timebase>
                  <ntsc>FALSE</ntsc>
                </rate>
                <enabled>TRUE</enabled>
                <start>90</start>
                <end>91</end>
                <file id="file-92"/>
              </clipitem>
              <clipitem frameBlend="FALSE" id="clipitem-223">
                <name>CH_BreatheFence_B.png.91.png</name>
                <masterclipid>masterclip-93</masterclipid>
                <rate>
                  <timebase>12</timebase>
                  <ntsc>FALSE</ntsc>
                </rate>
                <duration>1</duration>
                <enabled>TRUE</enabled>
                <alphatype>straight</alphatype>
                <rate>
                  <timebase>12</timebase>
                  <ntsc>FALSE</ntsc>
                </rate>
                <enabled>TRUE</enabled>
                <start>91</start>
                <end>92</end>
                <file id="file-93"/>
              </clipitem>
              <clipitem frameBlend="FALSE" id="clipitem-224">
                <name>CH_BreatheFence_B.png.92.png</name>
                <masterclipid>masterclip-94</masterclipid>
                <rate>
                  <timebase>12</timebase>
                  <ntsc>FALSE</ntsc>
                </rate>
                <duration>1</duration>
                <enabled>TRUE</enabled>
                <alphatype>straight</alphatype>
                <rate>
                  <timebase>12</timebase>
                  <ntsc>FALSE</ntsc>
                </rate>
                <enabled>TRUE</enabled>
                <start>92</start>
                <end>93</end>
                <file id="file-94"/>
              </clipitem>
              <clipitem frameBlend="FALSE" id="clipitem-225">
                <name>CH_BreatheFence_B.png.93.png</name>
                <masterclipid>masterclip-95</masterclipid>
                <rate>
                  <timebase>12</timebase>
                  <ntsc>FALSE</ntsc>
                </rate>
                <duration>1</duration>
                <enabled>TRUE</enabled>
                <alphatype>straight</alphatype>
                <rate>
                  <timebase>12</timebase>
                  <ntsc>FALSE</ntsc>
                </rate>
                <enabled>TRUE</enabled>
                <start>93</start>
                <end>94</end>
                <file id="file-95"/>
              </clipitem>
              <clipitem frameBlend="FALSE" id="clipitem-226">
                <name>CH_BreatheFence_B.png.94.png</name>
                <masterclipid>masterclip-96</masterclipid>
                <rate>
                  <timebase>12</timebase>
                  <ntsc>FALSE</ntsc>
                </rate>
                <duration>1</duration>
                <enabled>TRUE</enabled>
                <alphatype>straight</alphatype>
                <rate>
                  <timebase>12</timebase>
                  <ntsc>FALSE</ntsc>
                </rate>
                <enabled>TRUE</enabled>
                <start>94</start>
                <end>95</end>
                <file id="file-96"/>
              </clipitem>
              <clipitem frameBlend="FALSE" id="clipitem-227">
                <name>CH_BreatheFence_B.png.95.png</name>
                <masterclipid>masterclip-97</masterclipid>
                <rate>
                  <timebase>12</timebase>
                  <ntsc>FALSE</ntsc>
                </rate>
                <duration>1</duration>
                <enabled>TRUE</enabled>
                <alphatype>straight</alphatype>
                <rate>
                  <timebase>12</timebase>
                  <ntsc>FALSE</ntsc>
                </rate>
                <enabled>TRUE</enabled>
                <start>95</start>
                <end>96</end>
                <file id="file-97"/>
              </clipitem>
              <clipitem frameBlend="FALSE" id="clipitem-228">
                <name>CH_BreatheFence_B.png.96.png</name>
                <masterclipid>masterclip-98</masterclipid>
                <rate>
                  <timebase>12</timebase>
                  <ntsc>FALSE</ntsc>
                </rate>
                <duration>1</duration>
                <enabled>TRUE</enabled>
                <alphatype>straight</alphatype>
                <rate>
                  <timebase>12</timebase>
                  <ntsc>FALSE</ntsc>
                </rate>
                <enabled>TRUE</enabled>
                <start>96</start>
                <end>97</end>
                <file id="file-98"/>
              </clipitem>
              <clipitem frameBlend="FALSE" id="clipitem-229">
                <name>CH_BreatheFence_B.png.97.png</name>
                <masterclipid>masterclip-99</masterclipid>
                <rate>
                  <timebase>12</timebase>
                  <ntsc>FALSE</ntsc>
                </rate>
                <duration>1</duration>
                <enabled>TRUE</enabled>
                <alphatype>straight</alphatype>
                <rate>
                  <timebase>12</timebase>
                  <ntsc>FALSE</ntsc>
                </rate>
                <enabled>TRUE</enabled>
                <start>97</start>
                <end>98</end>
                <file id="file-99"/>
              </clipitem>
              <clipitem frameBlend="FALSE" id="clipitem-230">
                <name>CH_BreatheFence_B.png.98.png</name>
                <masterclipid>masterclip-100</masterclipid>
                <rate>
                  <timebase>12</timebase>
                  <ntsc>FALSE</ntsc>
                </rate>
                <duration>1</duration>
                <enabled>TRUE</enabled>
                <alphatype>straight</alphatype>
                <rate>
                  <timebase>12</timebase>
                  <ntsc>FALSE</ntsc>
                </rate>
                <enabled>TRUE</enabled>
                <start>98</start>
                <end>99</end>
                <file id="file-100"/>
              </clipitem>
              <clipitem frameBlend="FALSE" id="clipitem-231">
                <name>CH_BreatheFence_B.png.99.png</name>
                <masterclipid>masterclip-101</masterclipid>
                <rate>
                  <timebase>12</timebase>
                  <ntsc>FALSE</ntsc>
                </rate>
                <duration>1</duration>
                <enabled>TRUE</enabled>
                <alphatype>straight</alphatype>
                <rate>
                  <timebase>12</timebase>
                  <ntsc>FALSE</ntsc>
                </rate>
                <enabled>TRUE</enabled>
                <start>99</start>
                <end>100</end>
                <file id="file-101"/>
              </clipitem>
              <clipitem frameBlend="FALSE" id="clipitem-232">
                <name>CH_BreatheFence_B.png.100.png</name>
                <masterclipid>masterclip-102</masterclipid>
                <rate>
                  <timebase>12</timebase>
                  <ntsc>FALSE</ntsc>
                </rate>
                <duration>1</duration>
                <enabled>TRUE</enabled>
                <alphatype>straight</alphatype>
                <rate>
                  <timebase>12</timebase>
                  <ntsc>FALSE</ntsc>
                </rate>
                <enabled>TRUE</enabled>
                <start>100</start>
                <end>101</end>
                <file id="file-102"/>
              </clipitem>
              <clipitem frameBlend="FALSE" id="clipitem-233">
                <name>CH_BreatheFence_B.png.101.png</name>
                <masterclipid>masterclip-103</masterclipid>
                <rate>
                  <timebase>12</timebase>
                  <ntsc>FALSE</ntsc>
                </rate>
                <duration>1</duration>
                <enabled>TRUE</enabled>
                <alphatype>straight</alphatype>
                <rate>
                  <timebase>12</timebase>
                  <ntsc>FALSE</ntsc>
                </rate>
                <enabled>TRUE</enabled>
                <start>101</start>
                <end>102</end>
                <file id="file-103"/>
              </clipitem>
              <clipitem frameBlend="FALSE" id="clipitem-234">
                <name>CH_BreatheFence_B.png.102.png</name>
                <masterclipid>masterclip-104</masterclipid>
                <rate>
                  <timebase>12</timebase>
                  <ntsc>FALSE</ntsc>
                </rate>
                <duration>1</duration>
                <enabled>TRUE</enabled>
                <alphatype>straight</alphatype>
                <rate>
                  <timebase>12</timebase>
                  <ntsc>FALSE</ntsc>
                </rate>
                <enabled>TRUE</enabled>
                <start>102</start>
                <end>103</end>
                <file id="file-104"/>
              </clipitem>
              <clipitem frameBlend="FALSE" id="clipitem-235">
                <name>CH_BreatheFence_B.png.103.png</name>
                <masterclipid>masterclip-105</masterclipid>
                <rate>
                  <timebase>12</timebase>
                  <ntsc>FALSE</ntsc>
                </rate>
                <duration>1</duration>
                <enabled>TRUE</enabled>
                <alphatype>straight</alphatype>
                <rate>
                  <timebase>12</timebase>
                  <ntsc>FALSE</ntsc>
                </rate>
                <enabled>TRUE</enabled>
                <start>103</start>
                <end>104</end>
                <file id="file-105"/>
              </clipitem>
              <clipitem frameBlend="FALSE" id="clipitem-236">
                <name>CH_BreatheFence_B.png.104.png</name>
                <masterclipid>masterclip-106</masterclipid>
                <rate>
                  <timebase>12</timebase>
                  <ntsc>FALSE</ntsc>
                </rate>
                <duration>1</duration>
                <enabled>TRUE</enabled>
                <alphatype>straight</alphatype>
                <rate>
                  <timebase>12</timebase>
                  <ntsc>FALSE</ntsc>
                </rate>
                <enabled>TRUE</enabled>
                <start>104</start>
                <end>105</end>
                <file id="file-106"/>
              </clipitem>
              <clipitem frameBlend="FALSE" id="clipitem-237">
                <name>CH_BreatheFence_B.png.105.png</name>
                <masterclipid>masterclip-107</masterclipid>
                <rate>
                  <timebase>12</timebase>
                  <ntsc>FALSE</ntsc>
                </rate>
                <duration>1</duration>
                <enabled>TRUE</enabled>
                <alphatype>straight</alphatype>
                <rate>
                  <timebase>12</timebase>
                  <ntsc>FALSE</ntsc>
                </rate>
                <enabled>TRUE</enabled>
                <start>105</start>
                <end>106</end>
                <file id="file-107"/>
              </clipitem>
              <clipitem frameBlend="FALSE" id="clipitem-238">
                <name>CH_BreatheFence_B.png.106.png</name>
                <masterclipid>masterclip-108</masterclipid>
                <rate>
                  <timebase>12</timebase>
                  <ntsc>FALSE</ntsc>
                </rate>
                <duration>1</duration>
                <enabled>TRUE</enabled>
                <alphatype>straight</alphatype>
                <rate>
                  <timebase>12</timebase>
                  <ntsc>FALSE</ntsc>
                </rate>
                <enabled>TRUE</enabled>
                <start>106</start>
                <end>107</end>
                <file id="file-108"/>
              </clipitem>
              <clipitem frameBlend="FALSE" id="clipitem-239">
                <name>CH_BreatheFence_B.png.107.png</name>
                <masterclipid>masterclip-109</masterclipid>
                <rate>
                  <timebase>12</timebase>
                  <ntsc>FALSE</ntsc>
                </rate>
                <duration>1</duration>
                <enabled>TRUE</enabled>
                <alphatype>straight</alphatype>
                <rate>
                  <timebase>12</timebase>
                  <ntsc>FALSE</ntsc>
                </rate>
                <enabled>TRUE</enabled>
                <start>107</start>
                <end>108</end>
                <file id="file-109"/>
              </clipitem>
              <clipitem frameBlend="FALSE" id="clipitem-240">
                <name>CH_BreatheFence_B.png.108.png</name>
                <masterclipid>masterclip-110</masterclipid>
                <rate>
                  <timebase>12</timebase>
                  <ntsc>FALSE</ntsc>
                </rate>
                <duration>1</duration>
                <enabled>TRUE</enabled>
                <alphatype>straight</alphatype>
                <rate>
                  <timebase>12</timebase>
                  <ntsc>FALSE</ntsc>
                </rate>
                <enabled>TRUE</enabled>
                <start>108</start>
                <end>109</end>
                <file id="file-110"/>
              </clipitem>
              <clipitem frameBlend="FALSE" id="clipitem-241">
                <name>CH_BreatheFence_B.png.109.png</name>
                <masterclipid>masterclip-111</masterclipid>
                <rate>
                  <timebase>12</timebase>
                  <ntsc>FALSE</ntsc>
                </rate>
                <duration>1</duration>
                <enabled>TRUE</enabled>
                <alphatype>straight</alphatype>
                <rate>
                  <timebase>12</timebase>
                  <ntsc>FALSE</ntsc>
                </rate>
                <enabled>TRUE</enabled>
                <start>109</start>
                <end>110</end>
                <file id="file-111"/>
              </clipitem>
              <clipitem frameBlend="FALSE" id="clipitem-242">
                <name>CH_BreatheFence_B.png.110.png</name>
                <masterclipid>masterclip-112</masterclipid>
                <rate>
                  <timebase>12</timebase>
                  <ntsc>FALSE</ntsc>
                </rate>
                <duration>1</duration>
                <enabled>TRUE</enabled>
                <alphatype>straight</alphatype>
                <rate>
                  <timebase>12</timebase>
                  <ntsc>FALSE</ntsc>
                </rate>
                <enabled>TRUE</enabled>
                <start>110</start>
                <end>111</end>
                <file id="file-112"/>
              </clipitem>
              <clipitem frameBlend="FALSE" id="clipitem-243">
                <name>CH_BreatheFence_B.png.111.png</name>
                <masterclipid>masterclip-113</masterclipid>
                <rate>
                  <timebase>12</timebase>
                  <ntsc>FALSE</ntsc>
                </rate>
                <duration>1</duration>
                <enabled>TRUE</enabled>
                <alphatype>straight</alphatype>
                <rate>
                  <timebase>12</timebase>
                  <ntsc>FALSE</ntsc>
                </rate>
                <enabled>TRUE</enabled>
                <start>111</start>
                <end>112</end>
                <file id="file-113"/>
              </clipitem>
              <clipitem frameBlend="FALSE" id="clipitem-244">
                <name>CH_BreatheFence_B.png.112.png</name>
                <masterclipid>masterclip-114</masterclipid>
                <rate>
                  <timebase>12</timebase>
                  <ntsc>FALSE</ntsc>
                </rate>
                <duration>1</duration>
                <enabled>TRUE</enabled>
                <alphatype>straight</alphatype>
                <rate>
                  <timebase>12</timebase>
                  <ntsc>FALSE</ntsc>
                </rate>
                <enabled>TRUE</enabled>
                <start>112</start>
                <end>113</end>
                <file id="file-114"/>
              </clipitem>
              <clipitem frameBlend="FALSE" id="clipitem-245">
                <name>CH_BreatheFence_B.png.113.png</name>
                <masterclipid>masterclip-115</masterclipid>
                <rate>
                  <timebase>12</timebase>
                  <ntsc>FALSE</ntsc>
                </rate>
                <duration>1</duration>
                <enabled>TRUE</enabled>
                <alphatype>straight</alphatype>
                <rate>
                  <timebase>12</timebase>
                  <ntsc>FALSE</ntsc>
                </rate>
                <enabled>TRUE</enabled>
                <start>113</start>
                <end>114</end>
                <file id="file-115"/>
              </clipitem>
              <clipitem frameBlend="FALSE" id="clipitem-246">
                <name>CH_BreatheFence_B.png.114.png</name>
                <masterclipid>masterclip-116</masterclipid>
                <rate>
                  <timebase>12</timebase>
                  <ntsc>FALSE</ntsc>
                </rate>
                <duration>1</duration>
                <enabled>TRUE</enabled>
                <alphatype>straight</alphatype>
                <rate>
                  <timebase>12</timebase>
                  <ntsc>FALSE</ntsc>
                </rate>
                <enabled>TRUE</enabled>
                <start>114</start>
                <end>115</end>
                <file id="file-116"/>
              </clipitem>
              <clipitem frameBlend="FALSE" id="clipitem-247">
                <name>CH_BreatheFence_B.png.115.png</name>
                <masterclipid>masterclip-117</masterclipid>
                <rate>
                  <timebase>12</timebase>
                  <ntsc>FALSE</ntsc>
                </rate>
                <duration>1</duration>
                <enabled>TRUE</enabled>
                <alphatype>straight</alphatype>
                <rate>
                  <timebase>12</timebase>
                  <ntsc>FALSE</ntsc>
                </rate>
                <enabled>TRUE</enabled>
                <start>115</start>
                <end>116</end>
                <file id="file-117"/>
              </clipitem>
              <clipitem frameBlend="FALSE" id="clipitem-248">
                <name>CH_BreatheFence_B.png.116.png</name>
                <masterclipid>masterclip-118</masterclipid>
                <rate>
                  <timebase>12</timebase>
                  <ntsc>FALSE</ntsc>
                </rate>
                <duration>1</duration>
                <enabled>TRUE</enabled>
                <alphatype>straight</alphatype>
                <rate>
                  <timebase>12</timebase>
                  <ntsc>FALSE</ntsc>
                </rate>
                <enabled>TRUE</enabled>
                <start>116</start>
                <end>117</end>
                <file id="file-118"/>
              </clipitem>
              <clipitem frameBlend="FALSE" id="clipitem-249">
                <name>CH_BreatheFence_B.png.117.png</name>
                <masterclipid>masterclip-119</masterclipid>
                <rate>
                  <timebase>12</timebase>
                  <ntsc>FALSE</ntsc>
                </rate>
                <duration>1</duration>
                <enabled>TRUE</enabled>
                <alphatype>straight</alphatype>
                <rate>
                  <timebase>12</timebase>
                  <ntsc>FALSE</ntsc>
                </rate>
                <enabled>TRUE</enabled>
                <start>117</start>
                <end>118</end>
                <file id="file-119"/>
              </clipitem>
              <clipitem frameBlend="FALSE" id="clipitem-250">
                <name>CH_BreatheFence_B.png.118.png</name>
                <masterclipid>masterclip-120</masterclipid>
                <rate>
                  <timebase>12</timebase>
                  <ntsc>FALSE</ntsc>
                </rate>
                <duration>1</duration>
                <enabled>TRUE</enabled>
                <alphatype>straight</alphatype>
                <rate>
                  <timebase>12</timebase>
                  <ntsc>FALSE</ntsc>
                </rate>
                <enabled>TRUE</enabled>
                <start>118</start>
                <end>119</end>
                <file id="file-120"/>
              </clipitem>
              <clipitem frameBlend="FALSE" id="clipitem-251">
                <name>CH_BreatheFence_B.png.119.png</name>
                <masterclipid>masterclip-121</masterclipid>
                <rate>
                  <timebase>12</timebase>
                  <ntsc>FALSE</ntsc>
                </rate>
                <duration>1</duration>
                <enabled>TRUE</enabled>
                <alphatype>straight</alphatype>
                <rate>
                  <timebase>12</timebase>
                  <ntsc>FALSE</ntsc>
                </rate>
                <enabled>TRUE</enabled>
                <start>119</start>
                <end>120</end>
                <file id="file-121"/>
              </clipitem>
              <clipitem frameBlend="FALSE" id="clipitem-252">
                <name>CH_BreatheFence_B.png.120.png</name>
                <masterclipid>masterclip-122</masterclipid>
                <rate>
                  <timebase>12</timebase>
                  <ntsc>FALSE</ntsc>
                </rate>
                <duration>1</duration>
                <enabled>TRUE</enabled>
                <alphatype>straight</alphatype>
                <rate>
                  <timebase>12</timebase>
                  <ntsc>FALSE</ntsc>
                </rate>
                <enabled>TRUE</enabled>
                <start>120</start>
                <end>121</end>
                <file id="file-122"/>
              </clipitem>
              <clipitem frameBlend="FALSE" id="clipitem-253">
                <name>CH_BreatheFence_B.png.121.png</name>
                <masterclipid>masterclip-123</masterclipid>
                <rate>
                  <timebase>12</timebase>
                  <ntsc>FALSE</ntsc>
                </rate>
                <duration>1</duration>
                <enabled>TRUE</enabled>
                <alphatype>straight</alphatype>
                <rate>
                  <timebase>12</timebase>
                  <ntsc>FALSE</ntsc>
                </rate>
                <enabled>TRUE</enabled>
                <start>121</start>
                <end>122</end>
                <file id="file-123"/>
              </clipitem>
              <clipitem frameBlend="FALSE" id="clipitem-254">
                <name>CH_BreatheFence_B.png.122.png</name>
                <masterclipid>masterclip-124</masterclipid>
                <rate>
                  <timebase>12</timebase>
                  <ntsc>FALSE</ntsc>
                </rate>
                <duration>1</duration>
                <enabled>TRUE</enabled>
                <alphatype>straight</alphatype>
                <rate>
                  <timebase>12</timebase>
                  <ntsc>FALSE</ntsc>
                </rate>
                <enabled>TRUE</enabled>
                <start>122</start>
                <end>123</end>
                <file id="file-124"/>
              </clipitem>
              <clipitem frameBlend="FALSE" id="clipitem-255">
                <name>CH_BreatheFence_B.png.123.png</name>
                <masterclipid>masterclip-125</masterclipid>
                <rate>
                  <timebase>12</timebase>
                  <ntsc>FALSE</ntsc>
                </rate>
                <duration>1</duration>
                <enabled>TRUE</enabled>
                <alphatype>straight</alphatype>
                <rate>
                  <timebase>12</timebase>
                  <ntsc>FALSE</ntsc>
                </rate>
                <enabled>TRUE</enabled>
                <start>123</start>
                <end>124</end>
                <file id="file-125"/>
              </clipitem>
              <clipitem frameBlend="FALSE" id="clipitem-256">
                <name>CH_BreatheFence_B.png.124.png</name>
                <masterclipid>masterclip-126</masterclipid>
                <rate>
                  <timebase>12</timebase>
                  <ntsc>FALSE</ntsc>
                </rate>
                <duration>1</duration>
                <enabled>TRUE</enabled>
                <alphatype>straight</alphatype>
                <rate>
                  <timebase>12</timebase>
                  <ntsc>FALSE</ntsc>
                </rate>
                <enabled>TRUE</enabled>
                <start>124</start>
                <end>125</end>
                <file id="file-126"/>
              </clipitem>
              <clipitem frameBlend="FALSE" id="clipitem-257">
                <name>CH_BreatheFence_B.png.125.png</name>
                <masterclipid>masterclip-127</masterclipid>
                <rate>
                  <timebase>12</timebase>
                  <ntsc>FALSE</ntsc>
                </rate>
                <duration>1</duration>
                <enabled>TRUE</enabled>
                <alphatype>straight</alphatype>
                <rate>
                  <timebase>12</timebase>
                  <ntsc>FALSE</ntsc>
                </rate>
                <enabled>TRUE</enabled>
                <start>125</start>
                <end>126</end>
                <file id="file-127"/>
              </clipitem>
              <clipitem frameBlend="FALSE" id="clipitem-258">
                <name>CH_BreatheFence_B.png.126.png</name>
                <masterclipid>masterclip-128</masterclipid>
                <rate>
                  <timebase>12</timebase>
                  <ntsc>FALSE</ntsc>
                </rate>
                <duration>1</duration>
                <enabled>TRUE</enabled>
                <alphatype>straight</alphatype>
                <rate>
                  <timebase>12</timebase>
                  <ntsc>FALSE</ntsc>
                </rate>
                <enabled>TRUE</enabled>
                <start>126</start>
                <end>127</end>
                <file id="file-128"/>
              </clipitem>
              <clipitem frameBlend="FALSE" id="clipitem-259">
                <name>CH_BreatheFence_B.png.127.png</name>
                <masterclipid>masterclip-129</masterclipid>
                <rate>
                  <timebase>12</timebase>
                  <ntsc>FALSE</ntsc>
                </rate>
                <duration>1</duration>
                <enabled>TRUE</enabled>
                <alphatype>straight</alphatype>
                <rate>
                  <timebase>12</timebase>
                  <ntsc>FALSE</ntsc>
                </rate>
                <enabled>TRUE</enabled>
                <start>127</start>
                <end>128</end>
                <file id="file-129"/>
              </clipitem>
              <clipitem frameBlend="FALSE" id="clipitem-260">
                <name>CH_BreatheFence_B.png.128.png</name>
                <masterclipid>masterclip-130</masterclipid>
                <rate>
                  <timebase>12</timebase>
                  <ntsc>FALSE</ntsc>
                </rate>
                <duration>1</duration>
                <enabled>TRUE</enabled>
                <alphatype>straight</alphatype>
                <rate>
                  <timebase>12</timebase>
                  <ntsc>FALSE</ntsc>
                </rate>
                <enabled>TRUE</enabled>
                <start>128</start>
                <end>129</end>
                <file id="file-130"/>
              </clipitem>
            </track>
            <format>
              <samplecharacteristics>
                <anamorphic>FALSE</anamorphic>
                <pixelaspectratio>square</pixelaspectratio>
                <fielddominance>none</fielddominance>
                <width>1993</width>
                <height>1300</height>
                <rate>
                  <timebase>12</timebase>
                  <ntsc>FALSE</ntsc>
                </rate>
              </samplecharacteristics>
            </format>
          </video>
          <audio>
            <numOutputChannels>2</numOutputChannels>
            <track frameBlend="FALSE" premiereChannelType="Stereo">
              <clipitem frameBlend="FALSE" id="clipitem-1" premiereChannelType="stereo">
                <name>CH_BreatheFence_B.png.wav</name>
                <masterclipid>masterclip-1</masterclipid>
                <rate>
                  <timebase>12</timebase>
                  <ntsc>FALSE</ntsc>
                </rate>
                <start>0</start>
                <end>129</end>
                <in>0</in>
                <out>129</out>
                <sourcetrack>
                  <mediatype>audio</mediatype>
                  <trackindex>1</trackindex>
                </sourcetrack>
                <link>
                  <linkclipref>clipitem-1</linkclipref>
                  <mediatype>audio</mediatype>
                  <trackindex>1</trackindex>
                  <clipindex>1</clipindex>
                  <groupindex>1</groupindex>
                </link>
                <link>
                  <linkclipref>clipitem-2</linkclipref>
                  <mediatype>audio</mediatype>
                  <trackindex>2</trackindex>
                  <clipindex>1</clipindex>
                  <groupindex>1</groupindex>
                </link>
                <file id="file-1"/>
              </clipitem>
              <enabled>TRUE</enabled>
              <outputchannelindex>1</outputchannelindex>
            </track>
            <track frameBlend="FALSE" premiereChannelType="Stereo">
              <clipitem frameBlend="FALSE" id="clipitem-2" premiereChannelType="stereo">
                <name>CH_BreatheFence_B.png.wav</name>
                <masterclipid>masterclip-1</masterclipid>
                <rate>
                  <timebase>12</timebase>
                  <ntsc>FALSE</ntsc>
                </rate>
                <start>0</start>
                <end>129</end>
                <in>0</in>
                <out>129</out>
                <sourcetrack>
                  <mediatype>audio</mediatype>
                  <trackindex>2</trackindex>
                </sourcetrack>
                <link>
                  <linkclipref>clipitem-1</linkclipref>
                  <mediatype>audio</mediatype>
                  <trackindex>1</trackindex>
                  <clipindex>1</clipindex>
                  <groupindex>1</groupindex>
                </link>
                <link>
                  <linkclipref>clipitem-2</linkclipref>
                  <mediatype>audio</mediatype>
                  <trackindex>2</trackindex>
                  <clipindex>1</clipindex>
                  <groupindex>1</groupindex>
                </link>
                <file id="file-1"/>
              </clipitem>
              <enabled>TRUE</enabled>
              <outputchannelindex>2</outputchannelindex>
            </track>
            <outputs>
              <group>
                <index>0</index>
                <numchannels>1</numchannels>
                <downmix>0</downmix>
                <group>
                  <index>0</index>
                </group>
              </group>
              <group>
                <index>1</index>
                <numchannels>1</numchannels>
                <downmix>0</downmix>
                <group>
                  <index>1</index>
                </group>
              </group>
            </outputs>
            <format>
              <samplecharacteristics>
                <samplerate>48000</samplerate>
                <depth>32</depth>
              </samplecharacteristics>
            </format>
          </audio>
        </media>
        <timecode>
          <rate>
            <timebase>12</timebase>
            <ntsc>FALSE</ntsc>
          </rate>
        </timecode>
      </sequence>
      <bin>
        <name>CH_BreatheFence_B.png Bin</name>
        <children>
          <clip explodedTracks="true" frameBlend="FALSE" id="masterclip-1">
            <uuid>841c2df6-73a4-44f4-b621-3562fbbd7b48</uuid>
            <masterclipid>masterclip-1</masterclipid>
            <ismasterclip>TRUE</ismasterclip>
            <duration>129</duration>
            <in>0</in>
            <out>129</out>
            <name>CH_BreatheFence_B.png.wav</name>
            <rate>
              <timebase>12</timebase>
              <ntsc>FALSE</ntsc>
            </rate>
            <media>
              <audio>
                <track>
                  <clipitem frameBlend="FALSE" id="clipitem-1">
                    <name>CH_BreatheFence_B.png.wav</name>
                    <masterclipid>masterclip-1</masterclipid>
                    <rate>
                      <timebase>12</timebase>
                      <ntsc>FALSE</ntsc>
                    </rate>
                    <file id="file-1">
                      <name>CH_BreatheFence_B.png.wav</name>
                      <pathurl>file://localhost/Users/MAK/Dropbox/4thBoxAssets/CA_files_by_Character/BreatheFacingFence/CH_BreatheFence_B.png/CH_BreatheFence_B.png.wav</pathurl>
                      <rate>
                        <timebase>12</timebase>
                        <ntsc>FALSE</ntsc>
                      </rate>
                      <duration>129</duration>
                      <timecode>
                        <rate>
                          <timebase>12</timebase>
                          <ntsc>FALSE</ntsc>
                        </rate>
                      </timecode>
                      <media>
                        <audio>
                          <samplecharacteristics>
                            <samplerate>48000</samplerate>
                            <depth>32</depth>
                          </samplecharacteristics>
                          <channelcount>2</channelcount>
                        </audio>
                      </media>
                    </file>
                    <sourcetrack>
                      <mediatype>audio</mediatype>
                      <trackindex>1</trackindex>
                    </sourcetrack>
                    <link>
                      <linkclipref>clipitem-1</linkclipref>
                      <mediatype>audio</mediatype>
                      <trackindex>1</trackindex>
                      <clipindex>1</clipindex>
                      <groupindex>1</groupindex>
                    </link>
                    <link>
                      <linkclipref>clipitem-2</linkclipref>
                      <mediatype>audio</mediatype>
                      <trackindex>2</trackindex>
                      <clipindex>1</clipindex>
                      <groupindex>1</groupindex>
                    </link>
                  </clipitem>
                </track>
                <track>
                  <clipitem frameBlend="FALSE" id="clipitem-2">
                    <name>CH_BreatheFence_B.png.wav</name>
                    <masterclipid>masterclip-1</masterclipid>
                    <rate>
                      <timebase>12</timebase>
                      <ntsc>FALSE</ntsc>
                    </rate>
                    <sourcetrack>
                      <mediatype>audio</mediatype>
                      <trackindex>2</trackindex>
                    </sourcetrack>
                    <link>
                      <linkclipref>clipitem-1</linkclipref>
                      <mediatype>audio</mediatype>
                      <trackindex>1</trackindex>
                      <clipindex>1</clipindex>
                      <groupindex>1</groupindex>
                    </link>
                    <link>
                      <linkclipref>clipitem-2</linkclipref>
                      <mediatype>audio</mediatype>
                      <trackindex>2</trackindex>
                      <clipindex>1</clipindex>
                      <groupindex>1</groupindex>
                    </link>
                  </clipitem>
                </track>
              </audio>
            </media>
          </clip>
          <clip explodedTracks="true" frameBlend="FALSE" id="masterclip-2">
            <uuid>37a3521d-d950-43e9-9f91-9376f11e666e</uuid>
            <masterclipid>masterclip-2</masterclipid>
            <ismasterclip>TRUE</ismasterclip>
            <duration>129</duration>
            <in>0</in>
            <out>129</out>
            <name>CH_BreatheFence_B.png.00.png</name>
            <rate>
              <timebase>12</timebase>
              <ntsc>FALSE</ntsc>
            </rate>
            <media>
              <video>
                <track>
                  <clipitem frameBlend="FALSE" id="clipitem-3">
                    <name>CH_BreatheFence_B.png.00.png</name>
                    <masterclipid>masterclip-2</masterclipid>
                    <rate>
                      <timebase>12</timebase>
                      <ntsc>FALSE</ntsc>
                    </rate>
                    <alphatype>straight</alphatype>
                    <pixelaspectratio>square</pixelaspectratio>
                    <anamorphic>FALSE</anamorphic>
                    <file id="file-2">
                      <name>CH_BreatheFence_B.png.00.png</name>
                      <pathurl>file://localhost/Users/MAK/Dropbox/4thBoxAssets/CA_files_by_Character/BreatheFacingFence/CH_BreatheFence_B.png/CH_BreatheFence_B.png.00.png</pathurl>
                      <rate>
                        <timebase>12</timebase>
                        <ntsc>FALSE</ntsc>
                      </rate>
                      <duration>129</duration>
                      <timecode>
                        <rate>
                          <timebase>12</timebase>
                          <ntsc>FALSE</ntsc>
                        </rate>
                      </timecode>
                      <media>
                        <video>
                          <duration>1</duration>
                          <samplecharacteristics>
                            <anamorphic>FALSE</anamorphic>
                            <pixelaspectratio>square</pixelaspectratio>
                            <fielddominance>none</fielddominance>
                            <width>1993</width>
                            <height>1300</height>
                          </samplecharacteristics>
                        </video>
                      </media>
                    </file>
                  </clipitem>
                </track>
              </video>
            </media>
          </clip>
          <clip explodedTracks="true" frameBlend="FALSE" id="masterclip-3">
            <uuid>ebecc812-2c7e-48a8-afd7-d09a1f8f90ac</uuid>
            <masterclipid>masterclip-3</masterclipid>
            <ismasterclip>TRUE</ismasterclip>
            <duration>129</duration>
            <in>0</in>
            <out>129</out>
            <name>CH_BreatheFence_B.png.01.png</name>
            <rate>
              <timebase>12</timebase>
              <ntsc>FALSE</ntsc>
            </rate>
            <media>
              <video>
                <track>
                  <clipitem frameBlend="FALSE" id="clipitem-4">
                    <name>CH_BreatheFence_B.png.01.png</name>
                    <masterclipid>masterclip-3</masterclipid>
                    <rate>
                      <timebase>12</timebase>
                      <ntsc>FALSE</ntsc>
                    </rate>
                    <alphatype>straight</alphatype>
                    <pixelaspectratio>square</pixelaspectratio>
                    <anamorphic>FALSE</anamorphic>
                    <file id="file-3">
                      <name>CH_BreatheFence_B.png.01.png</name>
                      <pathurl>file://localhost/Users/MAK/Dropbox/4thBoxAssets/CA_files_by_Character/BreatheFacingFence/CH_BreatheFence_B.png/CH_BreatheFence_B.png.01.png</pathurl>
                      <rate>
                        <timebase>12</timebase>
                        <ntsc>FALSE</ntsc>
                      </rate>
                      <duration>129</duration>
                      <timecode>
                        <rate>
                          <timebase>12</timebase>
                          <ntsc>FALSE</ntsc>
                        </rate>
                      </timecode>
                      <media>
                        <video>
                          <duration>1</duration>
                          <samplecharacteristics>
                            <anamorphic>FALSE</anamorphic>
                            <pixelaspectratio>square</pixelaspectratio>
                            <fielddominance>none</fielddominance>
                            <width>1993</width>
                            <height>1300</height>
                          </samplecharacteristics>
                        </video>
                      </media>
                    </file>
                  </clipitem>
                </track>
              </video>
            </media>
          </clip>
          <clip explodedTracks="true" frameBlend="FALSE" id="masterclip-4">
            <uuid>c879d997-2683-46f7-aa3e-80e2fb0a3e41</uuid>
            <masterclipid>masterclip-4</masterclipid>
            <ismasterclip>TRUE</ismasterclip>
            <duration>129</duration>
            <in>0</in>
            <out>129</out>
            <name>CH_BreatheFence_B.png.02.png</name>
            <rate>
              <timebase>12</timebase>
              <ntsc>FALSE</ntsc>
            </rate>
            <media>
              <video>
                <track>
                  <clipitem frameBlend="FALSE" id="clipitem-5">
                    <name>CH_BreatheFence_B.png.02.png</name>
                    <masterclipid>masterclip-4</masterclipid>
                    <rate>
                      <timebase>12</timebase>
                      <ntsc>FALSE</ntsc>
                    </rate>
                    <alphatype>straight</alphatype>
                    <pixelaspectratio>square</pixelaspectratio>
                    <anamorphic>FALSE</anamorphic>
                    <file id="file-4">
                      <name>CH_BreatheFence_B.png.02.png</name>
                      <pathurl>file://localhost/Users/MAK/Dropbox/4thBoxAssets/CA_files_by_Character/BreatheFacingFence/CH_BreatheFence_B.png/CH_BreatheFence_B.png.02.png</pathurl>
                      <rate>
                        <timebase>12</timebase>
                        <ntsc>FALSE</ntsc>
                      </rate>
                      <duration>129</duration>
                      <timecode>
                        <rate>
                          <timebase>12</timebase>
                          <ntsc>FALSE</ntsc>
                        </rate>
                      </timecode>
                      <media>
                        <video>
                          <duration>1</duration>
                          <samplecharacteristics>
                            <anamorphic>FALSE</anamorphic>
                            <pixelaspectratio>square</pixelaspectratio>
                            <fielddominance>none</fielddominance>
                            <width>1993</width>
                            <height>1300</height>
                          </samplecharacteristics>
                        </video>
                      </media>
                    </file>
                  </clipitem>
                </track>
              </video>
            </media>
          </clip>
          <clip explodedTracks="true" frameBlend="FALSE" id="masterclip-5">
            <uuid>a89bce1b-b3e7-48f9-b8df-01e23a75eef7</uuid>
            <masterclipid>masterclip-5</masterclipid>
            <ismasterclip>TRUE</ismasterclip>
            <duration>129</duration>
            <in>0</in>
            <out>129</out>
            <name>CH_BreatheFence_B.png.03.png</name>
            <rate>
              <timebase>12</timebase>
              <ntsc>FALSE</ntsc>
            </rate>
            <media>
              <video>
                <track>
                  <clipitem frameBlend="FALSE" id="clipitem-6">
                    <name>CH_BreatheFence_B.png.03.png</name>
                    <masterclipid>masterclip-5</masterclipid>
                    <rate>
                      <timebase>12</timebase>
                      <ntsc>FALSE</ntsc>
                    </rate>
                    <alphatype>straight</alphatype>
                    <pixelaspectratio>square</pixelaspectratio>
                    <anamorphic>FALSE</anamorphic>
                    <file id="file-5">
                      <name>CH_BreatheFence_B.png.03.png</name>
                      <pathurl>file://localhost/Users/MAK/Dropbox/4thBoxAssets/CA_files_by_Character/BreatheFacingFence/CH_BreatheFence_B.png/CH_BreatheFence_B.png.03.png</pathurl>
                      <rate>
                        <timebase>12</timebase>
                        <ntsc>FALSE</ntsc>
                      </rate>
                      <duration>129</duration>
                      <timecode>
                        <rate>
                          <timebase>12</timebase>
                          <ntsc>FALSE</ntsc>
                        </rate>
                      </timecode>
                      <media>
                        <video>
                          <duration>1</duration>
                          <samplecharacteristics>
                            <anamorphic>FALSE</anamorphic>
                            <pixelaspectratio>square</pixelaspectratio>
                            <fielddominance>none</fielddominance>
                            <width>1993</width>
                            <height>1300</height>
                          </samplecharacteristics>
                        </video>
                      </media>
                    </file>
                  </clipitem>
                </track>
              </video>
            </media>
          </clip>
          <clip explodedTracks="true" frameBlend="FALSE" id="masterclip-6">
            <uuid>7539233e-f43b-45b0-a11c-319b214f0609</uuid>
            <masterclipid>masterclip-6</masterclipid>
            <ismasterclip>TRUE</ismasterclip>
            <duration>129</duration>
            <in>0</in>
            <out>129</out>
            <name>CH_BreatheFence_B.png.04.png</name>
            <rate>
              <timebase>12</timebase>
              <ntsc>FALSE</ntsc>
            </rate>
            <media>
              <video>
                <track>
                  <clipitem frameBlend="FALSE" id="clipitem-7">
                    <name>CH_BreatheFence_B.png.04.png</name>
                    <masterclipid>masterclip-6</masterclipid>
                    <rate>
                      <timebase>12</timebase>
                      <ntsc>FALSE</ntsc>
                    </rate>
                    <alphatype>straight</alphatype>
                    <pixelaspectratio>square</pixelaspectratio>
                    <anamorphic>FALSE</anamorphic>
                    <file id="file-6">
                      <name>CH_BreatheFence_B.png.04.png</name>
                      <pathurl>file://localhost/Users/MAK/Dropbox/4thBoxAssets/CA_files_by_Character/BreatheFacingFence/CH_BreatheFence_B.png/CH_BreatheFence_B.png.04.png</pathurl>
                      <rate>
                        <timebase>12</timebase>
                        <ntsc>FALSE</ntsc>
                      </rate>
                      <duration>129</duration>
                      <timecode>
                        <rate>
                          <timebase>12</timebase>
                          <ntsc>FALSE</ntsc>
                        </rate>
                      </timecode>
                      <media>
                        <video>
                          <duration>1</duration>
                          <samplecharacteristics>
                            <anamorphic>FALSE</anamorphic>
                            <pixelaspectratio>square</pixelaspectratio>
                            <fielddominance>none</fielddominance>
                            <width>1993</width>
                            <height>1300</height>
                          </samplecharacteristics>
                        </video>
                      </media>
                    </file>
                  </clipitem>
                </track>
              </video>
            </media>
          </clip>
          <clip explodedTracks="true" frameBlend="FALSE" id="masterclip-7">
            <uuid>f11c328f-899e-4684-88f1-41f3aafab1e6</uuid>
            <masterclipid>masterclip-7</masterclipid>
            <ismasterclip>TRUE</ismasterclip>
            <duration>129</duration>
            <in>0</in>
            <out>129</out>
            <name>CH_BreatheFence_B.png.05.png</name>
            <rate>
              <timebase>12</timebase>
              <ntsc>FALSE</ntsc>
            </rate>
            <media>
              <video>
                <track>
                  <clipitem frameBlend="FALSE" id="clipitem-8">
                    <name>CH_BreatheFence_B.png.05.png</name>
                    <masterclipid>masterclip-7</masterclipid>
                    <rate>
                      <timebase>12</timebase>
                      <ntsc>FALSE</ntsc>
                    </rate>
                    <alphatype>straight</alphatype>
                    <pixelaspectratio>square</pixelaspectratio>
                    <anamorphic>FALSE</anamorphic>
                    <file id="file-7">
                      <name>CH_BreatheFence_B.png.05.png</name>
                      <pathurl>file://localhost/Users/MAK/Dropbox/4thBoxAssets/CA_files_by_Character/BreatheFacingFence/CH_BreatheFence_B.png/CH_BreatheFence_B.png.05.png</pathurl>
                      <rate>
                        <timebase>12</timebase>
                        <ntsc>FALSE</ntsc>
                      </rate>
                      <duration>129</duration>
                      <timecode>
                        <rate>
                          <timebase>12</timebase>
                          <ntsc>FALSE</ntsc>
                        </rate>
                      </timecode>
                      <media>
                        <video>
                          <duration>1</duration>
                          <samplecharacteristics>
                            <anamorphic>FALSE</anamorphic>
                            <pixelaspectratio>square</pixelaspectratio>
                            <fielddominance>none</fielddominance>
                            <width>1993</width>
                            <height>1300</height>
                          </samplecharacteristics>
                        </video>
                      </media>
                    </file>
                  </clipitem>
                </track>
              </video>
            </media>
          </clip>
          <clip explodedTracks="true" frameBlend="FALSE" id="masterclip-8">
            <uuid>2ca71a75-223e-4349-889e-1e7ebb8882ec</uuid>
            <masterclipid>masterclip-8</masterclipid>
            <ismasterclip>TRUE</ismasterclip>
            <duration>129</duration>
            <in>0</in>
            <out>129</out>
            <name>CH_BreatheFence_B.png.06.png</name>
            <rate>
              <timebase>12</timebase>
              <ntsc>FALSE</ntsc>
            </rate>
            <media>
              <video>
                <track>
                  <clipitem frameBlend="FALSE" id="clipitem-9">
                    <name>CH_BreatheFence_B.png.06.png</name>
                    <masterclipid>masterclip-8</masterclipid>
                    <rate>
                      <timebase>12</timebase>
                      <ntsc>FALSE</ntsc>
                    </rate>
                    <alphatype>straight</alphatype>
                    <pixelaspectratio>square</pixelaspectratio>
                    <anamorphic>FALSE</anamorphic>
                    <file id="file-8">
                      <name>CH_BreatheFence_B.png.06.png</name>
                      <pathurl>file://localhost/Users/MAK/Dropbox/4thBoxAssets/CA_files_by_Character/BreatheFacingFence/CH_BreatheFence_B.png/CH_BreatheFence_B.png.06.png</pathurl>
                      <rate>
                        <timebase>12</timebase>
                        <ntsc>FALSE</ntsc>
                      </rate>
                      <duration>129</duration>
                      <timecode>
                        <rate>
                          <timebase>12</timebase>
                          <ntsc>FALSE</ntsc>
                        </rate>
                      </timecode>
                      <media>
                        <video>
                          <duration>1</duration>
                          <samplecharacteristics>
                            <anamorphic>FALSE</anamorphic>
                            <pixelaspectratio>square</pixelaspectratio>
                            <fielddominance>none</fielddominance>
                            <width>1993</width>
                            <height>1300</height>
                          </samplecharacteristics>
                        </video>
                      </media>
                    </file>
                  </clipitem>
                </track>
              </video>
            </media>
          </clip>
          <clip explodedTracks="true" frameBlend="FALSE" id="masterclip-9">
            <uuid>cd955e9a-2c22-44f6-a438-fa73f32dfcf1</uuid>
            <masterclipid>masterclip-9</masterclipid>
            <ismasterclip>TRUE</ismasterclip>
            <duration>129</duration>
            <in>0</in>
            <out>129</out>
            <name>CH_BreatheFence_B.png.07.png</name>
            <rate>
              <timebase>12</timebase>
              <ntsc>FALSE</ntsc>
            </rate>
            <media>
              <video>
                <track>
                  <clipitem frameBlend="FALSE" id="clipitem-10">
                    <name>CH_BreatheFence_B.png.07.png</name>
                    <masterclipid>masterclip-9</masterclipid>
                    <rate>
                      <timebase>12</timebase>
                      <ntsc>FALSE</ntsc>
                    </rate>
                    <alphatype>straight</alphatype>
                    <pixelaspectratio>square</pixelaspectratio>
                    <anamorphic>FALSE</anamorphic>
                    <file id="file-9">
                      <name>CH_BreatheFence_B.png.07.png</name>
                      <pathurl>file://localhost/Users/MAK/Dropbox/4thBoxAssets/CA_files_by_Character/BreatheFacingFence/CH_BreatheFence_B.png/CH_BreatheFence_B.png.07.png</pathurl>
                      <rate>
                        <timebase>12</timebase>
                        <ntsc>FALSE</ntsc>
                      </rate>
                      <duration>129</duration>
                      <timecode>
                        <rate>
                          <timebase>12</timebase>
                          <ntsc>FALSE</ntsc>
                        </rate>
                      </timecode>
                      <media>
                        <video>
                          <duration>1</duration>
                          <samplecharacteristics>
                            <anamorphic>FALSE</anamorphic>
                            <pixelaspectratio>square</pixelaspectratio>
                            <fielddominance>none</fielddominance>
                            <width>1993</width>
                            <height>1300</height>
                          </samplecharacteristics>
                        </video>
                      </media>
                    </file>
                  </clipitem>
                </track>
              </video>
            </media>
          </clip>
          <clip explodedTracks="true" frameBlend="FALSE" id="masterclip-10">
            <uuid>f57f448e-70e7-478f-be92-a7b96fa82e35</uuid>
            <masterclipid>masterclip-10</masterclipid>
            <ismasterclip>TRUE</ismasterclip>
            <duration>129</duration>
            <in>0</in>
            <out>129</out>
            <name>CH_BreatheFence_B.png.08.png</name>
            <rate>
              <timebase>12</timebase>
              <ntsc>FALSE</ntsc>
            </rate>
            <media>
              <video>
                <track>
                  <clipitem frameBlend="FALSE" id="clipitem-11">
                    <name>CH_BreatheFence_B.png.08.png</name>
                    <masterclipid>masterclip-10</masterclipid>
                    <rate>
                      <timebase>12</timebase>
                      <ntsc>FALSE</ntsc>
                    </rate>
                    <alphatype>straight</alphatype>
                    <pixelaspectratio>square</pixelaspectratio>
                    <anamorphic>FALSE</anamorphic>
                    <file id="file-10">
                      <name>CH_BreatheFence_B.png.08.png</name>
                      <pathurl>file://localhost/Users/MAK/Dropbox/4thBoxAssets/CA_files_by_Character/BreatheFacingFence/CH_BreatheFence_B.png/CH_BreatheFence_B.png.08.png</pathurl>
                      <rate>
                        <timebase>12</timebase>
                        <ntsc>FALSE</ntsc>
                      </rate>
                      <duration>129</duration>
                      <timecode>
                        <rate>
                          <timebase>12</timebase>
                          <ntsc>FALSE</ntsc>
                        </rate>
                      </timecode>
                      <media>
                        <video>
                          <duration>1</duration>
                          <samplecharacteristics>
                            <anamorphic>FALSE</anamorphic>
                            <pixelaspectratio>square</pixelaspectratio>
                            <fielddominance>none</fielddominance>
                            <width>1993</width>
                            <height>1300</height>
                          </samplecharacteristics>
                        </video>
                      </media>
                    </file>
                  </clipitem>
                </track>
              </video>
            </media>
          </clip>
          <clip explodedTracks="true" frameBlend="FALSE" id="masterclip-11">
            <uuid>da10a1b3-8cf3-4dc8-b851-0eac76cdd38a</uuid>
            <masterclipid>masterclip-11</masterclipid>
            <ismasterclip>TRUE</ismasterclip>
            <duration>129</duration>
            <in>0</in>
            <out>129</out>
            <name>CH_BreatheFence_B.png.09.png</name>
            <rate>
              <timebase>12</timebase>
              <ntsc>FALSE</ntsc>
            </rate>
            <media>
              <video>
                <track>
                  <clipitem frameBlend="FALSE" id="clipitem-12">
                    <name>CH_BreatheFence_B.png.09.png</name>
                    <masterclipid>masterclip-11</masterclipid>
                    <rate>
                      <timebase>12</timebase>
                      <ntsc>FALSE</ntsc>
                    </rate>
                    <alphatype>straight</alphatype>
                    <pixelaspectratio>square</pixelaspectratio>
                    <anamorphic>FALSE</anamorphic>
                    <file id="file-11">
                      <name>CH_BreatheFence_B.png.09.png</name>
                      <pathurl>file://localhost/Users/MAK/Dropbox/4thBoxAssets/CA_files_by_Character/BreatheFacingFence/CH_BreatheFence_B.png/CH_BreatheFence_B.png.09.png</pathurl>
                      <rate>
                        <timebase>12</timebase>
                        <ntsc>FALSE</ntsc>
                      </rate>
                      <duration>129</duration>
                      <timecode>
                        <rate>
                          <timebase>12</timebase>
                          <ntsc>FALSE</ntsc>
                        </rate>
                      </timecode>
                      <media>
                        <video>
                          <duration>1</duration>
                          <samplecharacteristics>
                            <anamorphic>FALSE</anamorphic>
                            <pixelaspectratio>square</pixelaspectratio>
                            <fielddominance>none</fielddominance>
                            <width>1993</width>
                            <height>1300</height>
                          </samplecharacteristics>
                        </video>
                      </media>
                    </file>
                  </clipitem>
                </track>
              </video>
            </media>
          </clip>
          <clip explodedTracks="true" frameBlend="FALSE" id="masterclip-12">
            <uuid>e0504b56-b38b-4e06-8c50-6c159fc3a6c5</uuid>
            <masterclipid>masterclip-12</masterclipid>
            <ismasterclip>TRUE</ismasterclip>
            <duration>129</duration>
            <in>0</in>
            <out>129</out>
            <name>CH_BreatheFence_B.png.10.png</name>
            <rate>
              <timebase>12</timebase>
              <ntsc>FALSE</ntsc>
            </rate>
            <media>
              <video>
                <track>
                  <clipitem frameBlend="FALSE" id="clipitem-13">
                    <name>CH_BreatheFence_B.png.10.png</name>
                    <masterclipid>masterclip-12</masterclipid>
                    <rate>
                      <timebase>12</timebase>
                      <ntsc>FALSE</ntsc>
                    </rate>
                    <alphatype>straight</alphatype>
                    <pixelaspectratio>square</pixelaspectratio>
                    <anamorphic>FALSE</anamorphic>
                    <file id="file-12">
                      <name>CH_BreatheFence_B.png.10.png</name>
                      <pathurl>file://localhost/Users/MAK/Dropbox/4thBoxAssets/CA_files_by_Character/BreatheFacingFence/CH_BreatheFence_B.png/CH_BreatheFence_B.png.10.png</pathurl>
                      <rate>
                        <timebase>12</timebase>
                        <ntsc>FALSE</ntsc>
                      </rate>
                      <duration>129</duration>
                      <timecode>
                        <rate>
                          <timebase>12</timebase>
                          <ntsc>FALSE</ntsc>
                        </rate>
                      </timecode>
                      <media>
                        <video>
                          <duration>1</duration>
                          <samplecharacteristics>
                            <anamorphic>FALSE</anamorphic>
                            <pixelaspectratio>square</pixelaspectratio>
                            <fielddominance>none</fielddominance>
                            <width>1993</width>
                            <height>1300</height>
                          </samplecharacteristics>
                        </video>
                      </media>
                    </file>
                  </clipitem>
                </track>
              </video>
            </media>
          </clip>
          <clip explodedTracks="true" frameBlend="FALSE" id="masterclip-13">
            <uuid>48a97dbc-6bcb-4c12-902c-8d8d14dee573</uuid>
            <masterclipid>masterclip-13</masterclipid>
            <ismasterclip>TRUE</ismasterclip>
            <duration>129</duration>
            <in>0</in>
            <out>129</out>
            <name>CH_BreatheFence_B.png.11.png</name>
            <rate>
              <timebase>12</timebase>
              <ntsc>FALSE</ntsc>
            </rate>
            <media>
              <video>
                <track>
                  <clipitem frameBlend="FALSE" id="clipitem-14">
                    <name>CH_BreatheFence_B.png.11.png</name>
                    <masterclipid>masterclip-13</masterclipid>
                    <rate>
                      <timebase>12</timebase>
                      <ntsc>FALSE</ntsc>
                    </rate>
                    <alphatype>straight</alphatype>
                    <pixelaspectratio>square</pixelaspectratio>
                    <anamorphic>FALSE</anamorphic>
                    <file id="file-13">
                      <name>CH_BreatheFence_B.png.11.png</name>
                      <pathurl>file://localhost/Users/MAK/Dropbox/4thBoxAssets/CA_files_by_Character/BreatheFacingFence/CH_BreatheFence_B.png/CH_BreatheFence_B.png.11.png</pathurl>
                      <rate>
                        <timebase>12</timebase>
                        <ntsc>FALSE</ntsc>
                      </rate>
                      <duration>129</duration>
                      <timecode>
                        <rate>
                          <timebase>12</timebase>
                          <ntsc>FALSE</ntsc>
                        </rate>
                      </timecode>
                      <media>
                        <video>
                          <duration>1</duration>
                          <samplecharacteristics>
                            <anamorphic>FALSE</anamorphic>
                            <pixelaspectratio>square</pixelaspectratio>
                            <fielddominance>none</fielddominance>
                            <width>1993</width>
                            <height>1300</height>
                          </samplecharacteristics>
                        </video>
                      </media>
                    </file>
                  </clipitem>
                </track>
              </video>
            </media>
          </clip>
          <clip explodedTracks="true" frameBlend="FALSE" id="masterclip-14">
            <uuid>846c4894-49e8-4b03-909b-30cede994463</uuid>
            <masterclipid>masterclip-14</masterclipid>
            <ismasterclip>TRUE</ismasterclip>
            <duration>129</duration>
            <in>0</in>
            <out>129</out>
            <name>CH_BreatheFence_B.png.12.png</name>
            <rate>
              <timebase>12</timebase>
              <ntsc>FALSE</ntsc>
            </rate>
            <media>
              <video>
                <track>
                  <clipitem frameBlend="FALSE" id="clipitem-15">
                    <name>CH_BreatheFence_B.png.12.png</name>
                    <masterclipid>masterclip-14</masterclipid>
                    <rate>
                      <timebase>12</timebase>
                      <ntsc>FALSE</ntsc>
                    </rate>
                    <alphatype>straight</alphatype>
                    <pixelaspectratio>square</pixelaspectratio>
                    <anamorphic>FALSE</anamorphic>
                    <file id="file-14">
                      <name>CH_BreatheFence_B.png.12.png</name>
                      <pathurl>file://localhost/Users/MAK/Dropbox/4thBoxAssets/CA_files_by_Character/BreatheFacingFence/CH_BreatheFence_B.png/CH_BreatheFence_B.png.12.png</pathurl>
                      <rate>
                        <timebase>12</timebase>
                        <ntsc>FALSE</ntsc>
                      </rate>
                      <duration>129</duration>
                      <timecode>
                        <rate>
                          <timebase>12</timebase>
                          <ntsc>FALSE</ntsc>
                        </rate>
                      </timecode>
                      <media>
                        <video>
                          <duration>1</duration>
                          <samplecharacteristics>
                            <anamorphic>FALSE</anamorphic>
                            <pixelaspectratio>square</pixelaspectratio>
                            <fielddominance>none</fielddominance>
                            <width>1993</width>
                            <height>1300</height>
                          </samplecharacteristics>
                        </video>
                      </media>
                    </file>
                  </clipitem>
                </track>
              </video>
            </media>
          </clip>
          <clip explodedTracks="true" frameBlend="FALSE" id="masterclip-15">
            <uuid>6cfa8bb7-3bf6-41dd-83d5-7e958619bf2a</uuid>
            <masterclipid>masterclip-15</masterclipid>
            <ismasterclip>TRUE</ismasterclip>
            <duration>129</duration>
            <in>0</in>
            <out>129</out>
            <name>CH_BreatheFence_B.png.13.png</name>
            <rate>
              <timebase>12</timebase>
              <ntsc>FALSE</ntsc>
            </rate>
            <media>
              <video>
                <track>
                  <clipitem frameBlend="FALSE" id="clipitem-16">
                    <name>CH_BreatheFence_B.png.13.png</name>
                    <masterclipid>masterclip-15</masterclipid>
                    <rate>
                      <timebase>12</timebase>
                      <ntsc>FALSE</ntsc>
                    </rate>
                    <alphatype>straight</alphatype>
                    <pixelaspectratio>square</pixelaspectratio>
                    <anamorphic>FALSE</anamorphic>
                    <file id="file-15">
                      <name>CH_BreatheFence_B.png.13.png</name>
                      <pathurl>file://localhost/Users/MAK/Dropbox/4thBoxAssets/CA_files_by_Character/BreatheFacingFence/CH_BreatheFence_B.png/CH_BreatheFence_B.png.13.png</pathurl>
                      <rate>
                        <timebase>12</timebase>
                        <ntsc>FALSE</ntsc>
                      </rate>
                      <duration>129</duration>
                      <timecode>
                        <rate>
                          <timebase>12</timebase>
                          <ntsc>FALSE</ntsc>
                        </rate>
                      </timecode>
                      <media>
                        <video>
                          <duration>1</duration>
                          <samplecharacteristics>
                            <anamorphic>FALSE</anamorphic>
                            <pixelaspectratio>square</pixelaspectratio>
                            <fielddominance>none</fielddominance>
                            <width>1993</width>
                            <height>1300</height>
                          </samplecharacteristics>
                        </video>
                      </media>
                    </file>
                  </clipitem>
                </track>
              </video>
            </media>
          </clip>
          <clip explodedTracks="true" frameBlend="FALSE" id="masterclip-16">
            <uuid>9ff70537-3063-45ba-907c-bf522ee08ff3</uuid>
            <masterclipid>masterclip-16</masterclipid>
            <ismasterclip>TRUE</ismasterclip>
            <duration>129</duration>
            <in>0</in>
            <out>129</out>
            <name>CH_BreatheFence_B.png.14.png</name>
            <rate>
              <timebase>12</timebase>
              <ntsc>FALSE</ntsc>
            </rate>
            <media>
              <video>
                <track>
                  <clipitem frameBlend="FALSE" id="clipitem-17">
                    <name>CH_BreatheFence_B.png.14.png</name>
                    <masterclipid>masterclip-16</masterclipid>
                    <rate>
                      <timebase>12</timebase>
                      <ntsc>FALSE</ntsc>
                    </rate>
                    <alphatype>straight</alphatype>
                    <pixelaspectratio>square</pixelaspectratio>
                    <anamorphic>FALSE</anamorphic>
                    <file id="file-16">
                      <name>CH_BreatheFence_B.png.14.png</name>
                      <pathurl>file://localhost/Users/MAK/Dropbox/4thBoxAssets/CA_files_by_Character/BreatheFacingFence/CH_BreatheFence_B.png/CH_BreatheFence_B.png.14.png</pathurl>
                      <rate>
                        <timebase>12</timebase>
                        <ntsc>FALSE</ntsc>
                      </rate>
                      <duration>129</duration>
                      <timecode>
                        <rate>
                          <timebase>12</timebase>
                          <ntsc>FALSE</ntsc>
                        </rate>
                      </timecode>
                      <media>
                        <video>
                          <duration>1</duration>
                          <samplecharacteristics>
                            <anamorphic>FALSE</anamorphic>
                            <pixelaspectratio>square</pixelaspectratio>
                            <fielddominance>none</fielddominance>
                            <width>1993</width>
                            <height>1300</height>
                          </samplecharacteristics>
                        </video>
                      </media>
                    </file>
                  </clipitem>
                </track>
              </video>
            </media>
          </clip>
          <clip explodedTracks="true" frameBlend="FALSE" id="masterclip-17">
            <uuid>b21470a6-1891-439c-a543-e525cf85ef5b</uuid>
            <masterclipid>masterclip-17</masterclipid>
            <ismasterclip>TRUE</ismasterclip>
            <duration>129</duration>
            <in>0</in>
            <out>129</out>
            <name>CH_BreatheFence_B.png.15.png</name>
            <rate>
              <timebase>12</timebase>
              <ntsc>FALSE</ntsc>
            </rate>
            <media>
              <video>
                <track>
                  <clipitem frameBlend="FALSE" id="clipitem-18">
                    <name>CH_BreatheFence_B.png.15.png</name>
                    <masterclipid>masterclip-17</masterclipid>
                    <rate>
                      <timebase>12</timebase>
                      <ntsc>FALSE</ntsc>
                    </rate>
                    <alphatype>straight</alphatype>
                    <pixelaspectratio>square</pixelaspectratio>
                    <anamorphic>FALSE</anamorphic>
                    <file id="file-17">
                      <name>CH_BreatheFence_B.png.15.png</name>
                      <pathurl>file://localhost/Users/MAK/Dropbox/4thBoxAssets/CA_files_by_Character/BreatheFacingFence/CH_BreatheFence_B.png/CH_BreatheFence_B.png.15.png</pathurl>
                      <rate>
                        <timebase>12</timebase>
                        <ntsc>FALSE</ntsc>
                      </rate>
                      <duration>129</duration>
                      <timecode>
                        <rate>
                          <timebase>12</timebase>
                          <ntsc>FALSE</ntsc>
                        </rate>
                      </timecode>
                      <media>
                        <video>
                          <duration>1</duration>
                          <samplecharacteristics>
                            <anamorphic>FALSE</anamorphic>
                            <pixelaspectratio>square</pixelaspectratio>
                            <fielddominance>none</fielddominance>
                            <width>1993</width>
                            <height>1300</height>
                          </samplecharacteristics>
                        </video>
                      </media>
                    </file>
                  </clipitem>
                </track>
              </video>
            </media>
          </clip>
          <clip explodedTracks="true" frameBlend="FALSE" id="masterclip-18">
            <uuid>59f6d8e7-54bd-4987-938f-802e6e560ad1</uuid>
            <masterclipid>masterclip-18</masterclipid>
            <ismasterclip>TRUE</ismasterclip>
            <duration>129</duration>
            <in>0</in>
            <out>129</out>
            <name>CH_BreatheFence_B.png.16.png</name>
            <rate>
              <timebase>12</timebase>
              <ntsc>FALSE</ntsc>
            </rate>
            <media>
              <video>
                <track>
                  <clipitem frameBlend="FALSE" id="clipitem-19">
                    <name>CH_BreatheFence_B.png.16.png</name>
                    <masterclipid>masterclip-18</masterclipid>
                    <rate>
                      <timebase>12</timebase>
                      <ntsc>FALSE</ntsc>
                    </rate>
                    <alphatype>straight</alphatype>
                    <pixelaspectratio>square</pixelaspectratio>
                    <anamorphic>FALSE</anamorphic>
                    <file id="file-18">
                      <name>CH_BreatheFence_B.png.16.png</name>
                      <pathurl>file://localhost/Users/MAK/Dropbox/4thBoxAssets/CA_files_by_Character/BreatheFacingFence/CH_BreatheFence_B.png/CH_BreatheFence_B.png.16.png</pathurl>
                      <rate>
                        <timebase>12</timebase>
                        <ntsc>FALSE</ntsc>
                      </rate>
                      <duration>129</duration>
                      <timecode>
                        <rate>
                          <timebase>12</timebase>
                          <ntsc>FALSE</ntsc>
                        </rate>
                      </timecode>
                      <media>
                        <video>
                          <duration>1</duration>
                          <samplecharacteristics>
                            <anamorphic>FALSE</anamorphic>
                            <pixelaspectratio>square</pixelaspectratio>
                            <fielddominance>none</fielddominance>
                            <width>1993</width>
                            <height>1300</height>
                          </samplecharacteristics>
                        </video>
                      </media>
                    </file>
                  </clipitem>
                </track>
              </video>
            </media>
          </clip>
          <clip explodedTracks="true" frameBlend="FALSE" id="masterclip-19">
            <uuid>d17cc935-67dc-4078-8557-1f71c2593bb9</uuid>
            <masterclipid>masterclip-19</masterclipid>
            <ismasterclip>TRUE</ismasterclip>
            <duration>129</duration>
            <in>0</in>
            <out>129</out>
            <name>CH_BreatheFence_B.png.17.png</name>
            <rate>
              <timebase>12</timebase>
              <ntsc>FALSE</ntsc>
            </rate>
            <media>
              <video>
                <track>
                  <clipitem frameBlend="FALSE" id="clipitem-20">
                    <name>CH_BreatheFence_B.png.17.png</name>
                    <masterclipid>masterclip-19</masterclipid>
                    <rate>
                      <timebase>12</timebase>
                      <ntsc>FALSE</ntsc>
                    </rate>
                    <alphatype>straight</alphatype>
                    <pixelaspectratio>square</pixelaspectratio>
                    <anamorphic>FALSE</anamorphic>
                    <file id="file-19">
                      <name>CH_BreatheFence_B.png.17.png</name>
                      <pathurl>file://localhost/Users/MAK/Dropbox/4thBoxAssets/CA_files_by_Character/BreatheFacingFence/CH_BreatheFence_B.png/CH_BreatheFence_B.png.17.png</pathurl>
                      <rate>
                        <timebase>12</timebase>
                        <ntsc>FALSE</ntsc>
                      </rate>
                      <duration>129</duration>
                      <timecode>
                        <rate>
                          <timebase>12</timebase>
                          <ntsc>FALSE</ntsc>
                        </rate>
                      </timecode>
                      <media>
                        <video>
                          <duration>1</duration>
                          <samplecharacteristics>
                            <anamorphic>FALSE</anamorphic>
                            <pixelaspectratio>square</pixelaspectratio>
                            <fielddominance>none</fielddominance>
                            <width>1993</width>
                            <height>1300</height>
                          </samplecharacteristics>
                        </video>
                      </media>
                    </file>
                  </clipitem>
                </track>
              </video>
            </media>
          </clip>
          <clip explodedTracks="true" frameBlend="FALSE" id="masterclip-20">
            <uuid>be756f1c-e792-4726-95e4-7688334471b6</uuid>
            <masterclipid>masterclip-20</masterclipid>
            <ismasterclip>TRUE</ismasterclip>
            <duration>129</duration>
            <in>0</in>
            <out>129</out>
            <name>CH_BreatheFence_B.png.18.png</name>
            <rate>
              <timebase>12</timebase>
              <ntsc>FALSE</ntsc>
            </rate>
            <media>
              <video>
                <track>
                  <clipitem frameBlend="FALSE" id="clipitem-21">
                    <name>CH_BreatheFence_B.png.18.png</name>
                    <masterclipid>masterclip-20</masterclipid>
                    <rate>
                      <timebase>12</timebase>
                      <ntsc>FALSE</ntsc>
                    </rate>
                    <alphatype>straight</alphatype>
                    <pixelaspectratio>square</pixelaspectratio>
                    <anamorphic>FALSE</anamorphic>
                    <file id="file-20">
                      <name>CH_BreatheFence_B.png.18.png</name>
                      <pathurl>file://localhost/Users/MAK/Dropbox/4thBoxAssets/CA_files_by_Character/BreatheFacingFence/CH_BreatheFence_B.png/CH_BreatheFence_B.png.18.png</pathurl>
                      <rate>
                        <timebase>12</timebase>
                        <ntsc>FALSE</ntsc>
                      </rate>
                      <duration>129</duration>
                      <timecode>
                        <rate>
                          <timebase>12</timebase>
                          <ntsc>FALSE</ntsc>
                        </rate>
                      </timecode>
                      <media>
                        <video>
                          <duration>1</duration>
                          <samplecharacteristics>
                            <anamorphic>FALSE</anamorphic>
                            <pixelaspectratio>square</pixelaspectratio>
                            <fielddominance>none</fielddominance>
                            <width>1993</width>
                            <height>1300</height>
                          </samplecharacteristics>
                        </video>
                      </media>
                    </file>
                  </clipitem>
                </track>
              </video>
            </media>
          </clip>
          <clip explodedTracks="true" frameBlend="FALSE" id="masterclip-21">
            <uuid>e063d46b-2c4a-466a-8acd-7d520ccd0ad4</uuid>
            <masterclipid>masterclip-21</masterclipid>
            <ismasterclip>TRUE</ismasterclip>
            <duration>129</duration>
            <in>0</in>
            <out>129</out>
            <name>CH_BreatheFence_B.png.19.png</name>
            <rate>
              <timebase>12</timebase>
              <ntsc>FALSE</ntsc>
            </rate>
            <media>
              <video>
                <track>
                  <clipitem frameBlend="FALSE" id="clipitem-22">
                    <name>CH_BreatheFence_B.png.19.png</name>
                    <masterclipid>masterclip-21</masterclipid>
                    <rate>
                      <timebase>12</timebase>
                      <ntsc>FALSE</ntsc>
                    </rate>
                    <alphatype>straight</alphatype>
                    <pixelaspectratio>square</pixelaspectratio>
                    <anamorphic>FALSE</anamorphic>
                    <file id="file-21">
                      <name>CH_BreatheFence_B.png.19.png</name>
                      <pathurl>file://localhost/Users/MAK/Dropbox/4thBoxAssets/CA_files_by_Character/BreatheFacingFence/CH_BreatheFence_B.png/CH_BreatheFence_B.png.19.png</pathurl>
                      <rate>
                        <timebase>12</timebase>
                        <ntsc>FALSE</ntsc>
                      </rate>
                      <duration>129</duration>
                      <timecode>
                        <rate>
                          <timebase>12</timebase>
                          <ntsc>FALSE</ntsc>
                        </rate>
                      </timecode>
                      <media>
                        <video>
                          <duration>1</duration>
                          <samplecharacteristics>
                            <anamorphic>FALSE</anamorphic>
                            <pixelaspectratio>square</pixelaspectratio>
                            <fielddominance>none</fielddominance>
                            <width>1993</width>
                            <height>1300</height>
                          </samplecharacteristics>
                        </video>
                      </media>
                    </file>
                  </clipitem>
                </track>
              </video>
            </media>
          </clip>
          <clip explodedTracks="true" frameBlend="FALSE" id="masterclip-22">
            <uuid>be3b2bf4-d54f-4c54-ad91-4aa106cf26c2</uuid>
            <masterclipid>masterclip-22</masterclipid>
            <ismasterclip>TRUE</ismasterclip>
            <duration>129</duration>
            <in>0</in>
            <out>129</out>
            <name>CH_BreatheFence_B.png.20.png</name>
            <rate>
              <timebase>12</timebase>
              <ntsc>FALSE</ntsc>
            </rate>
            <media>
              <video>
                <track>
                  <clipitem frameBlend="FALSE" id="clipitem-23">
                    <name>CH_BreatheFence_B.png.20.png</name>
                    <masterclipid>masterclip-22</masterclipid>
                    <rate>
                      <timebase>12</timebase>
                      <ntsc>FALSE</ntsc>
                    </rate>
                    <alphatype>straight</alphatype>
                    <pixelaspectratio>square</pixelaspectratio>
                    <anamorphic>FALSE</anamorphic>
                    <file id="file-22">
                      <name>CH_BreatheFence_B.png.20.png</name>
                      <pathurl>file://localhost/Users/MAK/Dropbox/4thBoxAssets/CA_files_by_Character/BreatheFacingFence/CH_BreatheFence_B.png/CH_BreatheFence_B.png.20.png</pathurl>
                      <rate>
                        <timebase>12</timebase>
                        <ntsc>FALSE</ntsc>
                      </rate>
                      <duration>129</duration>
                      <timecode>
                        <rate>
                          <timebase>12</timebase>
                          <ntsc>FALSE</ntsc>
                        </rate>
                      </timecode>
                      <media>
                        <video>
                          <duration>1</duration>
                          <samplecharacteristics>
                            <anamorphic>FALSE</anamorphic>
                            <pixelaspectratio>square</pixelaspectratio>
                            <fielddominance>none</fielddominance>
                            <width>1993</width>
                            <height>1300</height>
                          </samplecharacteristics>
                        </video>
                      </media>
                    </file>
                  </clipitem>
                </track>
              </video>
            </media>
          </clip>
          <clip explodedTracks="true" frameBlend="FALSE" id="masterclip-23">
            <uuid>711cfa43-6837-4c32-bac2-06d345da3df7</uuid>
            <masterclipid>masterclip-23</masterclipid>
            <ismasterclip>TRUE</ismasterclip>
            <duration>129</duration>
            <in>0</in>
            <out>129</out>
            <name>CH_BreatheFence_B.png.21.png</name>
            <rate>
              <timebase>12</timebase>
              <ntsc>FALSE</ntsc>
            </rate>
            <media>
              <video>
                <track>
                  <clipitem frameBlend="FALSE" id="clipitem-24">
                    <name>CH_BreatheFence_B.png.21.png</name>
                    <masterclipid>masterclip-23</masterclipid>
                    <rate>
                      <timebase>12</timebase>
                      <ntsc>FALSE</ntsc>
                    </rate>
                    <alphatype>straight</alphatype>
                    <pixelaspectratio>square</pixelaspectratio>
                    <anamorphic>FALSE</anamorphic>
                    <file id="file-23">
                      <name>CH_BreatheFence_B.png.21.png</name>
                      <pathurl>file://localhost/Users/MAK/Dropbox/4thBoxAssets/CA_files_by_Character/BreatheFacingFence/CH_BreatheFence_B.png/CH_BreatheFence_B.png.21.png</pathurl>
                      <rate>
                        <timebase>12</timebase>
                        <ntsc>FALSE</ntsc>
                      </rate>
                      <duration>129</duration>
                      <timecode>
                        <rate>
                          <timebase>12</timebase>
                          <ntsc>FALSE</ntsc>
                        </rate>
                      </timecode>
                      <media>
                        <video>
                          <duration>1</duration>
                          <samplecharacteristics>
                            <anamorphic>FALSE</anamorphic>
                            <pixelaspectratio>square</pixelaspectratio>
                            <fielddominance>none</fielddominance>
                            <width>1993</width>
                            <height>1300</height>
                          </samplecharacteristics>
                        </video>
                      </media>
                    </file>
                  </clipitem>
                </track>
              </video>
            </media>
          </clip>
          <clip explodedTracks="true" frameBlend="FALSE" id="masterclip-24">
            <uuid>b9e93295-f7ae-4295-8979-f8a5910537f7</uuid>
            <masterclipid>masterclip-24</masterclipid>
            <ismasterclip>TRUE</ismasterclip>
            <duration>129</duration>
            <in>0</in>
            <out>129</out>
            <name>CH_BreatheFence_B.png.22.png</name>
            <rate>
              <timebase>12</timebase>
              <ntsc>FALSE</ntsc>
            </rate>
            <media>
              <video>
                <track>
                  <clipitem frameBlend="FALSE" id="clipitem-25">
                    <name>CH_BreatheFence_B.png.22.png</name>
                    <masterclipid>masterclip-24</masterclipid>
                    <rate>
                      <timebase>12</timebase>
                      <ntsc>FALSE</ntsc>
                    </rate>
                    <alphatype>straight</alphatype>
                    <pixelaspectratio>square</pixelaspectratio>
                    <anamorphic>FALSE</anamorphic>
                    <file id="file-24">
                      <name>CH_BreatheFence_B.png.22.png</name>
                      <pathurl>file://localhost/Users/MAK/Dropbox/4thBoxAssets/CA_files_by_Character/BreatheFacingFence/CH_BreatheFence_B.png/CH_BreatheFence_B.png.22.png</pathurl>
                      <rate>
                        <timebase>12</timebase>
                        <ntsc>FALSE</ntsc>
                      </rate>
                      <duration>129</duration>
                      <timecode>
                        <rate>
                          <timebase>12</timebase>
                          <ntsc>FALSE</ntsc>
                        </rate>
                      </timecode>
                      <media>
                        <video>
                          <duration>1</duration>
                          <samplecharacteristics>
                            <anamorphic>FALSE</anamorphic>
                            <pixelaspectratio>square</pixelaspectratio>
                            <fielddominance>none</fielddominance>
                            <width>1993</width>
                            <height>1300</height>
                          </samplecharacteristics>
                        </video>
                      </media>
                    </file>
                  </clipitem>
                </track>
              </video>
            </media>
          </clip>
          <clip explodedTracks="true" frameBlend="FALSE" id="masterclip-25">
            <uuid>4757d3ad-8969-4c16-be24-da47db045dc7</uuid>
            <masterclipid>masterclip-25</masterclipid>
            <ismasterclip>TRUE</ismasterclip>
            <duration>129</duration>
            <in>0</in>
            <out>129</out>
            <name>CH_BreatheFence_B.png.23.png</name>
            <rate>
              <timebase>12</timebase>
              <ntsc>FALSE</ntsc>
            </rate>
            <media>
              <video>
                <track>
                  <clipitem frameBlend="FALSE" id="clipitem-26">
                    <name>CH_BreatheFence_B.png.23.png</name>
                    <masterclipid>masterclip-25</masterclipid>
                    <rate>
                      <timebase>12</timebase>
                      <ntsc>FALSE</ntsc>
                    </rate>
                    <alphatype>straight</alphatype>
                    <pixelaspectratio>square</pixelaspectratio>
                    <anamorphic>FALSE</anamorphic>
                    <file id="file-25">
                      <name>CH_BreatheFence_B.png.23.png</name>
                      <pathurl>file://localhost/Users/MAK/Dropbox/4thBoxAssets/CA_files_by_Character/BreatheFacingFence/CH_BreatheFence_B.png/CH_BreatheFence_B.png.23.png</pathurl>
                      <rate>
                        <timebase>12</timebase>
                        <ntsc>FALSE</ntsc>
                      </rate>
                      <duration>129</duration>
                      <timecode>
                        <rate>
                          <timebase>12</timebase>
                          <ntsc>FALSE</ntsc>
                        </rate>
                      </timecode>
                      <media>
                        <video>
                          <duration>1</duration>
                          <samplecharacteristics>
                            <anamorphic>FALSE</anamorphic>
                            <pixelaspectratio>square</pixelaspectratio>
                            <fielddominance>none</fielddominance>
                            <width>1993</width>
                            <height>1300</height>
                          </samplecharacteristics>
                        </video>
                      </media>
                    </file>
                  </clipitem>
                </track>
              </video>
            </media>
          </clip>
          <clip explodedTracks="true" frameBlend="FALSE" id="masterclip-26">
            <uuid>387a11d6-b1c2-477a-902e-3ac2fecf5c50</uuid>
            <masterclipid>masterclip-26</masterclipid>
            <ismasterclip>TRUE</ismasterclip>
            <duration>129</duration>
            <in>0</in>
            <out>129</out>
            <name>CH_BreatheFence_B.png.24.png</name>
            <rate>
              <timebase>12</timebase>
              <ntsc>FALSE</ntsc>
            </rate>
            <media>
              <video>
                <track>
                  <clipitem frameBlend="FALSE" id="clipitem-27">
                    <name>CH_BreatheFence_B.png.24.png</name>
                    <masterclipid>masterclip-26</masterclipid>
                    <rate>
                      <timebase>12</timebase>
                      <ntsc>FALSE</ntsc>
                    </rate>
                    <alphatype>straight</alphatype>
                    <pixelaspectratio>square</pixelaspectratio>
                    <anamorphic>FALSE</anamorphic>
                    <file id="file-26">
                      <name>CH_BreatheFence_B.png.24.png</name>
                      <pathurl>file://localhost/Users/MAK/Dropbox/4thBoxAssets/CA_files_by_Character/BreatheFacingFence/CH_BreatheFence_B.png/CH_BreatheFence_B.png.24.png</pathurl>
                      <rate>
                        <timebase>12</timebase>
                        <ntsc>FALSE</ntsc>
                      </rate>
                      <duration>129</duration>
                      <timecode>
                        <rate>
                          <timebase>12</timebase>
                          <ntsc>FALSE</ntsc>
                        </rate>
                      </timecode>
                      <media>
                        <video>
                          <duration>1</duration>
                          <samplecharacteristics>
                            <anamorphic>FALSE</anamorphic>
                            <pixelaspectratio>square</pixelaspectratio>
                            <fielddominance>none</fielddominance>
                            <width>1993</width>
                            <height>1300</height>
                          </samplecharacteristics>
                        </video>
                      </media>
                    </file>
                  </clipitem>
                </track>
              </video>
            </media>
          </clip>
          <clip explodedTracks="true" frameBlend="FALSE" id="masterclip-27">
            <uuid>06154dfd-096c-4b69-922c-5c2309f5a315</uuid>
            <masterclipid>masterclip-27</masterclipid>
            <ismasterclip>TRUE</ismasterclip>
            <duration>129</duration>
            <in>0</in>
            <out>129</out>
            <name>CH_BreatheFence_B.png.25.png</name>
            <rate>
              <timebase>12</timebase>
              <ntsc>FALSE</ntsc>
            </rate>
            <media>
              <video>
                <track>
                  <clipitem frameBlend="FALSE" id="clipitem-28">
                    <name>CH_BreatheFence_B.png.25.png</name>
                    <masterclipid>masterclip-27</masterclipid>
                    <rate>
                      <timebase>12</timebase>
                      <ntsc>FALSE</ntsc>
                    </rate>
                    <alphatype>straight</alphatype>
                    <pixelaspectratio>square</pixelaspectratio>
                    <anamorphic>FALSE</anamorphic>
                    <file id="file-27">
                      <name>CH_BreatheFence_B.png.25.png</name>
                      <pathurl>file://localhost/Users/MAK/Dropbox/4thBoxAssets/CA_files_by_Character/BreatheFacingFence/CH_BreatheFence_B.png/CH_BreatheFence_B.png.25.png</pathurl>
                      <rate>
                        <timebase>12</timebase>
                        <ntsc>FALSE</ntsc>
                      </rate>
                      <duration>129</duration>
                      <timecode>
                        <rate>
                          <timebase>12</timebase>
                          <ntsc>FALSE</ntsc>
                        </rate>
                      </timecode>
                      <media>
                        <video>
                          <duration>1</duration>
                          <samplecharacteristics>
                            <anamorphic>FALSE</anamorphic>
                            <pixelaspectratio>square</pixelaspectratio>
                            <fielddominance>none</fielddominance>
                            <width>1993</width>
                            <height>1300</height>
                          </samplecharacteristics>
                        </video>
                      </media>
                    </file>
                  </clipitem>
                </track>
              </video>
            </media>
          </clip>
          <clip explodedTracks="true" frameBlend="FALSE" id="masterclip-28">
            <uuid>464d2ec4-529f-4fd5-aa10-9be67ea2aa16</uuid>
            <masterclipid>masterclip-28</masterclipid>
            <ismasterclip>TRUE</ismasterclip>
            <duration>129</duration>
            <in>0</in>
            <out>129</out>
            <name>CH_BreatheFence_B.png.26.png</name>
            <rate>
              <timebase>12</timebase>
              <ntsc>FALSE</ntsc>
            </rate>
            <media>
              <video>
                <track>
                  <clipitem frameBlend="FALSE" id="clipitem-29">
                    <name>CH_BreatheFence_B.png.26.png</name>
                    <masterclipid>masterclip-28</masterclipid>
                    <rate>
                      <timebase>12</timebase>
                      <ntsc>FALSE</ntsc>
                    </rate>
                    <alphatype>straight</alphatype>
                    <pixelaspectratio>square</pixelaspectratio>
                    <anamorphic>FALSE</anamorphic>
                    <file id="file-28">
                      <name>CH_BreatheFence_B.png.26.png</name>
                      <pathurl>file://localhost/Users/MAK/Dropbox/4thBoxAssets/CA_files_by_Character/BreatheFacingFence/CH_BreatheFence_B.png/CH_BreatheFence_B.png.26.png</pathurl>
                      <rate>
                        <timebase>12</timebase>
                        <ntsc>FALSE</ntsc>
                      </rate>
                      <duration>129</duration>
                      <timecode>
                        <rate>
                          <timebase>12</timebase>
                          <ntsc>FALSE</ntsc>
                        </rate>
                      </timecode>
                      <media>
                        <video>
                          <duration>1</duration>
                          <samplecharacteristics>
                            <anamorphic>FALSE</anamorphic>
                            <pixelaspectratio>square</pixelaspectratio>
                            <fielddominance>none</fielddominance>
                            <width>1993</width>
                            <height>1300</height>
                          </samplecharacteristics>
                        </video>
                      </media>
                    </file>
                  </clipitem>
                </track>
              </video>
            </media>
          </clip>
          <clip explodedTracks="true" frameBlend="FALSE" id="masterclip-29">
            <uuid>ab892961-408e-4e04-9fac-d4c7971c489c</uuid>
            <masterclipid>masterclip-29</masterclipid>
            <ismasterclip>TRUE</ismasterclip>
            <duration>129</duration>
            <in>0</in>
            <out>129</out>
            <name>CH_BreatheFence_B.png.27.png</name>
            <rate>
              <timebase>12</timebase>
              <ntsc>FALSE</ntsc>
            </rate>
            <media>
              <video>
                <track>
                  <clipitem frameBlend="FALSE" id="clipitem-30">
                    <name>CH_BreatheFence_B.png.27.png</name>
                    <masterclipid>masterclip-29</masterclipid>
                    <rate>
                      <timebase>12</timebase>
                      <ntsc>FALSE</ntsc>
                    </rate>
                    <alphatype>straight</alphatype>
                    <pixelaspectratio>square</pixelaspectratio>
                    <anamorphic>FALSE</anamorphic>
                    <file id="file-29">
                      <name>CH_BreatheFence_B.png.27.png</name>
                      <pathurl>file://localhost/Users/MAK/Dropbox/4thBoxAssets/CA_files_by_Character/BreatheFacingFence/CH_BreatheFence_B.png/CH_BreatheFence_B.png.27.png</pathurl>
                      <rate>
                        <timebase>12</timebase>
                        <ntsc>FALSE</ntsc>
                      </rate>
                      <duration>129</duration>
                      <timecode>
                        <rate>
                          <timebase>12</timebase>
                          <ntsc>FALSE</ntsc>
                        </rate>
                      </timecode>
                      <media>
                        <video>
                          <duration>1</duration>
                          <samplecharacteristics>
                            <anamorphic>FALSE</anamorphic>
                            <pixelaspectratio>square</pixelaspectratio>
                            <fielddominance>none</fielddominance>
                            <width>1993</width>
                            <height>1300</height>
                          </samplecharacteristics>
                        </video>
                      </media>
                    </file>
                  </clipitem>
                </track>
              </video>
            </media>
          </clip>
          <clip explodedTracks="true" frameBlend="FALSE" id="masterclip-30">
            <uuid>81af9158-75d4-4d2a-a8ca-63349be139a4</uuid>
            <masterclipid>masterclip-30</masterclipid>
            <ismasterclip>TRUE</ismasterclip>
            <duration>129</duration>
            <in>0</in>
            <out>129</out>
            <name>CH_BreatheFence_B.png.28.png</name>
            <rate>
              <timebase>12</timebase>
              <ntsc>FALSE</ntsc>
            </rate>
            <media>
              <video>
                <track>
                  <clipitem frameBlend="FALSE" id="clipitem-31">
                    <name>CH_BreatheFence_B.png.28.png</name>
                    <masterclipid>masterclip-30</masterclipid>
                    <rate>
                      <timebase>12</timebase>
                      <ntsc>FALSE</ntsc>
                    </rate>
                    <alphatype>straight</alphatype>
                    <pixelaspectratio>square</pixelaspectratio>
                    <anamorphic>FALSE</anamorphic>
                    <file id="file-30">
                      <name>CH_BreatheFence_B.png.28.png</name>
                      <pathurl>file://localhost/Users/MAK/Dropbox/4thBoxAssets/CA_files_by_Character/BreatheFacingFence/CH_BreatheFence_B.png/CH_BreatheFence_B.png.28.png</pathurl>
                      <rate>
                        <timebase>12</timebase>
                        <ntsc>FALSE</ntsc>
                      </rate>
                      <duration>129</duration>
                      <timecode>
                        <rate>
                          <timebase>12</timebase>
                          <ntsc>FALSE</ntsc>
                        </rate>
                      </timecode>
                      <media>
                        <video>
                          <duration>1</duration>
                          <samplecharacteristics>
                            <anamorphic>FALSE</anamorphic>
                            <pixelaspectratio>square</pixelaspectratio>
                            <fielddominance>none</fielddominance>
                            <width>1993</width>
                            <height>1300</height>
                          </samplecharacteristics>
                        </video>
                      </media>
                    </file>
                  </clipitem>
                </track>
              </video>
            </media>
          </clip>
          <clip explodedTracks="true" frameBlend="FALSE" id="masterclip-31">
            <uuid>5f784485-c6f2-488f-bc59-efca7d1c9f98</uuid>
            <masterclipid>masterclip-31</masterclipid>
            <ismasterclip>TRUE</ismasterclip>
            <duration>129</duration>
            <in>0</in>
            <out>129</out>
            <name>CH_BreatheFence_B.png.29.png</name>
            <rate>
              <timebase>12</timebase>
              <ntsc>FALSE</ntsc>
            </rate>
            <media>
              <video>
                <track>
                  <clipitem frameBlend="FALSE" id="clipitem-32">
                    <name>CH_BreatheFence_B.png.29.png</name>
                    <masterclipid>masterclip-31</masterclipid>
                    <rate>
                      <timebase>12</timebase>
                      <ntsc>FALSE</ntsc>
                    </rate>
                    <alphatype>straight</alphatype>
                    <pixelaspectratio>square</pixelaspectratio>
                    <anamorphic>FALSE</anamorphic>
                    <file id="file-31">
                      <name>CH_BreatheFence_B.png.29.png</name>
                      <pathurl>file://localhost/Users/MAK/Dropbox/4thBoxAssets/CA_files_by_Character/BreatheFacingFence/CH_BreatheFence_B.png/CH_BreatheFence_B.png.29.png</pathurl>
                      <rate>
                        <timebase>12</timebase>
                        <ntsc>FALSE</ntsc>
                      </rate>
                      <duration>129</duration>
                      <timecode>
                        <rate>
                          <timebase>12</timebase>
                          <ntsc>FALSE</ntsc>
                        </rate>
                      </timecode>
                      <media>
                        <video>
                          <duration>1</duration>
                          <samplecharacteristics>
                            <anamorphic>FALSE</anamorphic>
                            <pixelaspectratio>square</pixelaspectratio>
                            <fielddominance>none</fielddominance>
                            <width>1993</width>
                            <height>1300</height>
                          </samplecharacteristics>
                        </video>
                      </media>
                    </file>
                  </clipitem>
                </track>
              </video>
            </media>
          </clip>
          <clip explodedTracks="true" frameBlend="FALSE" id="masterclip-32">
            <uuid>c6ca1ab1-1f80-4554-9049-deb7b32706c1</uuid>
            <masterclipid>masterclip-32</masterclipid>
            <ismasterclip>TRUE</ismasterclip>
            <duration>129</duration>
            <in>0</in>
            <out>129</out>
            <name>CH_BreatheFence_B.png.30.png</name>
            <rate>
              <timebase>12</timebase>
              <ntsc>FALSE</ntsc>
            </rate>
            <media>
              <video>
                <track>
                  <clipitem frameBlend="FALSE" id="clipitem-33">
                    <name>CH_BreatheFence_B.png.30.png</name>
                    <masterclipid>masterclip-32</masterclipid>
                    <rate>
                      <timebase>12</timebase>
                      <ntsc>FALSE</ntsc>
                    </rate>
                    <alphatype>straight</alphatype>
                    <pixelaspectratio>square</pixelaspectratio>
                    <anamorphic>FALSE</anamorphic>
                    <file id="file-32">
                      <name>CH_BreatheFence_B.png.30.png</name>
                      <pathurl>file://localhost/Users/MAK/Dropbox/4thBoxAssets/CA_files_by_Character/BreatheFacingFence/CH_BreatheFence_B.png/CH_BreatheFence_B.png.30.png</pathurl>
                      <rate>
                        <timebase>12</timebase>
                        <ntsc>FALSE</ntsc>
                      </rate>
                      <duration>129</duration>
                      <timecode>
                        <rate>
                          <timebase>12</timebase>
                          <ntsc>FALSE</ntsc>
                        </rate>
                      </timecode>
                      <media>
                        <video>
                          <duration>1</duration>
                          <samplecharacteristics>
                            <anamorphic>FALSE</anamorphic>
                            <pixelaspectratio>square</pixelaspectratio>
                            <fielddominance>none</fielddominance>
                            <width>1993</width>
                            <height>1300</height>
                          </samplecharacteristics>
                        </video>
                      </media>
                    </file>
                  </clipitem>
                </track>
              </video>
            </media>
          </clip>
          <clip explodedTracks="true" frameBlend="FALSE" id="masterclip-33">
            <uuid>1863c044-89dc-4f16-91c0-1f35a2e2e01d</uuid>
            <masterclipid>masterclip-33</masterclipid>
            <ismasterclip>TRUE</ismasterclip>
            <duration>129</duration>
            <in>0</in>
            <out>129</out>
            <name>CH_BreatheFence_B.png.31.png</name>
            <rate>
              <timebase>12</timebase>
              <ntsc>FALSE</ntsc>
            </rate>
            <media>
              <video>
                <track>
                  <clipitem frameBlend="FALSE" id="clipitem-34">
                    <name>CH_BreatheFence_B.png.31.png</name>
                    <masterclipid>masterclip-33</masterclipid>
                    <rate>
                      <timebase>12</timebase>
                      <ntsc>FALSE</ntsc>
                    </rate>
                    <alphatype>straight</alphatype>
                    <pixelaspectratio>square</pixelaspectratio>
                    <anamorphic>FALSE</anamorphic>
                    <file id="file-33">
                      <name>CH_BreatheFence_B.png.31.png</name>
                      <pathurl>file://localhost/Users/MAK/Dropbox/4thBoxAssets/CA_files_by_Character/BreatheFacingFence/CH_BreatheFence_B.png/CH_BreatheFence_B.png.31.png</pathurl>
                      <rate>
                        <timebase>12</timebase>
                        <ntsc>FALSE</ntsc>
                      </rate>
                      <duration>129</duration>
                      <timecode>
                        <rate>
                          <timebase>12</timebase>
                          <ntsc>FALSE</ntsc>
                        </rate>
                      </timecode>
                      <media>
                        <video>
                          <duration>1</duration>
                          <samplecharacteristics>
                            <anamorphic>FALSE</anamorphic>
                            <pixelaspectratio>square</pixelaspectratio>
                            <fielddominance>none</fielddominance>
                            <width>1993</width>
                            <height>1300</height>
                          </samplecharacteristics>
                        </video>
                      </media>
                    </file>
                  </clipitem>
                </track>
              </video>
            </media>
          </clip>
          <clip explodedTracks="true" frameBlend="FALSE" id="masterclip-34">
            <uuid>740d356c-2335-456e-8f0d-2c08d6a0d81a</uuid>
            <masterclipid>masterclip-34</masterclipid>
            <ismasterclip>TRUE</ismasterclip>
            <duration>129</duration>
            <in>0</in>
            <out>129</out>
            <name>CH_BreatheFence_B.png.32.png</name>
            <rate>
              <timebase>12</timebase>
              <ntsc>FALSE</ntsc>
            </rate>
            <media>
              <video>
                <track>
                  <clipitem frameBlend="FALSE" id="clipitem-35">
                    <name>CH_BreatheFence_B.png.32.png</name>
                    <masterclipid>masterclip-34</masterclipid>
                    <rate>
                      <timebase>12</timebase>
                      <ntsc>FALSE</ntsc>
                    </rate>
                    <alphatype>straight</alphatype>
                    <pixelaspectratio>square</pixelaspectratio>
                    <anamorphic>FALSE</anamorphic>
                    <file id="file-34">
                      <name>CH_BreatheFence_B.png.32.png</name>
                      <pathurl>file://localhost/Users/MAK/Dropbox/4thBoxAssets/CA_files_by_Character/BreatheFacingFence/CH_BreatheFence_B.png/CH_BreatheFence_B.png.32.png</pathurl>
                      <rate>
                        <timebase>12</timebase>
                        <ntsc>FALSE</ntsc>
                      </rate>
                      <duration>129</duration>
                      <timecode>
                        <rate>
                          <timebase>12</timebase>
                          <ntsc>FALSE</ntsc>
                        </rate>
                      </timecode>
                      <media>
                        <video>
                          <duration>1</duration>
                          <samplecharacteristics>
                            <anamorphic>FALSE</anamorphic>
                            <pixelaspectratio>square</pixelaspectratio>
                            <fielddominance>none</fielddominance>
                            <width>1993</width>
                            <height>1300</height>
                          </samplecharacteristics>
                        </video>
                      </media>
                    </file>
                  </clipitem>
                </track>
              </video>
            </media>
          </clip>
          <clip explodedTracks="true" frameBlend="FALSE" id="masterclip-35">
            <uuid>93b2a8fd-5d2a-4122-800a-710cd9c739fd</uuid>
            <masterclipid>masterclip-35</masterclipid>
            <ismasterclip>TRUE</ismasterclip>
            <duration>129</duration>
            <in>0</in>
            <out>129</out>
            <name>CH_BreatheFence_B.png.33.png</name>
            <rate>
              <timebase>12</timebase>
              <ntsc>FALSE</ntsc>
            </rate>
            <media>
              <video>
                <track>
                  <clipitem frameBlend="FALSE" id="clipitem-36">
                    <name>CH_BreatheFence_B.png.33.png</name>
                    <masterclipid>masterclip-35</masterclipid>
                    <rate>
                      <timebase>12</timebase>
                      <ntsc>FALSE</ntsc>
                    </rate>
                    <alphatype>straight</alphatype>
                    <pixelaspectratio>square</pixelaspectratio>
                    <anamorphic>FALSE</anamorphic>
                    <file id="file-35">
                      <name>CH_BreatheFence_B.png.33.png</name>
                      <pathurl>file://localhost/Users/MAK/Dropbox/4thBoxAssets/CA_files_by_Character/BreatheFacingFence/CH_BreatheFence_B.png/CH_BreatheFence_B.png.33.png</pathurl>
                      <rate>
                        <timebase>12</timebase>
                        <ntsc>FALSE</ntsc>
                      </rate>
                      <duration>129</duration>
                      <timecode>
                        <rate>
                          <timebase>12</timebase>
                          <ntsc>FALSE</ntsc>
                        </rate>
                      </timecode>
                      <media>
                        <video>
                          <duration>1</duration>
                          <samplecharacteristics>
                            <anamorphic>FALSE</anamorphic>
                            <pixelaspectratio>square</pixelaspectratio>
                            <fielddominance>none</fielddominance>
                            <width>1993</width>
                            <height>1300</height>
                          </samplecharacteristics>
                        </video>
                      </media>
                    </file>
                  </clipitem>
                </track>
              </video>
            </media>
          </clip>
          <clip explodedTracks="true" frameBlend="FALSE" id="masterclip-36">
            <uuid>98835d8c-9ff7-4c24-8382-1515e9697cbe</uuid>
            <masterclipid>masterclip-36</masterclipid>
            <ismasterclip>TRUE</ismasterclip>
            <duration>129</duration>
            <in>0</in>
            <out>129</out>
            <name>CH_BreatheFence_B.png.34.png</name>
            <rate>
              <timebase>12</timebase>
              <ntsc>FALSE</ntsc>
            </rate>
            <media>
              <video>
                <track>
                  <clipitem frameBlend="FALSE" id="clipitem-37">
                    <name>CH_BreatheFence_B.png.34.png</name>
                    <masterclipid>masterclip-36</masterclipid>
                    <rate>
                      <timebase>12</timebase>
                      <ntsc>FALSE</ntsc>
                    </rate>
                    <alphatype>straight</alphatype>
                    <pixelaspectratio>square</pixelaspectratio>
                    <anamorphic>FALSE</anamorphic>
                    <file id="file-36">
                      <name>CH_BreatheFence_B.png.34.png</name>
                      <pathurl>file://localhost/Users/MAK/Dropbox/4thBoxAssets/CA_files_by_Character/BreatheFacingFence/CH_BreatheFence_B.png/CH_BreatheFence_B.png.34.png</pathurl>
                      <rate>
                        <timebase>12</timebase>
                        <ntsc>FALSE</ntsc>
                      </rate>
                      <duration>129</duration>
                      <timecode>
                        <rate>
                          <timebase>12</timebase>
                          <ntsc>FALSE</ntsc>
                        </rate>
                      </timecode>
                      <media>
                        <video>
                          <duration>1</duration>
                          <samplecharacteristics>
                            <anamorphic>FALSE</anamorphic>
                            <pixelaspectratio>square</pixelaspectratio>
                            <fielddominance>none</fielddominance>
                            <width>1993</width>
                            <height>1300</height>
                          </samplecharacteristics>
                        </video>
                      </media>
                    </file>
                  </clipitem>
                </track>
              </video>
            </media>
          </clip>
          <clip explodedTracks="true" frameBlend="FALSE" id="masterclip-37">
            <uuid>fe88a08c-774a-4b93-ada2-70cda75c39bb</uuid>
            <masterclipid>masterclip-37</masterclipid>
            <ismasterclip>TRUE</ismasterclip>
            <duration>129</duration>
            <in>0</in>
            <out>129</out>
            <name>CH_BreatheFence_B.png.35.png</name>
            <rate>
              <timebase>12</timebase>
              <ntsc>FALSE</ntsc>
            </rate>
            <media>
              <video>
                <track>
                  <clipitem frameBlend="FALSE" id="clipitem-38">
                    <name>CH_BreatheFence_B.png.35.png</name>
                    <masterclipid>masterclip-37</masterclipid>
                    <rate>
                      <timebase>12</timebase>
                      <ntsc>FALSE</ntsc>
                    </rate>
                    <alphatype>straight</alphatype>
                    <pixelaspectratio>square</pixelaspectratio>
                    <anamorphic>FALSE</anamorphic>
                    <file id="file-37">
                      <name>CH_BreatheFence_B.png.35.png</name>
                      <pathurl>file://localhost/Users/MAK/Dropbox/4thBoxAssets/CA_files_by_Character/BreatheFacingFence/CH_BreatheFence_B.png/CH_BreatheFence_B.png.35.png</pathurl>
                      <rate>
                        <timebase>12</timebase>
                        <ntsc>FALSE</ntsc>
                      </rate>
                      <duration>129</duration>
                      <timecode>
                        <rate>
                          <timebase>12</timebase>
                          <ntsc>FALSE</ntsc>
                        </rate>
                      </timecode>
                      <media>
                        <video>
                          <duration>1</duration>
                          <samplecharacteristics>
                            <anamorphic>FALSE</anamorphic>
                            <pixelaspectratio>square</pixelaspectratio>
                            <fielddominance>none</fielddominance>
                            <width>1993</width>
                            <height>1300</height>
                          </samplecharacteristics>
                        </video>
                      </media>
                    </file>
                  </clipitem>
                </track>
              </video>
            </media>
          </clip>
          <clip explodedTracks="true" frameBlend="FALSE" id="masterclip-38">
            <uuid>114c28b0-63d1-4eb4-a5de-ffadb5f4cc23</uuid>
            <masterclipid>masterclip-38</masterclipid>
            <ismasterclip>TRUE</ismasterclip>
            <duration>129</duration>
            <in>0</in>
            <out>129</out>
            <name>CH_BreatheFence_B.png.36.png</name>
            <rate>
              <timebase>12</timebase>
              <ntsc>FALSE</ntsc>
            </rate>
            <media>
              <video>
                <track>
                  <clipitem frameBlend="FALSE" id="clipitem-39">
                    <name>CH_BreatheFence_B.png.36.png</name>
                    <masterclipid>masterclip-38</masterclipid>
                    <rate>
                      <timebase>12</timebase>
                      <ntsc>FALSE</ntsc>
                    </rate>
                    <alphatype>straight</alphatype>
                    <pixelaspectratio>square</pixelaspectratio>
                    <anamorphic>FALSE</anamorphic>
                    <file id="file-38">
                      <name>CH_BreatheFence_B.png.36.png</name>
                      <pathurl>file://localhost/Users/MAK/Dropbox/4thBoxAssets/CA_files_by_Character/BreatheFacingFence/CH_BreatheFence_B.png/CH_BreatheFence_B.png.36.png</pathurl>
                      <rate>
                        <timebase>12</timebase>
                        <ntsc>FALSE</ntsc>
                      </rate>
                      <duration>129</duration>
                      <timecode>
                        <rate>
                          <timebase>12</timebase>
                          <ntsc>FALSE</ntsc>
                        </rate>
                      </timecode>
                      <media>
                        <video>
                          <duration>1</duration>
                          <samplecharacteristics>
                            <anamorphic>FALSE</anamorphic>
                            <pixelaspectratio>square</pixelaspectratio>
                            <fielddominance>none</fielddominance>
                            <width>1993</width>
                            <height>1300</height>
                          </samplecharacteristics>
                        </video>
                      </media>
                    </file>
                  </clipitem>
                </track>
              </video>
            </media>
          </clip>
          <clip explodedTracks="true" frameBlend="FALSE" id="masterclip-39">
            <uuid>f959192c-7884-4085-914e-a1a9388b2102</uuid>
            <masterclipid>masterclip-39</masterclipid>
            <ismasterclip>TRUE</ismasterclip>
            <duration>129</duration>
            <in>0</in>
            <out>129</out>
            <name>CH_BreatheFence_B.png.37.png</name>
            <rate>
              <timebase>12</timebase>
              <ntsc>FALSE</ntsc>
            </rate>
            <media>
              <video>
                <track>
                  <clipitem frameBlend="FALSE" id="clipitem-40">
                    <name>CH_BreatheFence_B.png.37.png</name>
                    <masterclipid>masterclip-39</masterclipid>
                    <rate>
                      <timebase>12</timebase>
                      <ntsc>FALSE</ntsc>
                    </rate>
                    <alphatype>straight</alphatype>
                    <pixelaspectratio>square</pixelaspectratio>
                    <anamorphic>FALSE</anamorphic>
                    <file id="file-39">
                      <name>CH_BreatheFence_B.png.37.png</name>
                      <pathurl>file://localhost/Users/MAK/Dropbox/4thBoxAssets/CA_files_by_Character/BreatheFacingFence/CH_BreatheFence_B.png/CH_BreatheFence_B.png.37.png</pathurl>
                      <rate>
                        <timebase>12</timebase>
                        <ntsc>FALSE</ntsc>
                      </rate>
                      <duration>129</duration>
                      <timecode>
                        <rate>
                          <timebase>12</timebase>
                          <ntsc>FALSE</ntsc>
                        </rate>
                      </timecode>
                      <media>
                        <video>
                          <duration>1</duration>
                          <samplecharacteristics>
                            <anamorphic>FALSE</anamorphic>
                            <pixelaspectratio>square</pixelaspectratio>
                            <fielddominance>none</fielddominance>
                            <width>1993</width>
                            <height>1300</height>
                          </samplecharacteristics>
                        </video>
                      </media>
                    </file>
                  </clipitem>
                </track>
              </video>
            </media>
          </clip>
          <clip explodedTracks="true" frameBlend="FALSE" id="masterclip-40">
            <uuid>8d33ac34-6761-4979-b96d-4a6d4f42ba16</uuid>
            <masterclipid>masterclip-40</masterclipid>
            <ismasterclip>TRUE</ismasterclip>
            <duration>129</duration>
            <in>0</in>
            <out>129</out>
            <name>CH_BreatheFence_B.png.38.png</name>
            <rate>
              <timebase>12</timebase>
              <ntsc>FALSE</ntsc>
            </rate>
            <media>
              <video>
                <track>
                  <clipitem frameBlend="FALSE" id="clipitem-41">
                    <name>CH_BreatheFence_B.png.38.png</name>
                    <masterclipid>masterclip-40</masterclipid>
                    <rate>
                      <timebase>12</timebase>
                      <ntsc>FALSE</ntsc>
                    </rate>
                    <alphatype>straight</alphatype>
                    <pixelaspectratio>square</pixelaspectratio>
                    <anamorphic>FALSE</anamorphic>
                    <file id="file-40">
                      <name>CH_BreatheFence_B.png.38.png</name>
                      <pathurl>file://localhost/Users/MAK/Dropbox/4thBoxAssets/CA_files_by_Character/BreatheFacingFence/CH_BreatheFence_B.png/CH_BreatheFence_B.png.38.png</pathurl>
                      <rate>
                        <timebase>12</timebase>
                        <ntsc>FALSE</ntsc>
                      </rate>
                      <duration>129</duration>
                      <timecode>
                        <rate>
                          <timebase>12</timebase>
                          <ntsc>FALSE</ntsc>
                        </rate>
                      </timecode>
                      <media>
                        <video>
                          <duration>1</duration>
                          <samplecharacteristics>
                            <anamorphic>FALSE</anamorphic>
                            <pixelaspectratio>square</pixelaspectratio>
                            <fielddominance>none</fielddominance>
                            <width>1993</width>
                            <height>1300</height>
                          </samplecharacteristics>
                        </video>
                      </media>
                    </file>
                  </clipitem>
                </track>
              </video>
            </media>
          </clip>
          <clip explodedTracks="true" frameBlend="FALSE" id="masterclip-41">
            <uuid>d5016f7e-f9ea-4201-b445-70a5e75603d0</uuid>
            <masterclipid>masterclip-41</masterclipid>
            <ismasterclip>TRUE</ismasterclip>
            <duration>129</duration>
            <in>0</in>
            <out>129</out>
            <name>CH_BreatheFence_B.png.39.png</name>
            <rate>
              <timebase>12</timebase>
              <ntsc>FALSE</ntsc>
            </rate>
            <media>
              <video>
                <track>
                  <clipitem frameBlend="FALSE" id="clipitem-42">
                    <name>CH_BreatheFence_B.png.39.png</name>
                    <masterclipid>masterclip-41</masterclipid>
                    <rate>
                      <timebase>12</timebase>
                      <ntsc>FALSE</ntsc>
                    </rate>
                    <alphatype>straight</alphatype>
                    <pixelaspectratio>square</pixelaspectratio>
                    <anamorphic>FALSE</anamorphic>
                    <file id="file-41">
                      <name>CH_BreatheFence_B.png.39.png</name>
                      <pathurl>file://localhost/Users/MAK/Dropbox/4thBoxAssets/CA_files_by_Character/BreatheFacingFence/CH_BreatheFence_B.png/CH_BreatheFence_B.png.39.png</pathurl>
                      <rate>
                        <timebase>12</timebase>
                        <ntsc>FALSE</ntsc>
                      </rate>
                      <duration>129</duration>
                      <timecode>
                        <rate>
                          <timebase>12</timebase>
                          <ntsc>FALSE</ntsc>
                        </rate>
                      </timecode>
                      <media>
                        <video>
                          <duration>1</duration>
                          <samplecharacteristics>
                            <anamorphic>FALSE</anamorphic>
                            <pixelaspectratio>square</pixelaspectratio>
                            <fielddominance>none</fielddominance>
                            <width>1993</width>
                            <height>1300</height>
                          </samplecharacteristics>
                        </video>
                      </media>
                    </file>
                  </clipitem>
                </track>
              </video>
            </media>
          </clip>
          <clip explodedTracks="true" frameBlend="FALSE" id="masterclip-42">
            <uuid>6774fc3f-7010-4e76-abfa-30b595ae6e1a</uuid>
            <masterclipid>masterclip-42</masterclipid>
            <ismasterclip>TRUE</ismasterclip>
            <duration>129</duration>
            <in>0</in>
            <out>129</out>
            <name>CH_BreatheFence_B.png.40.png</name>
            <rate>
              <timebase>12</timebase>
              <ntsc>FALSE</ntsc>
            </rate>
            <media>
              <video>
                <track>
                  <clipitem frameBlend="FALSE" id="clipitem-43">
                    <name>CH_BreatheFence_B.png.40.png</name>
                    <masterclipid>masterclip-42</masterclipid>
                    <rate>
                      <timebase>12</timebase>
                      <ntsc>FALSE</ntsc>
                    </rate>
                    <alphatype>straight</alphatype>
                    <pixelaspectratio>square</pixelaspectratio>
                    <anamorphic>FALSE</anamorphic>
                    <file id="file-42">
                      <name>CH_BreatheFence_B.png.40.png</name>
                      <pathurl>file://localhost/Users/MAK/Dropbox/4thBoxAssets/CA_files_by_Character/BreatheFacingFence/CH_BreatheFence_B.png/CH_BreatheFence_B.png.40.png</pathurl>
                      <rate>
                        <timebase>12</timebase>
                        <ntsc>FALSE</ntsc>
                      </rate>
                      <duration>129</duration>
                      <timecode>
                        <rate>
                          <timebase>12</timebase>
                          <ntsc>FALSE</ntsc>
                        </rate>
                      </timecode>
                      <media>
                        <video>
                          <duration>1</duration>
                          <samplecharacteristics>
                            <anamorphic>FALSE</anamorphic>
                            <pixelaspectratio>square</pixelaspectratio>
                            <fielddominance>none</fielddominance>
                            <width>1993</width>
                            <height>1300</height>
                          </samplecharacteristics>
                        </video>
                      </media>
                    </file>
                  </clipitem>
                </track>
              </video>
            </media>
          </clip>
          <clip explodedTracks="true" frameBlend="FALSE" id="masterclip-43">
            <uuid>806c2246-dbb1-45bc-9d8d-37fe306f0853</uuid>
            <masterclipid>masterclip-43</masterclipid>
            <ismasterclip>TRUE</ismasterclip>
            <duration>129</duration>
            <in>0</in>
            <out>129</out>
            <name>CH_BreatheFence_B.png.41.png</name>
            <rate>
              <timebase>12</timebase>
              <ntsc>FALSE</ntsc>
            </rate>
            <media>
              <video>
                <track>
                  <clipitem frameBlend="FALSE" id="clipitem-44">
                    <name>CH_BreatheFence_B.png.41.png</name>
                    <masterclipid>masterclip-43</masterclipid>
                    <rate>
                      <timebase>12</timebase>
                      <ntsc>FALSE</ntsc>
                    </rate>
                    <alphatype>straight</alphatype>
                    <pixelaspectratio>square</pixelaspectratio>
                    <anamorphic>FALSE</anamorphic>
                    <file id="file-43">
                      <name>CH_BreatheFence_B.png.41.png</name>
                      <pathurl>file://localhost/Users/MAK/Dropbox/4thBoxAssets/CA_files_by_Character/BreatheFacingFence/CH_BreatheFence_B.png/CH_BreatheFence_B.png.41.png</pathurl>
                      <rate>
                        <timebase>12</timebase>
                        <ntsc>FALSE</ntsc>
                      </rate>
                      <duration>129</duration>
                      <timecode>
                        <rate>
                          <timebase>12</timebase>
                          <ntsc>FALSE</ntsc>
                        </rate>
                      </timecode>
                      <media>
                        <video>
                          <duration>1</duration>
                          <samplecharacteristics>
                            <anamorphic>FALSE</anamorphic>
                            <pixelaspectratio>square</pixelaspectratio>
                            <fielddominance>none</fielddominance>
                            <width>1993</width>
                            <height>1300</height>
                          </samplecharacteristics>
                        </video>
                      </media>
                    </file>
                  </clipitem>
                </track>
              </video>
            </media>
          </clip>
          <clip explodedTracks="true" frameBlend="FALSE" id="masterclip-44">
            <uuid>84df8366-5d95-472c-ab44-d4c6cf0cb0e8</uuid>
            <masterclipid>masterclip-44</masterclipid>
            <ismasterclip>TRUE</ismasterclip>
            <duration>129</duration>
            <in>0</in>
            <out>129</out>
            <name>CH_BreatheFence_B.png.42.png</name>
            <rate>
              <timebase>12</timebase>
              <ntsc>FALSE</ntsc>
            </rate>
            <media>
              <video>
                <track>
                  <clipitem frameBlend="FALSE" id="clipitem-45">
                    <name>CH_BreatheFence_B.png.42.png</name>
                    <masterclipid>masterclip-44</masterclipid>
                    <rate>
                      <timebase>12</timebase>
                      <ntsc>FALSE</ntsc>
                    </rate>
                    <alphatype>straight</alphatype>
                    <pixelaspectratio>square</pixelaspectratio>
                    <anamorphic>FALSE</anamorphic>
                    <file id="file-44">
                      <name>CH_BreatheFence_B.png.42.png</name>
                      <pathurl>file://localhost/Users/MAK/Dropbox/4thBoxAssets/CA_files_by_Character/BreatheFacingFence/CH_BreatheFence_B.png/CH_BreatheFence_B.png.42.png</pathurl>
                      <rate>
                        <timebase>12</timebase>
                        <ntsc>FALSE</ntsc>
                      </rate>
                      <duration>129</duration>
                      <timecode>
                        <rate>
                          <timebase>12</timebase>
                          <ntsc>FALSE</ntsc>
                        </rate>
                      </timecode>
                      <media>
                        <video>
                          <duration>1</duration>
                          <samplecharacteristics>
                            <anamorphic>FALSE</anamorphic>
                            <pixelaspectratio>square</pixelaspectratio>
                            <fielddominance>none</fielddominance>
                            <width>1993</width>
                            <height>1300</height>
                          </samplecharacteristics>
                        </video>
                      </media>
                    </file>
                  </clipitem>
                </track>
              </video>
            </media>
          </clip>
          <clip explodedTracks="true" frameBlend="FALSE" id="masterclip-45">
            <uuid>1ab3d0ec-4c8e-4efc-b16b-e950867d0445</uuid>
            <masterclipid>masterclip-45</masterclipid>
            <ismasterclip>TRUE</ismasterclip>
            <duration>129</duration>
            <in>0</in>
            <out>129</out>
            <name>CH_BreatheFence_B.png.43.png</name>
            <rate>
              <timebase>12</timebase>
              <ntsc>FALSE</ntsc>
            </rate>
            <media>
              <video>
                <track>
                  <clipitem frameBlend="FALSE" id="clipitem-46">
                    <name>CH_BreatheFence_B.png.43.png</name>
                    <masterclipid>masterclip-45</masterclipid>
                    <rate>
                      <timebase>12</timebase>
                      <ntsc>FALSE</ntsc>
                    </rate>
                    <alphatype>straight</alphatype>
                    <pixelaspectratio>square</pixelaspectratio>
                    <anamorphic>FALSE</anamorphic>
                    <file id="file-45">
                      <name>CH_BreatheFence_B.png.43.png</name>
                      <pathurl>file://localhost/Users/MAK/Dropbox/4thBoxAssets/CA_files_by_Character/BreatheFacingFence/CH_BreatheFence_B.png/CH_BreatheFence_B.png.43.png</pathurl>
                      <rate>
                        <timebase>12</timebase>
                        <ntsc>FALSE</ntsc>
                      </rate>
                      <duration>129</duration>
                      <timecode>
                        <rate>
                          <timebase>12</timebase>
                          <ntsc>FALSE</ntsc>
                        </rate>
                      </timecode>
                      <media>
                        <video>
                          <duration>1</duration>
                          <samplecharacteristics>
                            <anamorphic>FALSE</anamorphic>
                            <pixelaspectratio>square</pixelaspectratio>
                            <fielddominance>none</fielddominance>
                            <width>1993</width>
                            <height>1300</height>
                          </samplecharacteristics>
                        </video>
                      </media>
                    </file>
                  </clipitem>
                </track>
              </video>
            </media>
          </clip>
          <clip explodedTracks="true" frameBlend="FALSE" id="masterclip-46">
            <uuid>5e438abe-8f10-4267-9c37-a4e4177848dd</uuid>
            <masterclipid>masterclip-46</masterclipid>
            <ismasterclip>TRUE</ismasterclip>
            <duration>129</duration>
            <in>0</in>
            <out>129</out>
            <name>CH_BreatheFence_B.png.44.png</name>
            <rate>
              <timebase>12</timebase>
              <ntsc>FALSE</ntsc>
            </rate>
            <media>
              <video>
                <track>
                  <clipitem frameBlend="FALSE" id="clipitem-47">
                    <name>CH_BreatheFence_B.png.44.png</name>
                    <masterclipid>masterclip-46</masterclipid>
                    <rate>
                      <timebase>12</timebase>
                      <ntsc>FALSE</ntsc>
                    </rate>
                    <alphatype>straight</alphatype>
                    <pixelaspectratio>square</pixelaspectratio>
                    <anamorphic>FALSE</anamorphic>
                    <file id="file-46">
                      <name>CH_BreatheFence_B.png.44.png</name>
                      <pathurl>file://localhost/Users/MAK/Dropbox/4thBoxAssets/CA_files_by_Character/BreatheFacingFence/CH_BreatheFence_B.png/CH_BreatheFence_B.png.44.png</pathurl>
                      <rate>
                        <timebase>12</timebase>
                        <ntsc>FALSE</ntsc>
                      </rate>
                      <duration>129</duration>
                      <timecode>
                        <rate>
                          <timebase>12</timebase>
                          <ntsc>FALSE</ntsc>
                        </rate>
                      </timecode>
                      <media>
                        <video>
                          <duration>1</duration>
                          <samplecharacteristics>
                            <anamorphic>FALSE</anamorphic>
                            <pixelaspectratio>square</pixelaspectratio>
                            <fielddominance>none</fielddominance>
                            <width>1993</width>
                            <height>1300</height>
                          </samplecharacteristics>
                        </video>
                      </media>
                    </file>
                  </clipitem>
                </track>
              </video>
            </media>
          </clip>
          <clip explodedTracks="true" frameBlend="FALSE" id="masterclip-47">
            <uuid>58ebb064-5c5e-4b40-b3f2-06babd8a1cc6</uuid>
            <masterclipid>masterclip-47</masterclipid>
            <ismasterclip>TRUE</ismasterclip>
            <duration>129</duration>
            <in>0</in>
            <out>129</out>
            <name>CH_BreatheFence_B.png.45.png</name>
            <rate>
              <timebase>12</timebase>
              <ntsc>FALSE</ntsc>
            </rate>
            <media>
              <video>
                <track>
                  <clipitem frameBlend="FALSE" id="clipitem-48">
                    <name>CH_BreatheFence_B.png.45.png</name>
                    <masterclipid>masterclip-47</masterclipid>
                    <rate>
                      <timebase>12</timebase>
                      <ntsc>FALSE</ntsc>
                    </rate>
                    <alphatype>straight</alphatype>
                    <pixelaspectratio>square</pixelaspectratio>
                    <anamorphic>FALSE</anamorphic>
                    <file id="file-47">
                      <name>CH_BreatheFence_B.png.45.png</name>
                      <pathurl>file://localhost/Users/MAK/Dropbox/4thBoxAssets/CA_files_by_Character/BreatheFacingFence/CH_BreatheFence_B.png/CH_BreatheFence_B.png.45.png</pathurl>
                      <rate>
                        <timebase>12</timebase>
                        <ntsc>FALSE</ntsc>
                      </rate>
                      <duration>129</duration>
                      <timecode>
                        <rate>
                          <timebase>12</timebase>
                          <ntsc>FALSE</ntsc>
                        </rate>
                      </timecode>
                      <media>
                        <video>
                          <duration>1</duration>
                          <samplecharacteristics>
                            <anamorphic>FALSE</anamorphic>
                            <pixelaspectratio>square</pixelaspectratio>
                            <fielddominance>none</fielddominance>
                            <width>1993</width>
                            <height>1300</height>
                          </samplecharacteristics>
                        </video>
                      </media>
                    </file>
                  </clipitem>
                </track>
              </video>
            </media>
          </clip>
          <clip explodedTracks="true" frameBlend="FALSE" id="masterclip-48">
            <uuid>a7c129ed-c303-450e-a7e9-bf4d985a0738</uuid>
            <masterclipid>masterclip-48</masterclipid>
            <ismasterclip>TRUE</ismasterclip>
            <duration>129</duration>
            <in>0</in>
            <out>129</out>
            <name>CH_BreatheFence_B.png.46.png</name>
            <rate>
              <timebase>12</timebase>
              <ntsc>FALSE</ntsc>
            </rate>
            <media>
              <video>
                <track>
                  <clipitem frameBlend="FALSE" id="clipitem-49">
                    <name>CH_BreatheFence_B.png.46.png</name>
                    <masterclipid>masterclip-48</masterclipid>
                    <rate>
                      <timebase>12</timebase>
                      <ntsc>FALSE</ntsc>
                    </rate>
                    <alphatype>straight</alphatype>
                    <pixelaspectratio>square</pixelaspectratio>
                    <anamorphic>FALSE</anamorphic>
                    <file id="file-48">
                      <name>CH_BreatheFence_B.png.46.png</name>
                      <pathurl>file://localhost/Users/MAK/Dropbox/4thBoxAssets/CA_files_by_Character/BreatheFacingFence/CH_BreatheFence_B.png/CH_BreatheFence_B.png.46.png</pathurl>
                      <rate>
                        <timebase>12</timebase>
                        <ntsc>FALSE</ntsc>
                      </rate>
                      <duration>129</duration>
                      <timecode>
                        <rate>
                          <timebase>12</timebase>
                          <ntsc>FALSE</ntsc>
                        </rate>
                      </timecode>
                      <media>
                        <video>
                          <duration>1</duration>
                          <samplecharacteristics>
                            <anamorphic>FALSE</anamorphic>
                            <pixelaspectratio>square</pixelaspectratio>
                            <fielddominance>none</fielddominance>
                            <width>1993</width>
                            <height>1300</height>
                          </samplecharacteristics>
                        </video>
                      </media>
                    </file>
                  </clipitem>
                </track>
              </video>
            </media>
          </clip>
          <clip explodedTracks="true" frameBlend="FALSE" id="masterclip-49">
            <uuid>335d39b3-a115-4bdf-b43b-96ac94fd5e7c</uuid>
            <masterclipid>masterclip-49</masterclipid>
            <ismasterclip>TRUE</ismasterclip>
            <duration>129</duration>
            <in>0</in>
            <out>129</out>
            <name>CH_BreatheFence_B.png.47.png</name>
            <rate>
              <timebase>12</timebase>
              <ntsc>FALSE</ntsc>
            </rate>
            <media>
              <video>
                <track>
                  <clipitem frameBlend="FALSE" id="clipitem-50">
                    <name>CH_BreatheFence_B.png.47.png</name>
                    <masterclipid>masterclip-49</masterclipid>
                    <rate>
                      <timebase>12</timebase>
                      <ntsc>FALSE</ntsc>
                    </rate>
                    <alphatype>straight</alphatype>
                    <pixelaspectratio>square</pixelaspectratio>
                    <anamorphic>FALSE</anamorphic>
                    <file id="file-49">
                      <name>CH_BreatheFence_B.png.47.png</name>
                      <pathurl>file://localhost/Users/MAK/Dropbox/4thBoxAssets/CA_files_by_Character/BreatheFacingFence/CH_BreatheFence_B.png/CH_BreatheFence_B.png.47.png</pathurl>
                      <rate>
                        <timebase>12</timebase>
                        <ntsc>FALSE</ntsc>
                      </rate>
                      <duration>129</duration>
                      <timecode>
                        <rate>
                          <timebase>12</timebase>
                          <ntsc>FALSE</ntsc>
                        </rate>
                      </timecode>
                      <media>
                        <video>
                          <duration>1</duration>
                          <samplecharacteristics>
                            <anamorphic>FALSE</anamorphic>
                            <pixelaspectratio>square</pixelaspectratio>
                            <fielddominance>none</fielddominance>
                            <width>1993</width>
                            <height>1300</height>
                          </samplecharacteristics>
                        </video>
                      </media>
                    </file>
                  </clipitem>
                </track>
              </video>
            </media>
          </clip>
          <clip explodedTracks="true" frameBlend="FALSE" id="masterclip-50">
            <uuid>fa0452ff-4177-4930-94c8-ebacf5aea2ce</uuid>
            <masterclipid>masterclip-50</masterclipid>
            <ismasterclip>TRUE</ismasterclip>
            <duration>129</duration>
            <in>0</in>
            <out>129</out>
            <name>CH_BreatheFence_B.png.48.png</name>
            <rate>
              <timebase>12</timebase>
              <ntsc>FALSE</ntsc>
            </rate>
            <media>
              <video>
                <track>
                  <clipitem frameBlend="FALSE" id="clipitem-51">
                    <name>CH_BreatheFence_B.png.48.png</name>
                    <masterclipid>masterclip-50</masterclipid>
                    <rate>
                      <timebase>12</timebase>
                      <ntsc>FALSE</ntsc>
                    </rate>
                    <alphatype>straight</alphatype>
                    <pixelaspectratio>square</pixelaspectratio>
                    <anamorphic>FALSE</anamorphic>
                    <file id="file-50">
                      <name>CH_BreatheFence_B.png.48.png</name>
                      <pathurl>file://localhost/Users/MAK/Dropbox/4thBoxAssets/CA_files_by_Character/BreatheFacingFence/CH_BreatheFence_B.png/CH_BreatheFence_B.png.48.png</pathurl>
                      <rate>
                        <timebase>12</timebase>
                        <ntsc>FALSE</ntsc>
                      </rate>
                      <duration>129</duration>
                      <timecode>
                        <rate>
                          <timebase>12</timebase>
                          <ntsc>FALSE</ntsc>
                        </rate>
                      </timecode>
                      <media>
                        <video>
                          <duration>1</duration>
                          <samplecharacteristics>
                            <anamorphic>FALSE</anamorphic>
                            <pixelaspectratio>square</pixelaspectratio>
                            <fielddominance>none</fielddominance>
                            <width>1993</width>
                            <height>1300</height>
                          </samplecharacteristics>
                        </video>
                      </media>
                    </file>
                  </clipitem>
                </track>
              </video>
            </media>
          </clip>
          <clip explodedTracks="true" frameBlend="FALSE" id="masterclip-51">
            <uuid>dbb4dc7d-6646-4c7e-acc1-e4d4ed6814ac</uuid>
            <masterclipid>masterclip-51</masterclipid>
            <ismasterclip>TRUE</ismasterclip>
            <duration>129</duration>
            <in>0</in>
            <out>129</out>
            <name>CH_BreatheFence_B.png.49.png</name>
            <rate>
              <timebase>12</timebase>
              <ntsc>FALSE</ntsc>
            </rate>
            <media>
              <video>
                <track>
                  <clipitem frameBlend="FALSE" id="clipitem-52">
                    <name>CH_BreatheFence_B.png.49.png</name>
                    <masterclipid>masterclip-51</masterclipid>
                    <rate>
                      <timebase>12</timebase>
                      <ntsc>FALSE</ntsc>
                    </rate>
                    <alphatype>straight</alphatype>
                    <pixelaspectratio>square</pixelaspectratio>
                    <anamorphic>FALSE</anamorphic>
                    <file id="file-51">
                      <name>CH_BreatheFence_B.png.49.png</name>
                      <pathurl>file://localhost/Users/MAK/Dropbox/4thBoxAssets/CA_files_by_Character/BreatheFacingFence/CH_BreatheFence_B.png/CH_BreatheFence_B.png.49.png</pathurl>
                      <rate>
                        <timebase>12</timebase>
                        <ntsc>FALSE</ntsc>
                      </rate>
                      <duration>129</duration>
                      <timecode>
                        <rate>
                          <timebase>12</timebase>
                          <ntsc>FALSE</ntsc>
                        </rate>
                      </timecode>
                      <media>
                        <video>
                          <duration>1</duration>
                          <samplecharacteristics>
                            <anamorphic>FALSE</anamorphic>
                            <pixelaspectratio>square</pixelaspectratio>
                            <fielddominance>none</fielddominance>
                            <width>1993</width>
                            <height>1300</height>
                          </samplecharacteristics>
                        </video>
                      </media>
                    </file>
                  </clipitem>
                </track>
              </video>
            </media>
          </clip>
          <clip explodedTracks="true" frameBlend="FALSE" id="masterclip-52">
            <uuid>4ad37613-41d8-4dc7-9560-38baed8fa3c4</uuid>
            <masterclipid>masterclip-52</masterclipid>
            <ismasterclip>TRUE</ismasterclip>
            <duration>129</duration>
            <in>0</in>
            <out>129</out>
            <name>CH_BreatheFence_B.png.50.png</name>
            <rate>
              <timebase>12</timebase>
              <ntsc>FALSE</ntsc>
            </rate>
            <media>
              <video>
                <track>
                  <clipitem frameBlend="FALSE" id="clipitem-53">
                    <name>CH_BreatheFence_B.png.50.png</name>
                    <masterclipid>masterclip-52</masterclipid>
                    <rate>
                      <timebase>12</timebase>
                      <ntsc>FALSE</ntsc>
                    </rate>
                    <alphatype>straight</alphatype>
                    <pixelaspectratio>square</pixelaspectratio>
                    <anamorphic>FALSE</anamorphic>
                    <file id="file-52">
                      <name>CH_BreatheFence_B.png.50.png</name>
                      <pathurl>file://localhost/Users/MAK/Dropbox/4thBoxAssets/CA_files_by_Character/BreatheFacingFence/CH_BreatheFence_B.png/CH_BreatheFence_B.png.50.png</pathurl>
                      <rate>
                        <timebase>12</timebase>
                        <ntsc>FALSE</ntsc>
                      </rate>
                      <duration>129</duration>
                      <timecode>
                        <rate>
                          <timebase>12</timebase>
                          <ntsc>FALSE</ntsc>
                        </rate>
                      </timecode>
                      <media>
                        <video>
                          <duration>1</duration>
                          <samplecharacteristics>
                            <anamorphic>FALSE</anamorphic>
                            <pixelaspectratio>square</pixelaspectratio>
                            <fielddominance>none</fielddominance>
                            <width>1993</width>
                            <height>1300</height>
                          </samplecharacteristics>
                        </video>
                      </media>
                    </file>
                  </clipitem>
                </track>
              </video>
            </media>
          </clip>
          <clip explodedTracks="true" frameBlend="FALSE" id="masterclip-53">
            <uuid>a36f81ae-90b1-473c-95ab-02e5b432e865</uuid>
            <masterclipid>masterclip-53</masterclipid>
            <ismasterclip>TRUE</ismasterclip>
            <duration>129</duration>
            <in>0</in>
            <out>129</out>
            <name>CH_BreatheFence_B.png.51.png</name>
            <rate>
              <timebase>12</timebase>
              <ntsc>FALSE</ntsc>
            </rate>
            <media>
              <video>
                <track>
                  <clipitem frameBlend="FALSE" id="clipitem-54">
                    <name>CH_BreatheFence_B.png.51.png</name>
                    <masterclipid>masterclip-53</masterclipid>
                    <rate>
                      <timebase>12</timebase>
                      <ntsc>FALSE</ntsc>
                    </rate>
                    <alphatype>straight</alphatype>
                    <pixelaspectratio>square</pixelaspectratio>
                    <anamorphic>FALSE</anamorphic>
                    <file id="file-53">
                      <name>CH_BreatheFence_B.png.51.png</name>
                      <pathurl>file://localhost/Users/MAK/Dropbox/4thBoxAssets/CA_files_by_Character/BreatheFacingFence/CH_BreatheFence_B.png/CH_BreatheFence_B.png.51.png</pathurl>
                      <rate>
                        <timebase>12</timebase>
                        <ntsc>FALSE</ntsc>
                      </rate>
                      <duration>129</duration>
                      <timecode>
                        <rate>
                          <timebase>12</timebase>
                          <ntsc>FALSE</ntsc>
                        </rate>
                      </timecode>
                      <media>
                        <video>
                          <duration>1</duration>
                          <samplecharacteristics>
                            <anamorphic>FALSE</anamorphic>
                            <pixelaspectratio>square</pixelaspectratio>
                            <fielddominance>none</fielddominance>
                            <width>1993</width>
                            <height>1300</height>
                          </samplecharacteristics>
                        </video>
                      </media>
                    </file>
                  </clipitem>
                </track>
              </video>
            </media>
          </clip>
          <clip explodedTracks="true" frameBlend="FALSE" id="masterclip-54">
            <uuid>c32831c9-8dc7-442e-ba92-63f0451ca5f5</uuid>
            <masterclipid>masterclip-54</masterclipid>
            <ismasterclip>TRUE</ismasterclip>
            <duration>129</duration>
            <in>0</in>
            <out>129</out>
            <name>CH_BreatheFence_B.png.52.png</name>
            <rate>
              <timebase>12</timebase>
              <ntsc>FALSE</ntsc>
            </rate>
            <media>
              <video>
                <track>
                  <clipitem frameBlend="FALSE" id="clipitem-55">
                    <name>CH_BreatheFence_B.png.52.png</name>
                    <masterclipid>masterclip-54</masterclipid>
                    <rate>
                      <timebase>12</timebase>
                      <ntsc>FALSE</ntsc>
                    </rate>
                    <alphatype>straight</alphatype>
                    <pixelaspectratio>square</pixelaspectratio>
                    <anamorphic>FALSE</anamorphic>
                    <file id="file-54">
                      <name>CH_BreatheFence_B.png.52.png</name>
                      <pathurl>file://localhost/Users/MAK/Dropbox/4thBoxAssets/CA_files_by_Character/BreatheFacingFence/CH_BreatheFence_B.png/CH_BreatheFence_B.png.52.png</pathurl>
                      <rate>
                        <timebase>12</timebase>
                        <ntsc>FALSE</ntsc>
                      </rate>
                      <duration>129</duration>
                      <timecode>
                        <rate>
                          <timebase>12</timebase>
                          <ntsc>FALSE</ntsc>
                        </rate>
                      </timecode>
                      <media>
                        <video>
                          <duration>1</duration>
                          <samplecharacteristics>
                            <anamorphic>FALSE</anamorphic>
                            <pixelaspectratio>square</pixelaspectratio>
                            <fielddominance>none</fielddominance>
                            <width>1993</width>
                            <height>1300</height>
                          </samplecharacteristics>
                        </video>
                      </media>
                    </file>
                  </clipitem>
                </track>
              </video>
            </media>
          </clip>
          <clip explodedTracks="true" frameBlend="FALSE" id="masterclip-55">
            <uuid>29661a78-bb7c-41d4-998d-340103095a5a</uuid>
            <masterclipid>masterclip-55</masterclipid>
            <ismasterclip>TRUE</ismasterclip>
            <duration>129</duration>
            <in>0</in>
            <out>129</out>
            <name>CH_BreatheFence_B.png.53.png</name>
            <rate>
              <timebase>12</timebase>
              <ntsc>FALSE</ntsc>
            </rate>
            <media>
              <video>
                <track>
                  <clipitem frameBlend="FALSE" id="clipitem-56">
                    <name>CH_BreatheFence_B.png.53.png</name>
                    <masterclipid>masterclip-55</masterclipid>
                    <rate>
                      <timebase>12</timebase>
                      <ntsc>FALSE</ntsc>
                    </rate>
                    <alphatype>straight</alphatype>
                    <pixelaspectratio>square</pixelaspectratio>
                    <anamorphic>FALSE</anamorphic>
                    <file id="file-55">
                      <name>CH_BreatheFence_B.png.53.png</name>
                      <pathurl>file://localhost/Users/MAK/Dropbox/4thBoxAssets/CA_files_by_Character/BreatheFacingFence/CH_BreatheFence_B.png/CH_BreatheFence_B.png.53.png</pathurl>
                      <rate>
                        <timebase>12</timebase>
                        <ntsc>FALSE</ntsc>
                      </rate>
                      <duration>129</duration>
                      <timecode>
                        <rate>
                          <timebase>12</timebase>
                          <ntsc>FALSE</ntsc>
                        </rate>
                      </timecode>
                      <media>
                        <video>
                          <duration>1</duration>
                          <samplecharacteristics>
                            <anamorphic>FALSE</anamorphic>
                            <pixelaspectratio>square</pixelaspectratio>
                            <fielddominance>none</fielddominance>
                            <width>1993</width>
                            <height>1300</height>
                          </samplecharacteristics>
                        </video>
                      </media>
                    </file>
                  </clipitem>
                </track>
              </video>
            </media>
          </clip>
          <clip explodedTracks="true" frameBlend="FALSE" id="masterclip-56">
            <uuid>95b03138-dad7-4e8c-87ca-b73155784278</uuid>
            <masterclipid>masterclip-56</masterclipid>
            <ismasterclip>TRUE</ismasterclip>
            <duration>129</duration>
            <in>0</in>
            <out>129</out>
            <name>CH_BreatheFence_B.png.54.png</name>
            <rate>
              <timebase>12</timebase>
              <ntsc>FALSE</ntsc>
            </rate>
            <media>
              <video>
                <track>
                  <clipitem frameBlend="FALSE" id="clipitem-57">
                    <name>CH_BreatheFence_B.png.54.png</name>
                    <masterclipid>masterclip-56</masterclipid>
                    <rate>
                      <timebase>12</timebase>
                      <ntsc>FALSE</ntsc>
                    </rate>
                    <alphatype>straight</alphatype>
                    <pixelaspectratio>square</pixelaspectratio>
                    <anamorphic>FALSE</anamorphic>
                    <file id="file-56">
                      <name>CH_BreatheFence_B.png.54.png</name>
                      <pathurl>file://localhost/Users/MAK/Dropbox/4thBoxAssets/CA_files_by_Character/BreatheFacingFence/CH_BreatheFence_B.png/CH_BreatheFence_B.png.54.png</pathurl>
                      <rate>
                        <timebase>12</timebase>
                        <ntsc>FALSE</ntsc>
                      </rate>
                      <duration>129</duration>
                      <timecode>
                        <rate>
                          <timebase>12</timebase>
                          <ntsc>FALSE</ntsc>
                        </rate>
                      </timecode>
                      <media>
                        <video>
                          <duration>1</duration>
                          <samplecharacteristics>
                            <anamorphic>FALSE</anamorphic>
                            <pixelaspectratio>square</pixelaspectratio>
                            <fielddominance>none</fielddominance>
                            <width>1993</width>
                            <height>1300</height>
                          </samplecharacteristics>
                        </video>
                      </media>
                    </file>
                  </clipitem>
                </track>
              </video>
            </media>
          </clip>
          <clip explodedTracks="true" frameBlend="FALSE" id="masterclip-57">
            <uuid>20c02799-713f-40df-84fb-db6c147c88a4</uuid>
            <masterclipid>masterclip-57</masterclipid>
            <ismasterclip>TRUE</ismasterclip>
            <duration>129</duration>
            <in>0</in>
            <out>129</out>
            <name>CH_BreatheFence_B.png.55.png</name>
            <rate>
              <timebase>12</timebase>
              <ntsc>FALSE</ntsc>
            </rate>
            <media>
              <video>
                <track>
                  <clipitem frameBlend="FALSE" id="clipitem-58">
                    <name>CH_BreatheFence_B.png.55.png</name>
                    <masterclipid>masterclip-57</masterclipid>
                    <rate>
                      <timebase>12</timebase>
                      <ntsc>FALSE</ntsc>
                    </rate>
                    <alphatype>straight</alphatype>
                    <pixelaspectratio>square</pixelaspectratio>
                    <anamorphic>FALSE</anamorphic>
                    <file id="file-57">
                      <name>CH_BreatheFence_B.png.55.png</name>
                      <pathurl>file://localhost/Users/MAK/Dropbox/4thBoxAssets/CA_files_by_Character/BreatheFacingFence/CH_BreatheFence_B.png/CH_BreatheFence_B.png.55.png</pathurl>
                      <rate>
                        <timebase>12</timebase>
                        <ntsc>FALSE</ntsc>
                      </rate>
                      <duration>129</duration>
                      <timecode>
                        <rate>
                          <timebase>12</timebase>
                          <ntsc>FALSE</ntsc>
                        </rate>
                      </timecode>
                      <media>
                        <video>
                          <duration>1</duration>
                          <samplecharacteristics>
                            <anamorphic>FALSE</anamorphic>
                            <pixelaspectratio>square</pixelaspectratio>
                            <fielddominance>none</fielddominance>
                            <width>1993</width>
                            <height>1300</height>
                          </samplecharacteristics>
                        </video>
                      </media>
                    </file>
                  </clipitem>
                </track>
              </video>
            </media>
          </clip>
          <clip explodedTracks="true" frameBlend="FALSE" id="masterclip-58">
            <uuid>a3772fb5-2999-49e0-83b5-fa43646959fd</uuid>
            <masterclipid>masterclip-58</masterclipid>
            <ismasterclip>TRUE</ismasterclip>
            <duration>129</duration>
            <in>0</in>
            <out>129</out>
            <name>CH_BreatheFence_B.png.56.png</name>
            <rate>
              <timebase>12</timebase>
              <ntsc>FALSE</ntsc>
            </rate>
            <media>
              <video>
                <track>
                  <clipitem frameBlend="FALSE" id="clipitem-59">
                    <name>CH_BreatheFence_B.png.56.png</name>
                    <masterclipid>masterclip-58</masterclipid>
                    <rate>
                      <timebase>12</timebase>
                      <ntsc>FALSE</ntsc>
                    </rate>
                    <alphatype>straight</alphatype>
                    <pixelaspectratio>square</pixelaspectratio>
                    <anamorphic>FALSE</anamorphic>
                    <file id="file-58">
                      <name>CH_BreatheFence_B.png.56.png</name>
                      <pathurl>file://localhost/Users/MAK/Dropbox/4thBoxAssets/CA_files_by_Character/BreatheFacingFence/CH_BreatheFence_B.png/CH_BreatheFence_B.png.56.png</pathurl>
                      <rate>
                        <timebase>12</timebase>
                        <ntsc>FALSE</ntsc>
                      </rate>
                      <duration>129</duration>
                      <timecode>
                        <rate>
                          <timebase>12</timebase>
                          <ntsc>FALSE</ntsc>
                        </rate>
                      </timecode>
                      <media>
                        <video>
                          <duration>1</duration>
                          <samplecharacteristics>
                            <anamorphic>FALSE</anamorphic>
                            <pixelaspectratio>square</pixelaspectratio>
                            <fielddominance>none</fielddominance>
                            <width>1993</width>
                            <height>1300</height>
                          </samplecharacteristics>
                        </video>
                      </media>
                    </file>
                  </clipitem>
                </track>
              </video>
            </media>
          </clip>
          <clip explodedTracks="true" frameBlend="FALSE" id="masterclip-59">
            <uuid>e0cc155c-41e1-418f-9daa-673d90cd4e6e</uuid>
            <masterclipid>masterclip-59</masterclipid>
            <ismasterclip>TRUE</ismasterclip>
            <duration>129</duration>
            <in>0</in>
            <out>129</out>
            <name>CH_BreatheFence_B.png.57.png</name>
            <rate>
              <timebase>12</timebase>
              <ntsc>FALSE</ntsc>
            </rate>
            <media>
              <video>
                <track>
                  <clipitem frameBlend="FALSE" id="clipitem-60">
                    <name>CH_BreatheFence_B.png.57.png</name>
                    <masterclipid>masterclip-59</masterclipid>
                    <rate>
                      <timebase>12</timebase>
                      <ntsc>FALSE</ntsc>
                    </rate>
                    <alphatype>straight</alphatype>
                    <pixelaspectratio>square</pixelaspectratio>
                    <anamorphic>FALSE</anamorphic>
                    <file id="file-59">
                      <name>CH_BreatheFence_B.png.57.png</name>
                      <pathurl>file://localhost/Users/MAK/Dropbox/4thBoxAssets/CA_files_by_Character/BreatheFacingFence/CH_BreatheFence_B.png/CH_BreatheFence_B.png.57.png</pathurl>
                      <rate>
                        <timebase>12</timebase>
                        <ntsc>FALSE</ntsc>
                      </rate>
                      <duration>129</duration>
                      <timecode>
                        <rate>
                          <timebase>12</timebase>
                          <ntsc>FALSE</ntsc>
                        </rate>
                      </timecode>
                      <media>
                        <video>
                          <duration>1</duration>
                          <samplecharacteristics>
                            <anamorphic>FALSE</anamorphic>
                            <pixelaspectratio>square</pixelaspectratio>
                            <fielddominance>none</fielddominance>
                            <width>1993</width>
                            <height>1300</height>
                          </samplecharacteristics>
                        </video>
                      </media>
                    </file>
                  </clipitem>
                </track>
              </video>
            </media>
          </clip>
          <clip explodedTracks="true" frameBlend="FALSE" id="masterclip-60">
            <uuid>4bb7991d-384e-4f00-87be-3fbde2e07348</uuid>
            <masterclipid>masterclip-60</masterclipid>
            <ismasterclip>TRUE</ismasterclip>
            <duration>129</duration>
            <in>0</in>
            <out>129</out>
            <name>CH_BreatheFence_B.png.58.png</name>
            <rate>
              <timebase>12</timebase>
              <ntsc>FALSE</ntsc>
            </rate>
            <media>
              <video>
                <track>
                  <clipitem frameBlend="FALSE" id="clipitem-61">
                    <name>CH_BreatheFence_B.png.58.png</name>
                    <masterclipid>masterclip-60</masterclipid>
                    <rate>
                      <timebase>12</timebase>
                      <ntsc>FALSE</ntsc>
                    </rate>
                    <alphatype>straight</alphatype>
                    <pixelaspectratio>square</pixelaspectratio>
                    <anamorphic>FALSE</anamorphic>
                    <file id="file-60">
                      <name>CH_BreatheFence_B.png.58.png</name>
                      <pathurl>file://localhost/Users/MAK/Dropbox/4thBoxAssets/CA_files_by_Character/BreatheFacingFence/CH_BreatheFence_B.png/CH_BreatheFence_B.png.58.png</pathurl>
                      <rate>
                        <timebase>12</timebase>
                        <ntsc>FALSE</ntsc>
                      </rate>
                      <duration>129</duration>
                      <timecode>
                        <rate>
                          <timebase>12</timebase>
                          <ntsc>FALSE</ntsc>
                        </rate>
                      </timecode>
                      <media>
                        <video>
                          <duration>1</duration>
                          <samplecharacteristics>
                            <anamorphic>FALSE</anamorphic>
                            <pixelaspectratio>square</pixelaspectratio>
                            <fielddominance>none</fielddominance>
                            <width>1993</width>
                            <height>1300</height>
                          </samplecharacteristics>
                        </video>
                      </media>
                    </file>
                  </clipitem>
                </track>
              </video>
            </media>
          </clip>
          <clip explodedTracks="true" frameBlend="FALSE" id="masterclip-61">
            <uuid>b1314e2e-eb76-426e-a235-16059cbdac1c</uuid>
            <masterclipid>masterclip-61</masterclipid>
            <ismasterclip>TRUE</ismasterclip>
            <duration>129</duration>
            <in>0</in>
            <out>129</out>
            <name>CH_BreatheFence_B.png.59.png</name>
            <rate>
              <timebase>12</timebase>
              <ntsc>FALSE</ntsc>
            </rate>
            <media>
              <video>
                <track>
                  <clipitem frameBlend="FALSE" id="clipitem-62">
                    <name>CH_BreatheFence_B.png.59.png</name>
                    <masterclipid>masterclip-61</masterclipid>
                    <rate>
                      <timebase>12</timebase>
                      <ntsc>FALSE</ntsc>
                    </rate>
                    <alphatype>straight</alphatype>
                    <pixelaspectratio>square</pixelaspectratio>
                    <anamorphic>FALSE</anamorphic>
                    <file id="file-61">
                      <name>CH_BreatheFence_B.png.59.png</name>
                      <pathurl>file://localhost/Users/MAK/Dropbox/4thBoxAssets/CA_files_by_Character/BreatheFacingFence/CH_BreatheFence_B.png/CH_BreatheFence_B.png.59.png</pathurl>
                      <rate>
                        <timebase>12</timebase>
                        <ntsc>FALSE</ntsc>
                      </rate>
                      <duration>129</duration>
                      <timecode>
                        <rate>
                          <timebase>12</timebase>
                          <ntsc>FALSE</ntsc>
                        </rate>
                      </timecode>
                      <media>
                        <video>
                          <duration>1</duration>
                          <samplecharacteristics>
                            <anamorphic>FALSE</anamorphic>
                            <pixelaspectratio>square</pixelaspectratio>
                            <fielddominance>none</fielddominance>
                            <width>1993</width>
                            <height>1300</height>
                          </samplecharacteristics>
                        </video>
                      </media>
                    </file>
                  </clipitem>
                </track>
              </video>
            </media>
          </clip>
          <clip explodedTracks="true" frameBlend="FALSE" id="masterclip-62">
            <uuid>2d4c7c31-89f9-4855-8332-c6c434871b05</uuid>
            <masterclipid>masterclip-62</masterclipid>
            <ismasterclip>TRUE</ismasterclip>
            <duration>129</duration>
            <in>0</in>
            <out>129</out>
            <name>CH_BreatheFence_B.png.60.png</name>
            <rate>
              <timebase>12</timebase>
              <ntsc>FALSE</ntsc>
            </rate>
            <media>
              <video>
                <track>
                  <clipitem frameBlend="FALSE" id="clipitem-63">
                    <name>CH_BreatheFence_B.png.60.png</name>
                    <masterclipid>masterclip-62</masterclipid>
                    <rate>
                      <timebase>12</timebase>
                      <ntsc>FALSE</ntsc>
                    </rate>
                    <alphatype>straight</alphatype>
                    <pixelaspectratio>square</pixelaspectratio>
                    <anamorphic>FALSE</anamorphic>
                    <file id="file-62">
                      <name>CH_BreatheFence_B.png.60.png</name>
                      <pathurl>file://localhost/Users/MAK/Dropbox/4thBoxAssets/CA_files_by_Character/BreatheFacingFence/CH_BreatheFence_B.png/CH_BreatheFence_B.png.60.png</pathurl>
                      <rate>
                        <timebase>12</timebase>
                        <ntsc>FALSE</ntsc>
                      </rate>
                      <duration>129</duration>
                      <timecode>
                        <rate>
                          <timebase>12</timebase>
                          <ntsc>FALSE</ntsc>
                        </rate>
                      </timecode>
                      <media>
                        <video>
                          <duration>1</duration>
                          <samplecharacteristics>
                            <anamorphic>FALSE</anamorphic>
                            <pixelaspectratio>square</pixelaspectratio>
                            <fielddominance>none</fielddominance>
                            <width>1993</width>
                            <height>1300</height>
                          </samplecharacteristics>
                        </video>
                      </media>
                    </file>
                  </clipitem>
                </track>
              </video>
            </media>
          </clip>
          <clip explodedTracks="true" frameBlend="FALSE" id="masterclip-63">
            <uuid>5759c3ee-c65e-4c25-97d0-7068a5b2698e</uuid>
            <masterclipid>masterclip-63</masterclipid>
            <ismasterclip>TRUE</ismasterclip>
            <duration>129</duration>
            <in>0</in>
            <out>129</out>
            <name>CH_BreatheFence_B.png.61.png</name>
            <rate>
              <timebase>12</timebase>
              <ntsc>FALSE</ntsc>
            </rate>
            <media>
              <video>
                <track>
                  <clipitem frameBlend="FALSE" id="clipitem-64">
                    <name>CH_BreatheFence_B.png.61.png</name>
                    <masterclipid>masterclip-63</masterclipid>
                    <rate>
                      <timebase>12</timebase>
                      <ntsc>FALSE</ntsc>
                    </rate>
                    <alphatype>straight</alphatype>
                    <pixelaspectratio>square</pixelaspectratio>
                    <anamorphic>FALSE</anamorphic>
                    <file id="file-63">
                      <name>CH_BreatheFence_B.png.61.png</name>
                      <pathurl>file://localhost/Users/MAK/Dropbox/4thBoxAssets/CA_files_by_Character/BreatheFacingFence/CH_BreatheFence_B.png/CH_BreatheFence_B.png.61.png</pathurl>
                      <rate>
                        <timebase>12</timebase>
                        <ntsc>FALSE</ntsc>
                      </rate>
                      <duration>129</duration>
                      <timecode>
                        <rate>
                          <timebase>12</timebase>
                          <ntsc>FALSE</ntsc>
                        </rate>
                      </timecode>
                      <media>
                        <video>
                          <duration>1</duration>
                          <samplecharacteristics>
                            <anamorphic>FALSE</anamorphic>
                            <pixelaspectratio>square</pixelaspectratio>
                            <fielddominance>none</fielddominance>
                            <width>1993</width>
                            <height>1300</height>
                          </samplecharacteristics>
                        </video>
                      </media>
                    </file>
                  </clipitem>
                </track>
              </video>
            </media>
          </clip>
          <clip explodedTracks="true" frameBlend="FALSE" id="masterclip-64">
            <uuid>3b203c81-4095-4bb4-8681-2d99b195130e</uuid>
            <masterclipid>masterclip-64</masterclipid>
            <ismasterclip>TRUE</ismasterclip>
            <duration>129</duration>
            <in>0</in>
            <out>129</out>
            <name>CH_BreatheFence_B.png.62.png</name>
            <rate>
              <timebase>12</timebase>
              <ntsc>FALSE</ntsc>
            </rate>
            <media>
              <video>
                <track>
                  <clipitem frameBlend="FALSE" id="clipitem-65">
                    <name>CH_BreatheFence_B.png.62.png</name>
                    <masterclipid>masterclip-64</masterclipid>
                    <rate>
                      <timebase>12</timebase>
                      <ntsc>FALSE</ntsc>
                    </rate>
                    <alphatype>straight</alphatype>
                    <pixelaspectratio>square</pixelaspectratio>
                    <anamorphic>FALSE</anamorphic>
                    <file id="file-64">
                      <name>CH_BreatheFence_B.png.62.png</name>
                      <pathurl>file://localhost/Users/MAK/Dropbox/4thBoxAssets/CA_files_by_Character/BreatheFacingFence/CH_BreatheFence_B.png/CH_BreatheFence_B.png.62.png</pathurl>
                      <rate>
                        <timebase>12</timebase>
                        <ntsc>FALSE</ntsc>
                      </rate>
                      <duration>129</duration>
                      <timecode>
                        <rate>
                          <timebase>12</timebase>
                          <ntsc>FALSE</ntsc>
                        </rate>
                      </timecode>
                      <media>
                        <video>
                          <duration>1</duration>
                          <samplecharacteristics>
                            <anamorphic>FALSE</anamorphic>
                            <pixelaspectratio>square</pixelaspectratio>
                            <fielddominance>none</fielddominance>
                            <width>1993</width>
                            <height>1300</height>
                          </samplecharacteristics>
                        </video>
                      </media>
                    </file>
                  </clipitem>
                </track>
              </video>
            </media>
          </clip>
          <clip explodedTracks="true" frameBlend="FALSE" id="masterclip-65">
            <uuid>58886b25-a63f-423c-abcc-c4a643caac10</uuid>
            <masterclipid>masterclip-65</masterclipid>
            <ismasterclip>TRUE</ismasterclip>
            <duration>129</duration>
            <in>0</in>
            <out>129</out>
            <name>CH_BreatheFence_B.png.63.png</name>
            <rate>
              <timebase>12</timebase>
              <ntsc>FALSE</ntsc>
            </rate>
            <media>
              <video>
                <track>
                  <clipitem frameBlend="FALSE" id="clipitem-66">
                    <name>CH_BreatheFence_B.png.63.png</name>
                    <masterclipid>masterclip-65</masterclipid>
                    <rate>
                      <timebase>12</timebase>
                      <ntsc>FALSE</ntsc>
                    </rate>
                    <alphatype>straight</alphatype>
                    <pixelaspectratio>square</pixelaspectratio>
                    <anamorphic>FALSE</anamorphic>
                    <file id="file-65">
                      <name>CH_BreatheFence_B.png.63.png</name>
                      <pathurl>file://localhost/Users/MAK/Dropbox/4thBoxAssets/CA_files_by_Character/BreatheFacingFence/CH_BreatheFence_B.png/CH_BreatheFence_B.png.63.png</pathurl>
                      <rate>
                        <timebase>12</timebase>
                        <ntsc>FALSE</ntsc>
                      </rate>
                      <duration>129</duration>
                      <timecode>
                        <rate>
                          <timebase>12</timebase>
                          <ntsc>FALSE</ntsc>
                        </rate>
                      </timecode>
                      <media>
                        <video>
                          <duration>1</duration>
                          <samplecharacteristics>
                            <anamorphic>FALSE</anamorphic>
                            <pixelaspectratio>square</pixelaspectratio>
                            <fielddominance>none</fielddominance>
                            <width>1993</width>
                            <height>1300</height>
                          </samplecharacteristics>
                        </video>
                      </media>
                    </file>
                  </clipitem>
                </track>
              </video>
            </media>
          </clip>
          <clip explodedTracks="true" frameBlend="FALSE" id="masterclip-66">
            <uuid>875a7219-a75c-4edb-9372-8533eef7b536</uuid>
            <masterclipid>masterclip-66</masterclipid>
            <ismasterclip>TRUE</ismasterclip>
            <duration>129</duration>
            <in>0</in>
            <out>129</out>
            <name>CH_BreatheFence_B.png.64.png</name>
            <rate>
              <timebase>12</timebase>
              <ntsc>FALSE</ntsc>
            </rate>
            <media>
              <video>
                <track>
                  <clipitem frameBlend="FALSE" id="clipitem-67">
                    <name>CH_BreatheFence_B.png.64.png</name>
                    <masterclipid>masterclip-66</masterclipid>
                    <rate>
                      <timebase>12</timebase>
                      <ntsc>FALSE</ntsc>
                    </rate>
                    <alphatype>straight</alphatype>
                    <pixelaspectratio>square</pixelaspectratio>
                    <anamorphic>FALSE</anamorphic>
                    <file id="file-66">
                      <name>CH_BreatheFence_B.png.64.png</name>
                      <pathurl>file://localhost/Users/MAK/Dropbox/4thBoxAssets/CA_files_by_Character/BreatheFacingFence/CH_BreatheFence_B.png/CH_BreatheFence_B.png.64.png</pathurl>
                      <rate>
                        <timebase>12</timebase>
                        <ntsc>FALSE</ntsc>
                      </rate>
                      <duration>129</duration>
                      <timecode>
                        <rate>
                          <timebase>12</timebase>
                          <ntsc>FALSE</ntsc>
                        </rate>
                      </timecode>
                      <media>
                        <video>
                          <duration>1</duration>
                          <samplecharacteristics>
                            <anamorphic>FALSE</anamorphic>
                            <pixelaspectratio>square</pixelaspectratio>
                            <fielddominance>none</fielddominance>
                            <width>1993</width>
                            <height>1300</height>
                          </samplecharacteristics>
                        </video>
                      </media>
                    </file>
                  </clipitem>
                </track>
              </video>
            </media>
          </clip>
          <clip explodedTracks="true" frameBlend="FALSE" id="masterclip-67">
            <uuid>d2f9bf45-2231-46cc-b3cf-64d9e8ddf605</uuid>
            <masterclipid>masterclip-67</masterclipid>
            <ismasterclip>TRUE</ismasterclip>
            <duration>129</duration>
            <in>0</in>
            <out>129</out>
            <name>CH_BreatheFence_B.png.65.png</name>
            <rate>
              <timebase>12</timebase>
              <ntsc>FALSE</ntsc>
            </rate>
            <media>
              <video>
                <track>
                  <clipitem frameBlend="FALSE" id="clipitem-68">
                    <name>CH_BreatheFence_B.png.65.png</name>
                    <masterclipid>masterclip-67</masterclipid>
                    <rate>
                      <timebase>12</timebase>
                      <ntsc>FALSE</ntsc>
                    </rate>
                    <alphatype>straight</alphatype>
                    <pixelaspectratio>square</pixelaspectratio>
                    <anamorphic>FALSE</anamorphic>
                    <file id="file-67">
                      <name>CH_BreatheFence_B.png.65.png</name>
                      <pathurl>file://localhost/Users/MAK/Dropbox/4thBoxAssets/CA_files_by_Character/BreatheFacingFence/CH_BreatheFence_B.png/CH_BreatheFence_B.png.65.png</pathurl>
                      <rate>
                        <timebase>12</timebase>
                        <ntsc>FALSE</ntsc>
                      </rate>
                      <duration>129</duration>
                      <timecode>
                        <rate>
                          <timebase>12</timebase>
                          <ntsc>FALSE</ntsc>
                        </rate>
                      </timecode>
                      <media>
                        <video>
                          <duration>1</duration>
                          <samplecharacteristics>
                            <anamorphic>FALSE</anamorphic>
                            <pixelaspectratio>square</pixelaspectratio>
                            <fielddominance>none</fielddominance>
                            <width>1993</width>
                            <height>1300</height>
                          </samplecharacteristics>
                        </video>
                      </media>
                    </file>
                  </clipitem>
                </track>
              </video>
            </media>
          </clip>
          <clip explodedTracks="true" frameBlend="FALSE" id="masterclip-68">
            <uuid>d20e871d-ce2f-40f3-8d1e-1d6520f32545</uuid>
            <masterclipid>masterclip-68</masterclipid>
            <ismasterclip>TRUE</ismasterclip>
            <duration>129</duration>
            <in>0</in>
            <out>129</out>
            <name>CH_BreatheFence_B.png.66.png</name>
            <rate>
              <timebase>12</timebase>
              <ntsc>FALSE</ntsc>
            </rate>
            <media>
              <video>
                <track>
                  <clipitem frameBlend="FALSE" id="clipitem-69">
                    <name>CH_BreatheFence_B.png.66.png</name>
                    <masterclipid>masterclip-68</masterclipid>
                    <rate>
                      <timebase>12</timebase>
                      <ntsc>FALSE</ntsc>
                    </rate>
                    <alphatype>straight</alphatype>
                    <pixelaspectratio>square</pixelaspectratio>
                    <anamorphic>FALSE</anamorphic>
                    <file id="file-68">
                      <name>CH_BreatheFence_B.png.66.png</name>
                      <pathurl>file://localhost/Users/MAK/Dropbox/4thBoxAssets/CA_files_by_Character/BreatheFacingFence/CH_BreatheFence_B.png/CH_BreatheFence_B.png.66.png</pathurl>
                      <rate>
                        <timebase>12</timebase>
                        <ntsc>FALSE</ntsc>
                      </rate>
                      <duration>129</duration>
                      <timecode>
                        <rate>
                          <timebase>12</timebase>
                          <ntsc>FALSE</ntsc>
                        </rate>
                      </timecode>
                      <media>
                        <video>
                          <duration>1</duration>
                          <samplecharacteristics>
                            <anamorphic>FALSE</anamorphic>
                            <pixelaspectratio>square</pixelaspectratio>
                            <fielddominance>none</fielddominance>
                            <width>1993</width>
                            <height>1300</height>
                          </samplecharacteristics>
                        </video>
                      </media>
                    </file>
                  </clipitem>
                </track>
              </video>
            </media>
          </clip>
          <clip explodedTracks="true" frameBlend="FALSE" id="masterclip-69">
            <uuid>a369c2fb-fc2f-482f-aa83-7027bad30861</uuid>
            <masterclipid>masterclip-69</masterclipid>
            <ismasterclip>TRUE</ismasterclip>
            <duration>129</duration>
            <in>0</in>
            <out>129</out>
            <name>CH_BreatheFence_B.png.67.png</name>
            <rate>
              <timebase>12</timebase>
              <ntsc>FALSE</ntsc>
            </rate>
            <media>
              <video>
                <track>
                  <clipitem frameBlend="FALSE" id="clipitem-70">
                    <name>CH_BreatheFence_B.png.67.png</name>
                    <masterclipid>masterclip-69</masterclipid>
                    <rate>
                      <timebase>12</timebase>
                      <ntsc>FALSE</ntsc>
                    </rate>
                    <alphatype>straight</alphatype>
                    <pixelaspectratio>square</pixelaspectratio>
                    <anamorphic>FALSE</anamorphic>
                    <file id="file-69">
                      <name>CH_BreatheFence_B.png.67.png</name>
                      <pathurl>file://localhost/Users/MAK/Dropbox/4thBoxAssets/CA_files_by_Character/BreatheFacingFence/CH_BreatheFence_B.png/CH_BreatheFence_B.png.67.png</pathurl>
                      <rate>
                        <timebase>12</timebase>
                        <ntsc>FALSE</ntsc>
                      </rate>
                      <duration>129</duration>
                      <timecode>
                        <rate>
                          <timebase>12</timebase>
                          <ntsc>FALSE</ntsc>
                        </rate>
                      </timecode>
                      <media>
                        <video>
                          <duration>1</duration>
                          <samplecharacteristics>
                            <anamorphic>FALSE</anamorphic>
                            <pixelaspectratio>square</pixelaspectratio>
                            <fielddominance>none</fielddominance>
                            <width>1993</width>
                            <height>1300</height>
                          </samplecharacteristics>
                        </video>
                      </media>
                    </file>
                  </clipitem>
                </track>
              </video>
            </media>
          </clip>
          <clip explodedTracks="true" frameBlend="FALSE" id="masterclip-70">
            <uuid>8a4755f4-5534-48d1-88a7-f5f32cbfea7d</uuid>
            <masterclipid>masterclip-70</masterclipid>
            <ismasterclip>TRUE</ismasterclip>
            <duration>129</duration>
            <in>0</in>
            <out>129</out>
            <name>CH_BreatheFence_B.png.68.png</name>
            <rate>
              <timebase>12</timebase>
              <ntsc>FALSE</ntsc>
            </rate>
            <media>
              <video>
                <track>
                  <clipitem frameBlend="FALSE" id="clipitem-71">
                    <name>CH_BreatheFence_B.png.68.png</name>
                    <masterclipid>masterclip-70</masterclipid>
                    <rate>
                      <timebase>12</timebase>
                      <ntsc>FALSE</ntsc>
                    </rate>
                    <alphatype>straight</alphatype>
                    <pixelaspectratio>square</pixelaspectratio>
                    <anamorphic>FALSE</anamorphic>
                    <file id="file-70">
                      <name>CH_BreatheFence_B.png.68.png</name>
                      <pathurl>file://localhost/Users/MAK/Dropbox/4thBoxAssets/CA_files_by_Character/BreatheFacingFence/CH_BreatheFence_B.png/CH_BreatheFence_B.png.68.png</pathurl>
                      <rate>
                        <timebase>12</timebase>
                        <ntsc>FALSE</ntsc>
                      </rate>
                      <duration>129</duration>
                      <timecode>
                        <rate>
                          <timebase>12</timebase>
                          <ntsc>FALSE</ntsc>
                        </rate>
                      </timecode>
                      <media>
                        <video>
                          <duration>1</duration>
                          <samplecharacteristics>
                            <anamorphic>FALSE</anamorphic>
                            <pixelaspectratio>square</pixelaspectratio>
                            <fielddominance>none</fielddominance>
                            <width>1993</width>
                            <height>1300</height>
                          </samplecharacteristics>
                        </video>
                      </media>
                    </file>
                  </clipitem>
                </track>
              </video>
            </media>
          </clip>
          <clip explodedTracks="true" frameBlend="FALSE" id="masterclip-71">
            <uuid>e996dc13-58bf-429c-8a70-93622e3eff21</uuid>
            <masterclipid>masterclip-71</masterclipid>
            <ismasterclip>TRUE</ismasterclip>
            <duration>129</duration>
            <in>0</in>
            <out>129</out>
            <name>CH_BreatheFence_B.png.69.png</name>
            <rate>
              <timebase>12</timebase>
              <ntsc>FALSE</ntsc>
            </rate>
            <media>
              <video>
                <track>
                  <clipitem frameBlend="FALSE" id="clipitem-72">
                    <name>CH_BreatheFence_B.png.69.png</name>
                    <masterclipid>masterclip-71</masterclipid>
                    <rate>
                      <timebase>12</timebase>
                      <ntsc>FALSE</ntsc>
                    </rate>
                    <alphatype>straight</alphatype>
                    <pixelaspectratio>square</pixelaspectratio>
                    <anamorphic>FALSE</anamorphic>
                    <file id="file-71">
                      <name>CH_BreatheFence_B.png.69.png</name>
                      <pathurl>file://localhost/Users/MAK/Dropbox/4thBoxAssets/CA_files_by_Character/BreatheFacingFence/CH_BreatheFence_B.png/CH_BreatheFence_B.png.69.png</pathurl>
                      <rate>
                        <timebase>12</timebase>
                        <ntsc>FALSE</ntsc>
                      </rate>
                      <duration>129</duration>
                      <timecode>
                        <rate>
                          <timebase>12</timebase>
                          <ntsc>FALSE</ntsc>
                        </rate>
                      </timecode>
                      <media>
                        <video>
                          <duration>1</duration>
                          <samplecharacteristics>
                            <anamorphic>FALSE</anamorphic>
                            <pixelaspectratio>square</pixelaspectratio>
                            <fielddominance>none</fielddominance>
                            <width>1993</width>
                            <height>1300</height>
                          </samplecharacteristics>
                        </video>
                      </media>
                    </file>
                  </clipitem>
                </track>
              </video>
            </media>
          </clip>
          <clip explodedTracks="true" frameBlend="FALSE" id="masterclip-72">
            <uuid>303e27cc-d88f-426e-8fff-5a0255d5b5b6</uuid>
            <masterclipid>masterclip-72</masterclipid>
            <ismasterclip>TRUE</ismasterclip>
            <duration>129</duration>
            <in>0</in>
            <out>129</out>
            <name>CH_BreatheFence_B.png.70.png</name>
            <rate>
              <timebase>12</timebase>
              <ntsc>FALSE</ntsc>
            </rate>
            <media>
              <video>
                <track>
                  <clipitem frameBlend="FALSE" id="clipitem-73">
                    <name>CH_BreatheFence_B.png.70.png</name>
                    <masterclipid>masterclip-72</masterclipid>
                    <rate>
                      <timebase>12</timebase>
                      <ntsc>FALSE</ntsc>
                    </rate>
                    <alphatype>straight</alphatype>
                    <pixelaspectratio>square</pixelaspectratio>
                    <anamorphic>FALSE</anamorphic>
                    <file id="file-72">
                      <name>CH_BreatheFence_B.png.70.png</name>
                      <pathurl>file://localhost/Users/MAK/Dropbox/4thBoxAssets/CA_files_by_Character/BreatheFacingFence/CH_BreatheFence_B.png/CH_BreatheFence_B.png.70.png</pathurl>
                      <rate>
                        <timebase>12</timebase>
                        <ntsc>FALSE</ntsc>
                      </rate>
                      <duration>129</duration>
                      <timecode>
                        <rate>
                          <timebase>12</timebase>
                          <ntsc>FALSE</ntsc>
                        </rate>
                      </timecode>
                      <media>
                        <video>
                          <duration>1</duration>
                          <samplecharacteristics>
                            <anamorphic>FALSE</anamorphic>
                            <pixelaspectratio>square</pixelaspectratio>
                            <fielddominance>none</fielddominance>
                            <width>1993</width>
                            <height>1300</height>
                          </samplecharacteristics>
                        </video>
                      </media>
                    </file>
                  </clipitem>
                </track>
              </video>
            </media>
          </clip>
          <clip explodedTracks="true" frameBlend="FALSE" id="masterclip-73">
            <uuid>bfb14bc9-fdbb-4eb9-bdf1-7ad0e30cea0a</uuid>
            <masterclipid>masterclip-73</masterclipid>
            <ismasterclip>TRUE</ismasterclip>
            <duration>129</duration>
            <in>0</in>
            <out>129</out>
            <name>CH_BreatheFence_B.png.71.png</name>
            <rate>
              <timebase>12</timebase>
              <ntsc>FALSE</ntsc>
            </rate>
            <media>
              <video>
                <track>
                  <clipitem frameBlend="FALSE" id="clipitem-74">
                    <name>CH_BreatheFence_B.png.71.png</name>
                    <masterclipid>masterclip-73</masterclipid>
                    <rate>
                      <timebase>12</timebase>
                      <ntsc>FALSE</ntsc>
                    </rate>
                    <alphatype>straight</alphatype>
                    <pixelaspectratio>square</pixelaspectratio>
                    <anamorphic>FALSE</anamorphic>
                    <file id="file-73">
                      <name>CH_BreatheFence_B.png.71.png</name>
                      <pathurl>file://localhost/Users/MAK/Dropbox/4thBoxAssets/CA_files_by_Character/BreatheFacingFence/CH_BreatheFence_B.png/CH_BreatheFence_B.png.71.png</pathurl>
                      <rate>
                        <timebase>12</timebase>
                        <ntsc>FALSE</ntsc>
                      </rate>
                      <duration>129</duration>
                      <timecode>
                        <rate>
                          <timebase>12</timebase>
                          <ntsc>FALSE</ntsc>
                        </rate>
                      </timecode>
                      <media>
                        <video>
                          <duration>1</duration>
                          <samplecharacteristics>
                            <anamorphic>FALSE</anamorphic>
                            <pixelaspectratio>square</pixelaspectratio>
                            <fielddominance>none</fielddominance>
                            <width>1993</width>
                            <height>1300</height>
                          </samplecharacteristics>
                        </video>
                      </media>
                    </file>
                  </clipitem>
                </track>
              </video>
            </media>
          </clip>
          <clip explodedTracks="true" frameBlend="FALSE" id="masterclip-74">
            <uuid>c1000bdd-9f40-4880-98aa-62521c00947d</uuid>
            <masterclipid>masterclip-74</masterclipid>
            <ismasterclip>TRUE</ismasterclip>
            <duration>129</duration>
            <in>0</in>
            <out>129</out>
            <name>CH_BreatheFence_B.png.72.png</name>
            <rate>
              <timebase>12</timebase>
              <ntsc>FALSE</ntsc>
            </rate>
            <media>
              <video>
                <track>
                  <clipitem frameBlend="FALSE" id="clipitem-75">
                    <name>CH_BreatheFence_B.png.72.png</name>
                    <masterclipid>masterclip-74</masterclipid>
                    <rate>
                      <timebase>12</timebase>
                      <ntsc>FALSE</ntsc>
                    </rate>
                    <alphatype>straight</alphatype>
                    <pixelaspectratio>square</pixelaspectratio>
                    <anamorphic>FALSE</anamorphic>
                    <file id="file-74">
                      <name>CH_BreatheFence_B.png.72.png</name>
                      <pathurl>file://localhost/Users/MAK/Dropbox/4thBoxAssets/CA_files_by_Character/BreatheFacingFence/CH_BreatheFence_B.png/CH_BreatheFence_B.png.72.png</pathurl>
                      <rate>
                        <timebase>12</timebase>
                        <ntsc>FALSE</ntsc>
                      </rate>
                      <duration>129</duration>
                      <timecode>
                        <rate>
                          <timebase>12</timebase>
                          <ntsc>FALSE</ntsc>
                        </rate>
                      </timecode>
                      <media>
                        <video>
                          <duration>1</duration>
                          <samplecharacteristics>
                            <anamorphic>FALSE</anamorphic>
                            <pixelaspectratio>square</pixelaspectratio>
                            <fielddominance>none</fielddominance>
                            <width>1993</width>
                            <height>1300</height>
                          </samplecharacteristics>
                        </video>
                      </media>
                    </file>
                  </clipitem>
                </track>
              </video>
            </media>
          </clip>
          <clip explodedTracks="true" frameBlend="FALSE" id="masterclip-75">
            <uuid>bf58382d-740f-4ff8-9e0a-fb038eb078b3</uuid>
            <masterclipid>masterclip-75</masterclipid>
            <ismasterclip>TRUE</ismasterclip>
            <duration>129</duration>
            <in>0</in>
            <out>129</out>
            <name>CH_BreatheFence_B.png.73.png</name>
            <rate>
              <timebase>12</timebase>
              <ntsc>FALSE</ntsc>
            </rate>
            <media>
              <video>
                <track>
                  <clipitem frameBlend="FALSE" id="clipitem-76">
                    <name>CH_BreatheFence_B.png.73.png</name>
                    <masterclipid>masterclip-75</masterclipid>
                    <rate>
                      <timebase>12</timebase>
                      <ntsc>FALSE</ntsc>
                    </rate>
                    <alphatype>straight</alphatype>
                    <pixelaspectratio>square</pixelaspectratio>
                    <anamorphic>FALSE</anamorphic>
                    <file id="file-75">
                      <name>CH_BreatheFence_B.png.73.png</name>
                      <pathurl>file://localhost/Users/MAK/Dropbox/4thBoxAssets/CA_files_by_Character/BreatheFacingFence/CH_BreatheFence_B.png/CH_BreatheFence_B.png.73.png</pathurl>
                      <rate>
                        <timebase>12</timebase>
                        <ntsc>FALSE</ntsc>
                      </rate>
                      <duration>129</duration>
                      <timecode>
                        <rate>
                          <timebase>12</timebase>
                          <ntsc>FALSE</ntsc>
                        </rate>
                      </timecode>
                      <media>
                        <video>
                          <duration>1</duration>
                          <samplecharacteristics>
                            <anamorphic>FALSE</anamorphic>
                            <pixelaspectratio>square</pixelaspectratio>
                            <fielddominance>none</fielddominance>
                            <width>1993</width>
                            <height>1300</height>
                          </samplecharacteristics>
                        </video>
                      </media>
                    </file>
                  </clipitem>
                </track>
              </video>
            </media>
          </clip>
          <clip explodedTracks="true" frameBlend="FALSE" id="masterclip-76">
            <uuid>7742c3d8-168d-45ff-9eae-9033c7170d32</uuid>
            <masterclipid>masterclip-76</masterclipid>
            <ismasterclip>TRUE</ismasterclip>
            <duration>129</duration>
            <in>0</in>
            <out>129</out>
            <name>CH_BreatheFence_B.png.74.png</name>
            <rate>
              <timebase>12</timebase>
              <ntsc>FALSE</ntsc>
            </rate>
            <media>
              <video>
                <track>
                  <clipitem frameBlend="FALSE" id="clipitem-77">
                    <name>CH_BreatheFence_B.png.74.png</name>
                    <masterclipid>masterclip-76</masterclipid>
                    <rate>
                      <timebase>12</timebase>
                      <ntsc>FALSE</ntsc>
                    </rate>
                    <alphatype>straight</alphatype>
                    <pixelaspectratio>square</pixelaspectratio>
                    <anamorphic>FALSE</anamorphic>
                    <file id="file-76">
                      <name>CH_BreatheFence_B.png.74.png</name>
                      <pathurl>file://localhost/Users/MAK/Dropbox/4thBoxAssets/CA_files_by_Character/BreatheFacingFence/CH_BreatheFence_B.png/CH_BreatheFence_B.png.74.png</pathurl>
                      <rate>
                        <timebase>12</timebase>
                        <ntsc>FALSE</ntsc>
                      </rate>
                      <duration>129</duration>
                      <timecode>
                        <rate>
                          <timebase>12</timebase>
                          <ntsc>FALSE</ntsc>
                        </rate>
                      </timecode>
                      <media>
                        <video>
                          <duration>1</duration>
                          <samplecharacteristics>
                            <anamorphic>FALSE</anamorphic>
                            <pixelaspectratio>square</pixelaspectratio>
                            <fielddominance>none</fielddominance>
                            <width>1993</width>
                            <height>1300</height>
                          </samplecharacteristics>
                        </video>
                      </media>
                    </file>
                  </clipitem>
                </track>
              </video>
            </media>
          </clip>
          <clip explodedTracks="true" frameBlend="FALSE" id="masterclip-77">
            <uuid>e98390fe-ccea-44f0-b8d6-2767acdb744b</uuid>
            <masterclipid>masterclip-77</masterclipid>
            <ismasterclip>TRUE</ismasterclip>
            <duration>129</duration>
            <in>0</in>
            <out>129</out>
            <name>CH_BreatheFence_B.png.75.png</name>
            <rate>
              <timebase>12</timebase>
              <ntsc>FALSE</ntsc>
            </rate>
            <media>
              <video>
                <track>
                  <clipitem frameBlend="FALSE" id="clipitem-78">
                    <name>CH_BreatheFence_B.png.75.png</name>
                    <masterclipid>masterclip-77</masterclipid>
                    <rate>
                      <timebase>12</timebase>
                      <ntsc>FALSE</ntsc>
                    </rate>
                    <alphatype>straight</alphatype>
                    <pixelaspectratio>square</pixelaspectratio>
                    <anamorphic>FALSE</anamorphic>
                    <file id="file-77">
                      <name>CH_BreatheFence_B.png.75.png</name>
                      <pathurl>file://localhost/Users/MAK/Dropbox/4thBoxAssets/CA_files_by_Character/BreatheFacingFence/CH_BreatheFence_B.png/CH_BreatheFence_B.png.75.png</pathurl>
                      <rate>
                        <timebase>12</timebase>
                        <ntsc>FALSE</ntsc>
                      </rate>
                      <duration>129</duration>
                      <timecode>
                        <rate>
                          <timebase>12</timebase>
                          <ntsc>FALSE</ntsc>
                        </rate>
                      </timecode>
                      <media>
                        <video>
                          <duration>1</duration>
                          <samplecharacteristics>
                            <anamorphic>FALSE</anamorphic>
                            <pixelaspectratio>square</pixelaspectratio>
                            <fielddominance>none</fielddominance>
                            <width>1993</width>
                            <height>1300</height>
                          </samplecharacteristics>
                        </video>
                      </media>
                    </file>
                  </clipitem>
                </track>
              </video>
            </media>
          </clip>
          <clip explodedTracks="true" frameBlend="FALSE" id="masterclip-78">
            <uuid>21dc0190-93be-434c-ac7b-f72f21c9f45c</uuid>
            <masterclipid>masterclip-78</masterclipid>
            <ismasterclip>TRUE</ismasterclip>
            <duration>129</duration>
            <in>0</in>
            <out>129</out>
            <name>CH_BreatheFence_B.png.76.png</name>
            <rate>
              <timebase>12</timebase>
              <ntsc>FALSE</ntsc>
            </rate>
            <media>
              <video>
                <track>
                  <clipitem frameBlend="FALSE" id="clipitem-79">
                    <name>CH_BreatheFence_B.png.76.png</name>
                    <masterclipid>masterclip-78</masterclipid>
                    <rate>
                      <timebase>12</timebase>
                      <ntsc>FALSE</ntsc>
                    </rate>
                    <alphatype>straight</alphatype>
                    <pixelaspectratio>square</pixelaspectratio>
                    <anamorphic>FALSE</anamorphic>
                    <file id="file-78">
                      <name>CH_BreatheFence_B.png.76.png</name>
                      <pathurl>file://localhost/Users/MAK/Dropbox/4thBoxAssets/CA_files_by_Character/BreatheFacingFence/CH_BreatheFence_B.png/CH_BreatheFence_B.png.76.png</pathurl>
                      <rate>
                        <timebase>12</timebase>
                        <ntsc>FALSE</ntsc>
                      </rate>
                      <duration>129</duration>
                      <timecode>
                        <rate>
                          <timebase>12</timebase>
                          <ntsc>FALSE</ntsc>
                        </rate>
                      </timecode>
                      <media>
                        <video>
                          <duration>1</duration>
                          <samplecharacteristics>
                            <anamorphic>FALSE</anamorphic>
                            <pixelaspectratio>square</pixelaspectratio>
                            <fielddominance>none</fielddominance>
                            <width>1993</width>
                            <height>1300</height>
                          </samplecharacteristics>
                        </video>
                      </media>
                    </file>
                  </clipitem>
                </track>
              </video>
            </media>
          </clip>
          <clip explodedTracks="true" frameBlend="FALSE" id="masterclip-79">
            <uuid>70abd887-0c1d-451c-9782-69cb144bcd03</uuid>
            <masterclipid>masterclip-79</masterclipid>
            <ismasterclip>TRUE</ismasterclip>
            <duration>129</duration>
            <in>0</in>
            <out>129</out>
            <name>CH_BreatheFence_B.png.77.png</name>
            <rate>
              <timebase>12</timebase>
              <ntsc>FALSE</ntsc>
            </rate>
            <media>
              <video>
                <track>
                  <clipitem frameBlend="FALSE" id="clipitem-80">
                    <name>CH_BreatheFence_B.png.77.png</name>
                    <masterclipid>masterclip-79</masterclipid>
                    <rate>
                      <timebase>12</timebase>
                      <ntsc>FALSE</ntsc>
                    </rate>
                    <alphatype>straight</alphatype>
                    <pixelaspectratio>square</pixelaspectratio>
                    <anamorphic>FALSE</anamorphic>
                    <file id="file-79">
                      <name>CH_BreatheFence_B.png.77.png</name>
                      <pathurl>file://localhost/Users/MAK/Dropbox/4thBoxAssets/CA_files_by_Character/BreatheFacingFence/CH_BreatheFence_B.png/CH_BreatheFence_B.png.77.png</pathurl>
                      <rate>
                        <timebase>12</timebase>
                        <ntsc>FALSE</ntsc>
                      </rate>
                      <duration>129</duration>
                      <timecode>
                        <rate>
                          <timebase>12</timebase>
                          <ntsc>FALSE</ntsc>
                        </rate>
                      </timecode>
                      <media>
                        <video>
                          <duration>1</duration>
                          <samplecharacteristics>
                            <anamorphic>FALSE</anamorphic>
                            <pixelaspectratio>square</pixelaspectratio>
                            <fielddominance>none</fielddominance>
                            <width>1993</width>
                            <height>1300</height>
                          </samplecharacteristics>
                        </video>
                      </media>
                    </file>
                  </clipitem>
                </track>
              </video>
            </media>
          </clip>
          <clip explodedTracks="true" frameBlend="FALSE" id="masterclip-80">
            <uuid>d090ed51-d5f6-4379-a9f1-2d1df954dcc2</uuid>
            <masterclipid>masterclip-80</masterclipid>
            <ismasterclip>TRUE</ismasterclip>
            <duration>129</duration>
            <in>0</in>
            <out>129</out>
            <name>CH_BreatheFence_B.png.78.png</name>
            <rate>
              <timebase>12</timebase>
              <ntsc>FALSE</ntsc>
            </rate>
            <media>
              <video>
                <track>
                  <clipitem frameBlend="FALSE" id="clipitem-81">
                    <name>CH_BreatheFence_B.png.78.png</name>
                    <masterclipid>masterclip-80</masterclipid>
                    <rate>
                      <timebase>12</timebase>
                      <ntsc>FALSE</ntsc>
                    </rate>
                    <alphatype>straight</alphatype>
                    <pixelaspectratio>square</pixelaspectratio>
                    <anamorphic>FALSE</anamorphic>
                    <file id="file-80">
                      <name>CH_BreatheFence_B.png.78.png</name>
                      <pathurl>file://localhost/Users/MAK/Dropbox/4thBoxAssets/CA_files_by_Character/BreatheFacingFence/CH_BreatheFence_B.png/CH_BreatheFence_B.png.78.png</pathurl>
                      <rate>
                        <timebase>12</timebase>
                        <ntsc>FALSE</ntsc>
                      </rate>
                      <duration>129</duration>
                      <timecode>
                        <rate>
                          <timebase>12</timebase>
                          <ntsc>FALSE</ntsc>
                        </rate>
                      </timecode>
                      <media>
                        <video>
                          <duration>1</duration>
                          <samplecharacteristics>
                            <anamorphic>FALSE</anamorphic>
                            <pixelaspectratio>square</pixelaspectratio>
                            <fielddominance>none</fielddominance>
                            <width>1993</width>
                            <height>1300</height>
                          </samplecharacteristics>
                        </video>
                      </media>
                    </file>
                  </clipitem>
                </track>
              </video>
            </media>
          </clip>
          <clip explodedTracks="true" frameBlend="FALSE" id="masterclip-81">
            <uuid>4b39f0b6-f1e8-425c-a591-eeda50b52f0d</uuid>
            <masterclipid>masterclip-81</masterclipid>
            <ismasterclip>TRUE</ismasterclip>
            <duration>129</duration>
            <in>0</in>
            <out>129</out>
            <name>CH_BreatheFence_B.png.79.png</name>
            <rate>
              <timebase>12</timebase>
              <ntsc>FALSE</ntsc>
            </rate>
            <media>
              <video>
                <track>
                  <clipitem frameBlend="FALSE" id="clipitem-82">
                    <name>CH_BreatheFence_B.png.79.png</name>
                    <masterclipid>masterclip-81</masterclipid>
                    <rate>
                      <timebase>12</timebase>
                      <ntsc>FALSE</ntsc>
                    </rate>
                    <alphatype>straight</alphatype>
                    <pixelaspectratio>square</pixelaspectratio>
                    <anamorphic>FALSE</anamorphic>
                    <file id="file-81">
                      <name>CH_BreatheFence_B.png.79.png</name>
                      <pathurl>file://localhost/Users/MAK/Dropbox/4thBoxAssets/CA_files_by_Character/BreatheFacingFence/CH_BreatheFence_B.png/CH_BreatheFence_B.png.79.png</pathurl>
                      <rate>
                        <timebase>12</timebase>
                        <ntsc>FALSE</ntsc>
                      </rate>
                      <duration>129</duration>
                      <timecode>
                        <rate>
                          <timebase>12</timebase>
                          <ntsc>FALSE</ntsc>
                        </rate>
                      </timecode>
                      <media>
                        <video>
                          <duration>1</duration>
                          <samplecharacteristics>
                            <anamorphic>FALSE</anamorphic>
                            <pixelaspectratio>square</pixelaspectratio>
                            <fielddominance>none</fielddominance>
                            <width>1993</width>
                            <height>1300</height>
                          </samplecharacteristics>
                        </video>
                      </media>
                    </file>
                  </clipitem>
                </track>
              </video>
            </media>
          </clip>
          <clip explodedTracks="true" frameBlend="FALSE" id="masterclip-82">
            <uuid>e74a7e30-eac6-4da9-a0c5-4cde9e82b369</uuid>
            <masterclipid>masterclip-82</masterclipid>
            <ismasterclip>TRUE</ismasterclip>
            <duration>129</duration>
            <in>0</in>
            <out>129</out>
            <name>CH_BreatheFence_B.png.80.png</name>
            <rate>
              <timebase>12</timebase>
              <ntsc>FALSE</ntsc>
            </rate>
            <media>
              <video>
                <track>
                  <clipitem frameBlend="FALSE" id="clipitem-83">
                    <name>CH_BreatheFence_B.png.80.png</name>
                    <masterclipid>masterclip-82</masterclipid>
                    <rate>
                      <timebase>12</timebase>
                      <ntsc>FALSE</ntsc>
                    </rate>
                    <alphatype>straight</alphatype>
                    <pixelaspectratio>square</pixelaspectratio>
                    <anamorphic>FALSE</anamorphic>
                    <file id="file-82">
                      <name>CH_BreatheFence_B.png.80.png</name>
                      <pathurl>file://localhost/Users/MAK/Dropbox/4thBoxAssets/CA_files_by_Character/BreatheFacingFence/CH_BreatheFence_B.png/CH_BreatheFence_B.png.80.png</pathurl>
                      <rate>
                        <timebase>12</timebase>
                        <ntsc>FALSE</ntsc>
                      </rate>
                      <duration>129</duration>
                      <timecode>
                        <rate>
                          <timebase>12</timebase>
                          <ntsc>FALSE</ntsc>
                        </rate>
                      </timecode>
                      <media>
                        <video>
                          <duration>1</duration>
                          <samplecharacteristics>
                            <anamorphic>FALSE</anamorphic>
                            <pixelaspectratio>square</pixelaspectratio>
                            <fielddominance>none</fielddominance>
                            <width>1993</width>
                            <height>1300</height>
                          </samplecharacteristics>
                        </video>
                      </media>
                    </file>
                  </clipitem>
                </track>
              </video>
            </media>
          </clip>
          <clip explodedTracks="true" frameBlend="FALSE" id="masterclip-83">
            <uuid>14531036-e06d-4098-ab8e-efd31f8d427c</uuid>
            <masterclipid>masterclip-83</masterclipid>
            <ismasterclip>TRUE</ismasterclip>
            <duration>129</duration>
            <in>0</in>
            <out>129</out>
            <name>CH_BreatheFence_B.png.81.png</name>
            <rate>
              <timebase>12</timebase>
              <ntsc>FALSE</ntsc>
            </rate>
            <media>
              <video>
                <track>
                  <clipitem frameBlend="FALSE" id="clipitem-84">
                    <name>CH_BreatheFence_B.png.81.png</name>
                    <masterclipid>masterclip-83</masterclipid>
                    <rate>
                      <timebase>12</timebase>
                      <ntsc>FALSE</ntsc>
                    </rate>
                    <alphatype>straight</alphatype>
                    <pixelaspectratio>square</pixelaspectratio>
                    <anamorphic>FALSE</anamorphic>
                    <file id="file-83">
                      <name>CH_BreatheFence_B.png.81.png</name>
                      <pathurl>file://localhost/Users/MAK/Dropbox/4thBoxAssets/CA_files_by_Character/BreatheFacingFence/CH_BreatheFence_B.png/CH_BreatheFence_B.png.81.png</pathurl>
                      <rate>
                        <timebase>12</timebase>
                        <ntsc>FALSE</ntsc>
                      </rate>
                      <duration>129</duration>
                      <timecode>
                        <rate>
                          <timebase>12</timebase>
                          <ntsc>FALSE</ntsc>
                        </rate>
                      </timecode>
                      <media>
                        <video>
                          <duration>1</duration>
                          <samplecharacteristics>
                            <anamorphic>FALSE</anamorphic>
                            <pixelaspectratio>square</pixelaspectratio>
                            <fielddominance>none</fielddominance>
                            <width>1993</width>
                            <height>1300</height>
                          </samplecharacteristics>
                        </video>
                      </media>
                    </file>
                  </clipitem>
                </track>
              </video>
            </media>
          </clip>
          <clip explodedTracks="true" frameBlend="FALSE" id="masterclip-84">
            <uuid>2694b76c-d3e6-4cba-b1df-ff644623f9af</uuid>
            <masterclipid>masterclip-84</masterclipid>
            <ismasterclip>TRUE</ismasterclip>
            <duration>129</duration>
            <in>0</in>
            <out>129</out>
            <name>CH_BreatheFence_B.png.82.png</name>
            <rate>
              <timebase>12</timebase>
              <ntsc>FALSE</ntsc>
            </rate>
            <media>
              <video>
                <track>
                  <clipitem frameBlend="FALSE" id="clipitem-85">
                    <name>CH_BreatheFence_B.png.82.png</name>
                    <masterclipid>masterclip-84</masterclipid>
                    <rate>
                      <timebase>12</timebase>
                      <ntsc>FALSE</ntsc>
                    </rate>
                    <alphatype>straight</alphatype>
                    <pixelaspectratio>square</pixelaspectratio>
                    <anamorphic>FALSE</anamorphic>
                    <file id="file-84">
                      <name>CH_BreatheFence_B.png.82.png</name>
                      <pathurl>file://localhost/Users/MAK/Dropbox/4thBoxAssets/CA_files_by_Character/BreatheFacingFence/CH_BreatheFence_B.png/CH_BreatheFence_B.png.82.png</pathurl>
                      <rate>
                        <timebase>12</timebase>
                        <ntsc>FALSE</ntsc>
                      </rate>
                      <duration>129</duration>
                      <timecode>
                        <rate>
                          <timebase>12</timebase>
                          <ntsc>FALSE</ntsc>
                        </rate>
                      </timecode>
                      <media>
                        <video>
                          <duration>1</duration>
                          <samplecharacteristics>
                            <anamorphic>FALSE</anamorphic>
                            <pixelaspectratio>square</pixelaspectratio>
                            <fielddominance>none</fielddominance>
                            <width>1993</width>
                            <height>1300</height>
                          </samplecharacteristics>
                        </video>
                      </media>
                    </file>
                  </clipitem>
                </track>
              </video>
            </media>
          </clip>
          <clip explodedTracks="true" frameBlend="FALSE" id="masterclip-85">
            <uuid>9efdb247-8e38-434b-b60b-980f394bcf0a</uuid>
            <masterclipid>masterclip-85</masterclipid>
            <ismasterclip>TRUE</ismasterclip>
            <duration>129</duration>
            <in>0</in>
            <out>129</out>
            <name>CH_BreatheFence_B.png.83.png</name>
            <rate>
              <timebase>12</timebase>
              <ntsc>FALSE</ntsc>
            </rate>
            <media>
              <video>
                <track>
                  <clipitem frameBlend="FALSE" id="clipitem-86">
                    <name>CH_BreatheFence_B.png.83.png</name>
                    <masterclipid>masterclip-85</masterclipid>
                    <rate>
                      <timebase>12</timebase>
                      <ntsc>FALSE</ntsc>
                    </rate>
                    <alphatype>straight</alphatype>
                    <pixelaspectratio>square</pixelaspectratio>
                    <anamorphic>FALSE</anamorphic>
                    <file id="file-85">
                      <name>CH_BreatheFence_B.png.83.png</name>
                      <pathurl>file://localhost/Users/MAK/Dropbox/4thBoxAssets/CA_files_by_Character/BreatheFacingFence/CH_BreatheFence_B.png/CH_BreatheFence_B.png.83.png</pathurl>
                      <rate>
                        <timebase>12</timebase>
                        <ntsc>FALSE</ntsc>
                      </rate>
                      <duration>129</duration>
                      <timecode>
                        <rate>
                          <timebase>12</timebase>
                          <ntsc>FALSE</ntsc>
                        </rate>
                      </timecode>
                      <media>
                        <video>
                          <duration>1</duration>
                          <samplecharacteristics>
                            <anamorphic>FALSE</anamorphic>
                            <pixelaspectratio>square</pixelaspectratio>
                            <fielddominance>none</fielddominance>
                            <width>1993</width>
                            <height>1300</height>
                          </samplecharacteristics>
                        </video>
                      </media>
                    </file>
                  </clipitem>
                </track>
              </video>
            </media>
          </clip>
          <clip explodedTracks="true" frameBlend="FALSE" id="masterclip-86">
            <uuid>84d17940-f0a9-49f3-a1f1-9ff0ec05c38d</uuid>
            <masterclipid>masterclip-86</masterclipid>
            <ismasterclip>TRUE</ismasterclip>
            <duration>129</duration>
            <in>0</in>
            <out>129</out>
            <name>CH_BreatheFence_B.png.84.png</name>
            <rate>
              <timebase>12</timebase>
              <ntsc>FALSE</ntsc>
            </rate>
            <media>
              <video>
                <track>
                  <clipitem frameBlend="FALSE" id="clipitem-87">
                    <name>CH_BreatheFence_B.png.84.png</name>
                    <masterclipid>masterclip-86</masterclipid>
                    <rate>
                      <timebase>12</timebase>
                      <ntsc>FALSE</ntsc>
                    </rate>
                    <alphatype>straight</alphatype>
                    <pixelaspectratio>square</pixelaspectratio>
                    <anamorphic>FALSE</anamorphic>
                    <file id="file-86">
                      <name>CH_BreatheFence_B.png.84.png</name>
                      <pathurl>file://localhost/Users/MAK/Dropbox/4thBoxAssets/CA_files_by_Character/BreatheFacingFence/CH_BreatheFence_B.png/CH_BreatheFence_B.png.84.png</pathurl>
                      <rate>
                        <timebase>12</timebase>
                        <ntsc>FALSE</ntsc>
                      </rate>
                      <duration>129</duration>
                      <timecode>
                        <rate>
                          <timebase>12</timebase>
                          <ntsc>FALSE</ntsc>
                        </rate>
                      </timecode>
                      <media>
                        <video>
                          <duration>1</duration>
                          <samplecharacteristics>
                            <anamorphic>FALSE</anamorphic>
                            <pixelaspectratio>square</pixelaspectratio>
                            <fielddominance>none</fielddominance>
                            <width>1993</width>
                            <height>1300</height>
                          </samplecharacteristics>
                        </video>
                      </media>
                    </file>
                  </clipitem>
                </track>
              </video>
            </media>
          </clip>
          <clip explodedTracks="true" frameBlend="FALSE" id="masterclip-87">
            <uuid>0b60f5fa-9f0b-420d-b2aa-d2291e29bb77</uuid>
            <masterclipid>masterclip-87</masterclipid>
            <ismasterclip>TRUE</ismasterclip>
            <duration>129</duration>
            <in>0</in>
            <out>129</out>
            <name>CH_BreatheFence_B.png.85.png</name>
            <rate>
              <timebase>12</timebase>
              <ntsc>FALSE</ntsc>
            </rate>
            <media>
              <video>
                <track>
                  <clipitem frameBlend="FALSE" id="clipitem-88">
                    <name>CH_BreatheFence_B.png.85.png</name>
                    <masterclipid>masterclip-87</masterclipid>
                    <rate>
                      <timebase>12</timebase>
                      <ntsc>FALSE</ntsc>
                    </rate>
                    <alphatype>straight</alphatype>
                    <pixelaspectratio>square</pixelaspectratio>
                    <anamorphic>FALSE</anamorphic>
                    <file id="file-87">
                      <name>CH_BreatheFence_B.png.85.png</name>
                      <pathurl>file://localhost/Users/MAK/Dropbox/4thBoxAssets/CA_files_by_Character/BreatheFacingFence/CH_BreatheFence_B.png/CH_BreatheFence_B.png.85.png</pathurl>
                      <rate>
                        <timebase>12</timebase>
                        <ntsc>FALSE</ntsc>
                      </rate>
                      <duration>129</duration>
                      <timecode>
                        <rate>
                          <timebase>12</timebase>
                          <ntsc>FALSE</ntsc>
                        </rate>
                      </timecode>
                      <media>
                        <video>
                          <duration>1</duration>
                          <samplecharacteristics>
                            <anamorphic>FALSE</anamorphic>
                            <pixelaspectratio>square</pixelaspectratio>
                            <fielddominance>none</fielddominance>
                            <width>1993</width>
                            <height>1300</height>
                          </samplecharacteristics>
                        </video>
                      </media>
                    </file>
                  </clipitem>
                </track>
              </video>
            </media>
          </clip>
          <clip explodedTracks="true" frameBlend="FALSE" id="masterclip-88">
            <uuid>a600a275-4da4-4ae9-8623-ad62f1e2cc6f</uuid>
            <masterclipid>masterclip-88</masterclipid>
            <ismasterclip>TRUE</ismasterclip>
            <duration>129</duration>
            <in>0</in>
            <out>129</out>
            <name>CH_BreatheFence_B.png.86.png</name>
            <rate>
              <timebase>12</timebase>
              <ntsc>FALSE</ntsc>
            </rate>
            <media>
              <video>
                <track>
                  <clipitem frameBlend="FALSE" id="clipitem-89">
                    <name>CH_BreatheFence_B.png.86.png</name>
                    <masterclipid>masterclip-88</masterclipid>
                    <rate>
                      <timebase>12</timebase>
                      <ntsc>FALSE</ntsc>
                    </rate>
                    <alphatype>straight</alphatype>
                    <pixelaspectratio>square</pixelaspectratio>
                    <anamorphic>FALSE</anamorphic>
                    <file id="file-88">
                      <name>CH_BreatheFence_B.png.86.png</name>
                      <pathurl>file://localhost/Users/MAK/Dropbox/4thBoxAssets/CA_files_by_Character/BreatheFacingFence/CH_BreatheFence_B.png/CH_BreatheFence_B.png.86.png</pathurl>
                      <rate>
                        <timebase>12</timebase>
                        <ntsc>FALSE</ntsc>
                      </rate>
                      <duration>129</duration>
                      <timecode>
                        <rate>
                          <timebase>12</timebase>
                          <ntsc>FALSE</ntsc>
                        </rate>
                      </timecode>
                      <media>
                        <video>
                          <duration>1</duration>
                          <samplecharacteristics>
                            <anamorphic>FALSE</anamorphic>
                            <pixelaspectratio>square</pixelaspectratio>
                            <fielddominance>none</fielddominance>
                            <width>1993</width>
                            <height>1300</height>
                          </samplecharacteristics>
                        </video>
                      </media>
                    </file>
                  </clipitem>
                </track>
              </video>
            </media>
          </clip>
          <clip explodedTracks="true" frameBlend="FALSE" id="masterclip-89">
            <uuid>628db563-683c-4726-b083-e1d85e1fda12</uuid>
            <masterclipid>masterclip-89</masterclipid>
            <ismasterclip>TRUE</ismasterclip>
            <duration>129</duration>
            <in>0</in>
            <out>129</out>
            <name>CH_BreatheFence_B.png.87.png</name>
            <rate>
              <timebase>12</timebase>
              <ntsc>FALSE</ntsc>
            </rate>
            <media>
              <video>
                <track>
                  <clipitem frameBlend="FALSE" id="clipitem-90">
                    <name>CH_BreatheFence_B.png.87.png</name>
                    <masterclipid>masterclip-89</masterclipid>
                    <rate>
                      <timebase>12</timebase>
                      <ntsc>FALSE</ntsc>
                    </rate>
                    <alphatype>straight</alphatype>
                    <pixelaspectratio>square</pixelaspectratio>
                    <anamorphic>FALSE</anamorphic>
                    <file id="file-89">
                      <name>CH_BreatheFence_B.png.87.png</name>
                      <pathurl>file://localhost/Users/MAK/Dropbox/4thBoxAssets/CA_files_by_Character/BreatheFacingFence/CH_BreatheFence_B.png/CH_BreatheFence_B.png.87.png</pathurl>
                      <rate>
                        <timebase>12</timebase>
                        <ntsc>FALSE</ntsc>
                      </rate>
                      <duration>129</duration>
                      <timecode>
                        <rate>
                          <timebase>12</timebase>
                          <ntsc>FALSE</ntsc>
                        </rate>
                      </timecode>
                      <media>
                        <video>
                          <duration>1</duration>
                          <samplecharacteristics>
                            <anamorphic>FALSE</anamorphic>
                            <pixelaspectratio>square</pixelaspectratio>
                            <fielddominance>none</fielddominance>
                            <width>1993</width>
                            <height>1300</height>
                          </samplecharacteristics>
                        </video>
                      </media>
                    </file>
                  </clipitem>
                </track>
              </video>
            </media>
          </clip>
          <clip explodedTracks="true" frameBlend="FALSE" id="masterclip-90">
            <uuid>edac2de4-262f-4001-b6d3-054af1b8c4c5</uuid>
            <masterclipid>masterclip-90</masterclipid>
            <ismasterclip>TRUE</ismasterclip>
            <duration>129</duration>
            <in>0</in>
            <out>129</out>
            <name>CH_BreatheFence_B.png.88.png</name>
            <rate>
              <timebase>12</timebase>
              <ntsc>FALSE</ntsc>
            </rate>
            <media>
              <video>
                <track>
                  <clipitem frameBlend="FALSE" id="clipitem-91">
                    <name>CH_BreatheFence_B.png.88.png</name>
                    <masterclipid>masterclip-90</masterclipid>
                    <rate>
                      <timebase>12</timebase>
                      <ntsc>FALSE</ntsc>
                    </rate>
                    <alphatype>straight</alphatype>
                    <pixelaspectratio>square</pixelaspectratio>
                    <anamorphic>FALSE</anamorphic>
                    <file id="file-90">
                      <name>CH_BreatheFence_B.png.88.png</name>
                      <pathurl>file://localhost/Users/MAK/Dropbox/4thBoxAssets/CA_files_by_Character/BreatheFacingFence/CH_BreatheFence_B.png/CH_BreatheFence_B.png.88.png</pathurl>
                      <rate>
                        <timebase>12</timebase>
                        <ntsc>FALSE</ntsc>
                      </rate>
                      <duration>129</duration>
                      <timecode>
                        <rate>
                          <timebase>12</timebase>
                          <ntsc>FALSE</ntsc>
                        </rate>
                      </timecode>
                      <media>
                        <video>
                          <duration>1</duration>
                          <samplecharacteristics>
                            <anamorphic>FALSE</anamorphic>
                            <pixelaspectratio>square</pixelaspectratio>
                            <fielddominance>none</fielddominance>
                            <width>1993</width>
                            <height>1300</height>
                          </samplecharacteristics>
                        </video>
                      </media>
                    </file>
                  </clipitem>
                </track>
              </video>
            </media>
          </clip>
          <clip explodedTracks="true" frameBlend="FALSE" id="masterclip-91">
            <uuid>98e8a7ce-ad30-43d4-8e72-0a7d8f0757d4</uuid>
            <masterclipid>masterclip-91</masterclipid>
            <ismasterclip>TRUE</ismasterclip>
            <duration>129</duration>
            <in>0</in>
            <out>129</out>
            <name>CH_BreatheFence_B.png.89.png</name>
            <rate>
              <timebase>12</timebase>
              <ntsc>FALSE</ntsc>
            </rate>
            <media>
              <video>
                <track>
                  <clipitem frameBlend="FALSE" id="clipitem-92">
                    <name>CH_BreatheFence_B.png.89.png</name>
                    <masterclipid>masterclip-91</masterclipid>
                    <rate>
                      <timebase>12</timebase>
                      <ntsc>FALSE</ntsc>
                    </rate>
                    <alphatype>straight</alphatype>
                    <pixelaspectratio>square</pixelaspectratio>
                    <anamorphic>FALSE</anamorphic>
                    <file id="file-91">
                      <name>CH_BreatheFence_B.png.89.png</name>
                      <pathurl>file://localhost/Users/MAK/Dropbox/4thBoxAssets/CA_files_by_Character/BreatheFacingFence/CH_BreatheFence_B.png/CH_BreatheFence_B.png.89.png</pathurl>
                      <rate>
                        <timebase>12</timebase>
                        <ntsc>FALSE</ntsc>
                      </rate>
                      <duration>129</duration>
                      <timecode>
                        <rate>
                          <timebase>12</timebase>
                          <ntsc>FALSE</ntsc>
                        </rate>
                      </timecode>
                      <media>
                        <video>
                          <duration>1</duration>
                          <samplecharacteristics>
                            <anamorphic>FALSE</anamorphic>
                            <pixelaspectratio>square</pixelaspectratio>
                            <fielddominance>none</fielddominance>
                            <width>1993</width>
                            <height>1300</height>
                          </samplecharacteristics>
                        </video>
                      </media>
                    </file>
                  </clipitem>
                </track>
              </video>
            </media>
          </clip>
          <clip explodedTracks="true" frameBlend="FALSE" id="masterclip-92">
            <uuid>eb09bffc-1cab-426d-aa4b-b68586543839</uuid>
            <masterclipid>masterclip-92</masterclipid>
            <ismasterclip>TRUE</ismasterclip>
            <duration>129</duration>
            <in>0</in>
            <out>129</out>
            <name>CH_BreatheFence_B.png.90.png</name>
            <rate>
              <timebase>12</timebase>
              <ntsc>FALSE</ntsc>
            </rate>
            <media>
              <video>
                <track>
                  <clipitem frameBlend="FALSE" id="clipitem-93">
                    <name>CH_BreatheFence_B.png.90.png</name>
                    <masterclipid>masterclip-92</masterclipid>
                    <rate>
                      <timebase>12</timebase>
                      <ntsc>FALSE</ntsc>
                    </rate>
                    <alphatype>straight</alphatype>
                    <pixelaspectratio>square</pixelaspectratio>
                    <anamorphic>FALSE</anamorphic>
                    <file id="file-92">
                      <name>CH_BreatheFence_B.png.90.png</name>
                      <pathurl>file://localhost/Users/MAK/Dropbox/4thBoxAssets/CA_files_by_Character/BreatheFacingFence/CH_BreatheFence_B.png/CH_BreatheFence_B.png.90.png</pathurl>
                      <rate>
                        <timebase>12</timebase>
                        <ntsc>FALSE</ntsc>
                      </rate>
                      <duration>129</duration>
                      <timecode>
                        <rate>
                          <timebase>12</timebase>
                          <ntsc>FALSE</ntsc>
                        </rate>
                      </timecode>
                      <media>
                        <video>
                          <duration>1</duration>
                          <samplecharacteristics>
                            <anamorphic>FALSE</anamorphic>
                            <pixelaspectratio>square</pixelaspectratio>
                            <fielddominance>none</fielddominance>
                            <width>1993</width>
                            <height>1300</height>
                          </samplecharacteristics>
                        </video>
                      </media>
                    </file>
                  </clipitem>
                </track>
              </video>
            </media>
          </clip>
          <clip explodedTracks="true" frameBlend="FALSE" id="masterclip-93">
            <uuid>13ec1497-66cb-4117-b41b-c9a83c0b1f72</uuid>
            <masterclipid>masterclip-93</masterclipid>
            <ismasterclip>TRUE</ismasterclip>
            <duration>129</duration>
            <in>0</in>
            <out>129</out>
            <name>CH_BreatheFence_B.png.91.png</name>
            <rate>
              <timebase>12</timebase>
              <ntsc>FALSE</ntsc>
            </rate>
            <media>
              <video>
                <track>
                  <clipitem frameBlend="FALSE" id="clipitem-94">
                    <name>CH_BreatheFence_B.png.91.png</name>
                    <masterclipid>masterclip-93</masterclipid>
                    <rate>
                      <timebase>12</timebase>
                      <ntsc>FALSE</ntsc>
                    </rate>
                    <alphatype>straight</alphatype>
                    <pixelaspectratio>square</pixelaspectratio>
                    <anamorphic>FALSE</anamorphic>
                    <file id="file-93">
                      <name>CH_BreatheFence_B.png.91.png</name>
                      <pathurl>file://localhost/Users/MAK/Dropbox/4thBoxAssets/CA_files_by_Character/BreatheFacingFence/CH_BreatheFence_B.png/CH_BreatheFence_B.png.91.png</pathurl>
                      <rate>
                        <timebase>12</timebase>
                        <ntsc>FALSE</ntsc>
                      </rate>
                      <duration>129</duration>
                      <timecode>
                        <rate>
                          <timebase>12</timebase>
                          <ntsc>FALSE</ntsc>
                        </rate>
                      </timecode>
                      <media>
                        <video>
                          <duration>1</duration>
                          <samplecharacteristics>
                            <anamorphic>FALSE</anamorphic>
                            <pixelaspectratio>square</pixelaspectratio>
                            <fielddominance>none</fielddominance>
                            <width>1993</width>
                            <height>1300</height>
                          </samplecharacteristics>
                        </video>
                      </media>
                    </file>
                  </clipitem>
                </track>
              </video>
            </media>
          </clip>
          <clip explodedTracks="true" frameBlend="FALSE" id="masterclip-94">
            <uuid>57c77410-06c4-4ec5-be7a-ba818efc30bf</uuid>
            <masterclipid>masterclip-94</masterclipid>
            <ismasterclip>TRUE</ismasterclip>
            <duration>129</duration>
            <in>0</in>
            <out>129</out>
            <name>CH_BreatheFence_B.png.92.png</name>
            <rate>
              <timebase>12</timebase>
              <ntsc>FALSE</ntsc>
            </rate>
            <media>
              <video>
                <track>
                  <clipitem frameBlend="FALSE" id="clipitem-95">
                    <name>CH_BreatheFence_B.png.92.png</name>
                    <masterclipid>masterclip-94</masterclipid>
                    <rate>
                      <timebase>12</timebase>
                      <ntsc>FALSE</ntsc>
                    </rate>
                    <alphatype>straight</alphatype>
                    <pixelaspectratio>square</pixelaspectratio>
                    <anamorphic>FALSE</anamorphic>
                    <file id="file-94">
                      <name>CH_BreatheFence_B.png.92.png</name>
                      <pathurl>file://localhost/Users/MAK/Dropbox/4thBoxAssets/CA_files_by_Character/BreatheFacingFence/CH_BreatheFence_B.png/CH_BreatheFence_B.png.92.png</pathurl>
                      <rate>
                        <timebase>12</timebase>
                        <ntsc>FALSE</ntsc>
                      </rate>
                      <duration>129</duration>
                      <timecode>
                        <rate>
                          <timebase>12</timebase>
                          <ntsc>FALSE</ntsc>
                        </rate>
                      </timecode>
                      <media>
                        <video>
                          <duration>1</duration>
                          <samplecharacteristics>
                            <anamorphic>FALSE</anamorphic>
                            <pixelaspectratio>square</pixelaspectratio>
                            <fielddominance>none</fielddominance>
                            <width>1993</width>
                            <height>1300</height>
                          </samplecharacteristics>
                        </video>
                      </media>
                    </file>
                  </clipitem>
                </track>
              </video>
            </media>
          </clip>
          <clip explodedTracks="true" frameBlend="FALSE" id="masterclip-95">
            <uuid>09385173-12f6-4a98-8022-17c8c6ededfa</uuid>
            <masterclipid>masterclip-95</masterclipid>
            <ismasterclip>TRUE</ismasterclip>
            <duration>129</duration>
            <in>0</in>
            <out>129</out>
            <name>CH_BreatheFence_B.png.93.png</name>
            <rate>
              <timebase>12</timebase>
              <ntsc>FALSE</ntsc>
            </rate>
            <media>
              <video>
                <track>
                  <clipitem frameBlend="FALSE" id="clipitem-96">
                    <name>CH_BreatheFence_B.png.93.png</name>
                    <masterclipid>masterclip-95</masterclipid>
                    <rate>
                      <timebase>12</timebase>
                      <ntsc>FALSE</ntsc>
                    </rate>
                    <alphatype>straight</alphatype>
                    <pixelaspectratio>square</pixelaspectratio>
                    <anamorphic>FALSE</anamorphic>
                    <file id="file-95">
                      <name>CH_BreatheFence_B.png.93.png</name>
                      <pathurl>file://localhost/Users/MAK/Dropbox/4thBoxAssets/CA_files_by_Character/BreatheFacingFence/CH_BreatheFence_B.png/CH_BreatheFence_B.png.93.png</pathurl>
                      <rate>
                        <timebase>12</timebase>
                        <ntsc>FALSE</ntsc>
                      </rate>
                      <duration>129</duration>
                      <timecode>
                        <rate>
                          <timebase>12</timebase>
                          <ntsc>FALSE</ntsc>
                        </rate>
                      </timecode>
                      <media>
                        <video>
                          <duration>1</duration>
                          <samplecharacteristics>
                            <anamorphic>FALSE</anamorphic>
                            <pixelaspectratio>square</pixelaspectratio>
                            <fielddominance>none</fielddominance>
                            <width>1993</width>
                            <height>1300</height>
                          </samplecharacteristics>
                        </video>
                      </media>
                    </file>
                  </clipitem>
                </track>
              </video>
            </media>
          </clip>
          <clip explodedTracks="true" frameBlend="FALSE" id="masterclip-96">
            <uuid>0e3512c5-8b63-41c0-bb98-4f6129a0e56d</uuid>
            <masterclipid>masterclip-96</masterclipid>
            <ismasterclip>TRUE</ismasterclip>
            <duration>129</duration>
            <in>0</in>
            <out>129</out>
            <name>CH_BreatheFence_B.png.94.png</name>
            <rate>
              <timebase>12</timebase>
              <ntsc>FALSE</ntsc>
            </rate>
            <media>
              <video>
                <track>
                  <clipitem frameBlend="FALSE" id="clipitem-97">
                    <name>CH_BreatheFence_B.png.94.png</name>
                    <masterclipid>masterclip-96</masterclipid>
                    <rate>
                      <timebase>12</timebase>
                      <ntsc>FALSE</ntsc>
                    </rate>
                    <alphatype>straight</alphatype>
                    <pixelaspectratio>square</pixelaspectratio>
                    <anamorphic>FALSE</anamorphic>
                    <file id="file-96">
                      <name>CH_BreatheFence_B.png.94.png</name>
                      <pathurl>file://localhost/Users/MAK/Dropbox/4thBoxAssets/CA_files_by_Character/BreatheFacingFence/CH_BreatheFence_B.png/CH_BreatheFence_B.png.94.png</pathurl>
                      <rate>
                        <timebase>12</timebase>
                        <ntsc>FALSE</ntsc>
                      </rate>
                      <duration>129</duration>
                      <timecode>
                        <rate>
                          <timebase>12</timebase>
                          <ntsc>FALSE</ntsc>
                        </rate>
                      </timecode>
                      <media>
                        <video>
                          <duration>1</duration>
                          <samplecharacteristics>
                            <anamorphic>FALSE</anamorphic>
                            <pixelaspectratio>square</pixelaspectratio>
                            <fielddominance>none</fielddominance>
                            <width>1993</width>
                            <height>1300</height>
                          </samplecharacteristics>
                        </video>
                      </media>
                    </file>
                  </clipitem>
                </track>
              </video>
            </media>
          </clip>
          <clip explodedTracks="true" frameBlend="FALSE" id="masterclip-97">
            <uuid>e8ce5872-fcbe-4343-818b-2027f4b82b0e</uuid>
            <masterclipid>masterclip-97</masterclipid>
            <ismasterclip>TRUE</ismasterclip>
            <duration>129</duration>
            <in>0</in>
            <out>129</out>
            <name>CH_BreatheFence_B.png.95.png</name>
            <rate>
              <timebase>12</timebase>
              <ntsc>FALSE</ntsc>
            </rate>
            <media>
              <video>
                <track>
                  <clipitem frameBlend="FALSE" id="clipitem-98">
                    <name>CH_BreatheFence_B.png.95.png</name>
                    <masterclipid>masterclip-97</masterclipid>
                    <rate>
                      <timebase>12</timebase>
                      <ntsc>FALSE</ntsc>
                    </rate>
                    <alphatype>straight</alphatype>
                    <pixelaspectratio>square</pixelaspectratio>
                    <anamorphic>FALSE</anamorphic>
                    <file id="file-97">
                      <name>CH_BreatheFence_B.png.95.png</name>
                      <pathurl>file://localhost/Users/MAK/Dropbox/4thBoxAssets/CA_files_by_Character/BreatheFacingFence/CH_BreatheFence_B.png/CH_BreatheFence_B.png.95.png</pathurl>
                      <rate>
                        <timebase>12</timebase>
                        <ntsc>FALSE</ntsc>
                      </rate>
                      <duration>129</duration>
                      <timecode>
                        <rate>
                          <timebase>12</timebase>
                          <ntsc>FALSE</ntsc>
                        </rate>
                      </timecode>
                      <media>
                        <video>
                          <duration>1</duration>
                          <samplecharacteristics>
                            <anamorphic>FALSE</anamorphic>
                            <pixelaspectratio>square</pixelaspectratio>
                            <fielddominance>none</fielddominance>
                            <width>1993</width>
                            <height>1300</height>
                          </samplecharacteristics>
                        </video>
                      </media>
                    </file>
                  </clipitem>
                </track>
              </video>
            </media>
          </clip>
          <clip explodedTracks="true" frameBlend="FALSE" id="masterclip-98">
            <uuid>07b3f899-b5c9-4775-9472-d5d2d04c8a79</uuid>
            <masterclipid>masterclip-98</masterclipid>
            <ismasterclip>TRUE</ismasterclip>
            <duration>129</duration>
            <in>0</in>
            <out>129</out>
            <name>CH_BreatheFence_B.png.96.png</name>
            <rate>
              <timebase>12</timebase>
              <ntsc>FALSE</ntsc>
            </rate>
            <media>
              <video>
                <track>
                  <clipitem frameBlend="FALSE" id="clipitem-99">
                    <name>CH_BreatheFence_B.png.96.png</name>
                    <masterclipid>masterclip-98</masterclipid>
                    <rate>
                      <timebase>12</timebase>
                      <ntsc>FALSE</ntsc>
                    </rate>
                    <alphatype>straight</alphatype>
                    <pixelaspectratio>square</pixelaspectratio>
                    <anamorphic>FALSE</anamorphic>
                    <file id="file-98">
                      <name>CH_BreatheFence_B.png.96.png</name>
                      <pathurl>file://localhost/Users/MAK/Dropbox/4thBoxAssets/CA_files_by_Character/BreatheFacingFence/CH_BreatheFence_B.png/CH_BreatheFence_B.png.96.png</pathurl>
                      <rate>
                        <timebase>12</timebase>
                        <ntsc>FALSE</ntsc>
                      </rate>
                      <duration>129</duration>
                      <timecode>
                        <rate>
                          <timebase>12</timebase>
                          <ntsc>FALSE</ntsc>
                        </rate>
                      </timecode>
                      <media>
                        <video>
                          <duration>1</duration>
                          <samplecharacteristics>
                            <anamorphic>FALSE</anamorphic>
                            <pixelaspectratio>square</pixelaspectratio>
                            <fielddominance>none</fielddominance>
                            <width>1993</width>
                            <height>1300</height>
                          </samplecharacteristics>
                        </video>
                      </media>
                    </file>
                  </clipitem>
                </track>
              </video>
            </media>
          </clip>
          <clip explodedTracks="true" frameBlend="FALSE" id="masterclip-99">
            <uuid>56fb415c-1c0b-4fa0-8d50-c9f99d7851b3</uuid>
            <masterclipid>masterclip-99</masterclipid>
            <ismasterclip>TRUE</ismasterclip>
            <duration>129</duration>
            <in>0</in>
            <out>129</out>
            <name>CH_BreatheFence_B.png.97.png</name>
            <rate>
              <timebase>12</timebase>
              <ntsc>FALSE</ntsc>
            </rate>
            <media>
              <video>
                <track>
                  <clipitem frameBlend="FALSE" id="clipitem-100">
                    <name>CH_BreatheFence_B.png.97.png</name>
                    <masterclipid>masterclip-99</masterclipid>
                    <rate>
                      <timebase>12</timebase>
                      <ntsc>FALSE</ntsc>
                    </rate>
                    <alphatype>straight</alphatype>
                    <pixelaspectratio>square</pixelaspectratio>
                    <anamorphic>FALSE</anamorphic>
                    <file id="file-99">
                      <name>CH_BreatheFence_B.png.97.png</name>
                      <pathurl>file://localhost/Users/MAK/Dropbox/4thBoxAssets/CA_files_by_Character/BreatheFacingFence/CH_BreatheFence_B.png/CH_BreatheFence_B.png.97.png</pathurl>
                      <rate>
                        <timebase>12</timebase>
                        <ntsc>FALSE</ntsc>
                      </rate>
                      <duration>129</duration>
                      <timecode>
                        <rate>
                          <timebase>12</timebase>
                          <ntsc>FALSE</ntsc>
                        </rate>
                      </timecode>
                      <media>
                        <video>
                          <duration>1</duration>
                          <samplecharacteristics>
                            <anamorphic>FALSE</anamorphic>
                            <pixelaspectratio>square</pixelaspectratio>
                            <fielddominance>none</fielddominance>
                            <width>1993</width>
                            <height>1300</height>
                          </samplecharacteristics>
                        </video>
                      </media>
                    </file>
                  </clipitem>
                </track>
              </video>
            </media>
          </clip>
          <clip explodedTracks="true" frameBlend="FALSE" id="masterclip-100">
            <uuid>e16f1198-19c6-4dcd-91c0-575d7bb6597d</uuid>
            <masterclipid>masterclip-100</masterclipid>
            <ismasterclip>TRUE</ismasterclip>
            <duration>129</duration>
            <in>0</in>
            <out>129</out>
            <name>CH_BreatheFence_B.png.98.png</name>
            <rate>
              <timebase>12</timebase>
              <ntsc>FALSE</ntsc>
            </rate>
            <media>
              <video>
                <track>
                  <clipitem frameBlend="FALSE" id="clipitem-101">
                    <name>CH_BreatheFence_B.png.98.png</name>
                    <masterclipid>masterclip-100</masterclipid>
                    <rate>
                      <timebase>12</timebase>
                      <ntsc>FALSE</ntsc>
                    </rate>
                    <alphatype>straight</alphatype>
                    <pixelaspectratio>square</pixelaspectratio>
                    <anamorphic>FALSE</anamorphic>
                    <file id="file-100">
                      <name>CH_BreatheFence_B.png.98.png</name>
                      <pathurl>file://localhost/Users/MAK/Dropbox/4thBoxAssets/CA_files_by_Character/BreatheFacingFence/CH_BreatheFence_B.png/CH_BreatheFence_B.png.98.png</pathurl>
                      <rate>
                        <timebase>12</timebase>
                        <ntsc>FALSE</ntsc>
                      </rate>
                      <duration>129</duration>
                      <timecode>
                        <rate>
                          <timebase>12</timebase>
                          <ntsc>FALSE</ntsc>
                        </rate>
                      </timecode>
                      <media>
                        <video>
                          <duration>1</duration>
                          <samplecharacteristics>
                            <anamorphic>FALSE</anamorphic>
                            <pixelaspectratio>square</pixelaspectratio>
                            <fielddominance>none</fielddominance>
                            <width>1993</width>
                            <height>1300</height>
                          </samplecharacteristics>
                        </video>
                      </media>
                    </file>
                  </clipitem>
                </track>
              </video>
            </media>
          </clip>
          <clip explodedTracks="true" frameBlend="FALSE" id="masterclip-101">
            <uuid>5a5b6e25-8235-4ee0-b2bf-37c539647ab0</uuid>
            <masterclipid>masterclip-101</masterclipid>
            <ismasterclip>TRUE</ismasterclip>
            <duration>129</duration>
            <in>0</in>
            <out>129</out>
            <name>CH_BreatheFence_B.png.99.png</name>
            <rate>
              <timebase>12</timebase>
              <ntsc>FALSE</ntsc>
            </rate>
            <media>
              <video>
                <track>
                  <clipitem frameBlend="FALSE" id="clipitem-102">
                    <name>CH_BreatheFence_B.png.99.png</name>
                    <masterclipid>masterclip-101</masterclipid>
                    <rate>
                      <timebase>12</timebase>
                      <ntsc>FALSE</ntsc>
                    </rate>
                    <alphatype>straight</alphatype>
                    <pixelaspectratio>square</pixelaspectratio>
                    <anamorphic>FALSE</anamorphic>
                    <file id="file-101">
                      <name>CH_BreatheFence_B.png.99.png</name>
                      <pathurl>file://localhost/Users/MAK/Dropbox/4thBoxAssets/CA_files_by_Character/BreatheFacingFence/CH_BreatheFence_B.png/CH_BreatheFence_B.png.99.png</pathurl>
                      <rate>
                        <timebase>12</timebase>
                        <ntsc>FALSE</ntsc>
                      </rate>
                      <duration>129</duration>
                      <timecode>
                        <rate>
                          <timebase>12</timebase>
                          <ntsc>FALSE</ntsc>
                        </rate>
                      </timecode>
                      <media>
                        <video>
                          <duration>1</duration>
                          <samplecharacteristics>
                            <anamorphic>FALSE</anamorphic>
                            <pixelaspectratio>square</pixelaspectratio>
                            <fielddominance>none</fielddominance>
                            <width>1993</width>
                            <height>1300</height>
                          </samplecharacteristics>
                        </video>
                      </media>
                    </file>
                  </clipitem>
                </track>
              </video>
            </media>
          </clip>
          <clip explodedTracks="true" frameBlend="FALSE" id="masterclip-102">
            <uuid>7074654a-6861-433e-8443-63135f4a6861</uuid>
            <masterclipid>masterclip-102</masterclipid>
            <ismasterclip>TRUE</ismasterclip>
            <duration>129</duration>
            <in>0</in>
            <out>129</out>
            <name>CH_BreatheFence_B.png.100.png</name>
            <rate>
              <timebase>12</timebase>
              <ntsc>FALSE</ntsc>
            </rate>
            <media>
              <video>
                <track>
                  <clipitem frameBlend="FALSE" id="clipitem-103">
                    <name>CH_BreatheFence_B.png.100.png</name>
                    <masterclipid>masterclip-102</masterclipid>
                    <rate>
                      <timebase>12</timebase>
                      <ntsc>FALSE</ntsc>
                    </rate>
                    <alphatype>straight</alphatype>
                    <pixelaspectratio>square</pixelaspectratio>
                    <anamorphic>FALSE</anamorphic>
                    <file id="file-102">
                      <name>CH_BreatheFence_B.png.100.png</name>
                      <pathurl>file://localhost/Users/MAK/Dropbox/4thBoxAssets/CA_files_by_Character/BreatheFacingFence/CH_BreatheFence_B.png/CH_BreatheFence_B.png.100.png</pathurl>
                      <rate>
                        <timebase>12</timebase>
                        <ntsc>FALSE</ntsc>
                      </rate>
                      <duration>129</duration>
                      <timecode>
                        <rate>
                          <timebase>12</timebase>
                          <ntsc>FALSE</ntsc>
                        </rate>
                      </timecode>
                      <media>
                        <video>
                          <duration>1</duration>
                          <samplecharacteristics>
                            <anamorphic>FALSE</anamorphic>
                            <pixelaspectratio>square</pixelaspectratio>
                            <fielddominance>none</fielddominance>
                            <width>1993</width>
                            <height>1300</height>
                          </samplecharacteristics>
                        </video>
                      </media>
                    </file>
                  </clipitem>
                </track>
              </video>
            </media>
          </clip>
          <clip explodedTracks="true" frameBlend="FALSE" id="masterclip-103">
            <uuid>c988e430-52f9-45ba-b9ce-2dca90e166f3</uuid>
            <masterclipid>masterclip-103</masterclipid>
            <ismasterclip>TRUE</ismasterclip>
            <duration>129</duration>
            <in>0</in>
            <out>129</out>
            <name>CH_BreatheFence_B.png.101.png</name>
            <rate>
              <timebase>12</timebase>
              <ntsc>FALSE</ntsc>
            </rate>
            <media>
              <video>
                <track>
                  <clipitem frameBlend="FALSE" id="clipitem-104">
                    <name>CH_BreatheFence_B.png.101.png</name>
                    <masterclipid>masterclip-103</masterclipid>
                    <rate>
                      <timebase>12</timebase>
                      <ntsc>FALSE</ntsc>
                    </rate>
                    <alphatype>straight</alphatype>
                    <pixelaspectratio>square</pixelaspectratio>
                    <anamorphic>FALSE</anamorphic>
                    <file id="file-103">
                      <name>CH_BreatheFence_B.png.101.png</name>
                      <pathurl>file://localhost/Users/MAK/Dropbox/4thBoxAssets/CA_files_by_Character/BreatheFacingFence/CH_BreatheFence_B.png/CH_BreatheFence_B.png.101.png</pathurl>
                      <rate>
                        <timebase>12</timebase>
                        <ntsc>FALSE</ntsc>
                      </rate>
                      <duration>129</duration>
                      <timecode>
                        <rate>
                          <timebase>12</timebase>
                          <ntsc>FALSE</ntsc>
                        </rate>
                      </timecode>
                      <media>
                        <video>
                          <duration>1</duration>
                          <samplecharacteristics>
                            <anamorphic>FALSE</anamorphic>
                            <pixelaspectratio>square</pixelaspectratio>
                            <fielddominance>none</fielddominance>
                            <width>1993</width>
                            <height>1300</height>
                          </samplecharacteristics>
                        </video>
                      </media>
                    </file>
                  </clipitem>
                </track>
              </video>
            </media>
          </clip>
          <clip explodedTracks="true" frameBlend="FALSE" id="masterclip-104">
            <uuid>9c05fb44-71f4-4dc2-87a6-1e4df5c14db3</uuid>
            <masterclipid>masterclip-104</masterclipid>
            <ismasterclip>TRUE</ismasterclip>
            <duration>129</duration>
            <in>0</in>
            <out>129</out>
            <name>CH_BreatheFence_B.png.102.png</name>
            <rate>
              <timebase>12</timebase>
              <ntsc>FALSE</ntsc>
            </rate>
            <media>
              <video>
                <track>
                  <clipitem frameBlend="FALSE" id="clipitem-105">
                    <name>CH_BreatheFence_B.png.102.png</name>
                    <masterclipid>masterclip-104</masterclipid>
                    <rate>
                      <timebase>12</timebase>
                      <ntsc>FALSE</ntsc>
                    </rate>
                    <alphatype>straight</alphatype>
                    <pixelaspectratio>square</pixelaspectratio>
                    <anamorphic>FALSE</anamorphic>
                    <file id="file-104">
                      <name>CH_BreatheFence_B.png.102.png</name>
                      <pathurl>file://localhost/Users/MAK/Dropbox/4thBoxAssets/CA_files_by_Character/BreatheFacingFence/CH_BreatheFence_B.png/CH_BreatheFence_B.png.102.png</pathurl>
                      <rate>
                        <timebase>12</timebase>
                        <ntsc>FALSE</ntsc>
                      </rate>
                      <duration>129</duration>
                      <timecode>
                        <rate>
                          <timebase>12</timebase>
                          <ntsc>FALSE</ntsc>
                        </rate>
                      </timecode>
                      <media>
                        <video>
                          <duration>1</duration>
                          <samplecharacteristics>
                            <anamorphic>FALSE</anamorphic>
                            <pixelaspectratio>square</pixelaspectratio>
                            <fielddominance>none</fielddominance>
                            <width>1993</width>
                            <height>1300</height>
                          </samplecharacteristics>
                        </video>
                      </media>
                    </file>
                  </clipitem>
                </track>
              </video>
            </media>
          </clip>
          <clip explodedTracks="true" frameBlend="FALSE" id="masterclip-105">
            <uuid>f8054703-13ef-4d58-86f0-6a8ab31370d9</uuid>
            <masterclipid>masterclip-105</masterclipid>
            <ismasterclip>TRUE</ismasterclip>
            <duration>129</duration>
            <in>0</in>
            <out>129</out>
            <name>CH_BreatheFence_B.png.103.png</name>
            <rate>
              <timebase>12</timebase>
              <ntsc>FALSE</ntsc>
            </rate>
            <media>
              <video>
                <track>
                  <clipitem frameBlend="FALSE" id="clipitem-106">
                    <name>CH_BreatheFence_B.png.103.png</name>
                    <masterclipid>masterclip-105</masterclipid>
                    <rate>
                      <timebase>12</timebase>
                      <ntsc>FALSE</ntsc>
                    </rate>
                    <alphatype>straight</alphatype>
                    <pixelaspectratio>square</pixelaspectratio>
                    <anamorphic>FALSE</anamorphic>
                    <file id="file-105">
                      <name>CH_BreatheFence_B.png.103.png</name>
                      <pathurl>file://localhost/Users/MAK/Dropbox/4thBoxAssets/CA_files_by_Character/BreatheFacingFence/CH_BreatheFence_B.png/CH_BreatheFence_B.png.103.png</pathurl>
                      <rate>
                        <timebase>12</timebase>
                        <ntsc>FALSE</ntsc>
                      </rate>
                      <duration>129</duration>
                      <timecode>
                        <rate>
                          <timebase>12</timebase>
                          <ntsc>FALSE</ntsc>
                        </rate>
                      </timecode>
                      <media>
                        <video>
                          <duration>1</duration>
                          <samplecharacteristics>
                            <anamorphic>FALSE</anamorphic>
                            <pixelaspectratio>square</pixelaspectratio>
                            <fielddominance>none</fielddominance>
                            <width>1993</width>
                            <height>1300</height>
                          </samplecharacteristics>
                        </video>
                      </media>
                    </file>
                  </clipitem>
                </track>
              </video>
            </media>
          </clip>
          <clip explodedTracks="true" frameBlend="FALSE" id="masterclip-106">
            <uuid>88da7277-8bdd-4bda-8ba6-041abe5456ba</uuid>
            <masterclipid>masterclip-106</masterclipid>
            <ismasterclip>TRUE</ismasterclip>
            <duration>129</duration>
            <in>0</in>
            <out>129</out>
            <name>CH_BreatheFence_B.png.104.png</name>
            <rate>
              <timebase>12</timebase>
              <ntsc>FALSE</ntsc>
            </rate>
            <media>
              <video>
                <track>
                  <clipitem frameBlend="FALSE" id="clipitem-107">
                    <name>CH_BreatheFence_B.png.104.png</name>
                    <masterclipid>masterclip-106</masterclipid>
                    <rate>
                      <timebase>12</timebase>
                      <ntsc>FALSE</ntsc>
                    </rate>
                    <alphatype>straight</alphatype>
                    <pixelaspectratio>square</pixelaspectratio>
                    <anamorphic>FALSE</anamorphic>
                    <file id="file-106">
                      <name>CH_BreatheFence_B.png.104.png</name>
                      <pathurl>file://localhost/Users/MAK/Dropbox/4thBoxAssets/CA_files_by_Character/BreatheFacingFence/CH_BreatheFence_B.png/CH_BreatheFence_B.png.104.png</pathurl>
                      <rate>
                        <timebase>12</timebase>
                        <ntsc>FALSE</ntsc>
                      </rate>
                      <duration>129</duration>
                      <timecode>
                        <rate>
                          <timebase>12</timebase>
                          <ntsc>FALSE</ntsc>
                        </rate>
                      </timecode>
                      <media>
                        <video>
                          <duration>1</duration>
                          <samplecharacteristics>
                            <anamorphic>FALSE</anamorphic>
                            <pixelaspectratio>square</pixelaspectratio>
                            <fielddominance>none</fielddominance>
                            <width>1993</width>
                            <height>1300</height>
                          </samplecharacteristics>
                        </video>
                      </media>
                    </file>
                  </clipitem>
                </track>
              </video>
            </media>
          </clip>
          <clip explodedTracks="true" frameBlend="FALSE" id="masterclip-107">
            <uuid>59a4fe48-b3bf-4561-95c1-588864eab2ca</uuid>
            <masterclipid>masterclip-107</masterclipid>
            <ismasterclip>TRUE</ismasterclip>
            <duration>129</duration>
            <in>0</in>
            <out>129</out>
            <name>CH_BreatheFence_B.png.105.png</name>
            <rate>
              <timebase>12</timebase>
              <ntsc>FALSE</ntsc>
            </rate>
            <media>
              <video>
                <track>
                  <clipitem frameBlend="FALSE" id="clipitem-108">
                    <name>CH_BreatheFence_B.png.105.png</name>
                    <masterclipid>masterclip-107</masterclipid>
                    <rate>
                      <timebase>12</timebase>
                      <ntsc>FALSE</ntsc>
                    </rate>
                    <alphatype>straight</alphatype>
                    <pixelaspectratio>square</pixelaspectratio>
                    <anamorphic>FALSE</anamorphic>
                    <file id="file-107">
                      <name>CH_BreatheFence_B.png.105.png</name>
                      <pathurl>file://localhost/Users/MAK/Dropbox/4thBoxAssets/CA_files_by_Character/BreatheFacingFence/CH_BreatheFence_B.png/CH_BreatheFence_B.png.105.png</pathurl>
                      <rate>
                        <timebase>12</timebase>
                        <ntsc>FALSE</ntsc>
                      </rate>
                      <duration>129</duration>
                      <timecode>
                        <rate>
                          <timebase>12</timebase>
                          <ntsc>FALSE</ntsc>
                        </rate>
                      </timecode>
                      <media>
                        <video>
                          <duration>1</duration>
                          <samplecharacteristics>
                            <anamorphic>FALSE</anamorphic>
                            <pixelaspectratio>square</pixelaspectratio>
                            <fielddominance>none</fielddominance>
                            <width>1993</width>
                            <height>1300</height>
                          </samplecharacteristics>
                        </video>
                      </media>
                    </file>
                  </clipitem>
                </track>
              </video>
            </media>
          </clip>
          <clip explodedTracks="true" frameBlend="FALSE" id="masterclip-108">
            <uuid>9e79d91c-4c95-4cf5-bee0-b908d4b0ef6a</uuid>
            <masterclipid>masterclip-108</masterclipid>
            <ismasterclip>TRUE</ismasterclip>
            <duration>129</duration>
            <in>0</in>
            <out>129</out>
            <name>CH_BreatheFence_B.png.106.png</name>
            <rate>
              <timebase>12</timebase>
              <ntsc>FALSE</ntsc>
            </rate>
            <media>
              <video>
                <track>
                  <clipitem frameBlend="FALSE" id="clipitem-109">
                    <name>CH_BreatheFence_B.png.106.png</name>
                    <masterclipid>masterclip-108</masterclipid>
                    <rate>
                      <timebase>12</timebase>
                      <ntsc>FALSE</ntsc>
                    </rate>
                    <alphatype>straight</alphatype>
                    <pixelaspectratio>square</pixelaspectratio>
                    <anamorphic>FALSE</anamorphic>
                    <file id="file-108">
                      <name>CH_BreatheFence_B.png.106.png</name>
                      <pathurl>file://localhost/Users/MAK/Dropbox/4thBoxAssets/CA_files_by_Character/BreatheFacingFence/CH_BreatheFence_B.png/CH_BreatheFence_B.png.106.png</pathurl>
                      <rate>
                        <timebase>12</timebase>
                        <ntsc>FALSE</ntsc>
                      </rate>
                      <duration>129</duration>
                      <timecode>
                        <rate>
                          <timebase>12</timebase>
                          <ntsc>FALSE</ntsc>
                        </rate>
                      </timecode>
                      <media>
                        <video>
                          <duration>1</duration>
                          <samplecharacteristics>
                            <anamorphic>FALSE</anamorphic>
                            <pixelaspectratio>square</pixelaspectratio>
                            <fielddominance>none</fielddominance>
                            <width>1993</width>
                            <height>1300</height>
                          </samplecharacteristics>
                        </video>
                      </media>
                    </file>
                  </clipitem>
                </track>
              </video>
            </media>
          </clip>
          <clip explodedTracks="true" frameBlend="FALSE" id="masterclip-109">
            <uuid>d65a088e-d871-4435-b58d-cab8c6297052</uuid>
            <masterclipid>masterclip-109</masterclipid>
            <ismasterclip>TRUE</ismasterclip>
            <duration>129</duration>
            <in>0</in>
            <out>129</out>
            <name>CH_BreatheFence_B.png.107.png</name>
            <rate>
              <timebase>12</timebase>
              <ntsc>FALSE</ntsc>
            </rate>
            <media>
              <video>
                <track>
                  <clipitem frameBlend="FALSE" id="clipitem-110">
                    <name>CH_BreatheFence_B.png.107.png</name>
                    <masterclipid>masterclip-109</masterclipid>
                    <rate>
                      <timebase>12</timebase>
                      <ntsc>FALSE</ntsc>
                    </rate>
                    <alphatype>straight</alphatype>
                    <pixelaspectratio>square</pixelaspectratio>
                    <anamorphic>FALSE</anamorphic>
                    <file id="file-109">
                      <name>CH_BreatheFence_B.png.107.png</name>
                      <pathurl>file://localhost/Users/MAK/Dropbox/4thBoxAssets/CA_files_by_Character/BreatheFacingFence/CH_BreatheFence_B.png/CH_BreatheFence_B.png.107.png</pathurl>
                      <rate>
                        <timebase>12</timebase>
                        <ntsc>FALSE</ntsc>
                      </rate>
                      <duration>129</duration>
                      <timecode>
                        <rate>
                          <timebase>12</timebase>
                          <ntsc>FALSE</ntsc>
                        </rate>
                      </timecode>
                      <media>
                        <video>
                          <duration>1</duration>
                          <samplecharacteristics>
                            <anamorphic>FALSE</anamorphic>
                            <pixelaspectratio>square</pixelaspectratio>
                            <fielddominance>none</fielddominance>
                            <width>1993</width>
                            <height>1300</height>
                          </samplecharacteristics>
                        </video>
                      </media>
                    </file>
                  </clipitem>
                </track>
              </video>
            </media>
          </clip>
          <clip explodedTracks="true" frameBlend="FALSE" id="masterclip-110">
            <uuid>ce5e21f0-7bd0-415c-a931-532b205c69e3</uuid>
            <masterclipid>masterclip-110</masterclipid>
            <ismasterclip>TRUE</ismasterclip>
            <duration>129</duration>
            <in>0</in>
            <out>129</out>
            <name>CH_BreatheFence_B.png.108.png</name>
            <rate>
              <timebase>12</timebase>
              <ntsc>FALSE</ntsc>
            </rate>
            <media>
              <video>
                <track>
                  <clipitem frameBlend="FALSE" id="clipitem-111">
                    <name>CH_BreatheFence_B.png.108.png</name>
                    <masterclipid>masterclip-110</masterclipid>
                    <rate>
                      <timebase>12</timebase>
                      <ntsc>FALSE</ntsc>
                    </rate>
                    <alphatype>straight</alphatype>
                    <pixelaspectratio>square</pixelaspectratio>
                    <anamorphic>FALSE</anamorphic>
                    <file id="file-110">
                      <name>CH_BreatheFence_B.png.108.png</name>
                      <pathurl>file://localhost/Users/MAK/Dropbox/4thBoxAssets/CA_files_by_Character/BreatheFacingFence/CH_BreatheFence_B.png/CH_BreatheFence_B.png.108.png</pathurl>
                      <rate>
                        <timebase>12</timebase>
                        <ntsc>FALSE</ntsc>
                      </rate>
                      <duration>129</duration>
                      <timecode>
                        <rate>
                          <timebase>12</timebase>
                          <ntsc>FALSE</ntsc>
                        </rate>
                      </timecode>
                      <media>
                        <video>
                          <duration>1</duration>
                          <samplecharacteristics>
                            <anamorphic>FALSE</anamorphic>
                            <pixelaspectratio>square</pixelaspectratio>
                            <fielddominance>none</fielddominance>
                            <width>1993</width>
                            <height>1300</height>
                          </samplecharacteristics>
                        </video>
                      </media>
                    </file>
                  </clipitem>
                </track>
              </video>
            </media>
          </clip>
          <clip explodedTracks="true" frameBlend="FALSE" id="masterclip-111">
            <uuid>69de8a04-f2b6-4f48-ac94-e9e27ae20838</uuid>
            <masterclipid>masterclip-111</masterclipid>
            <ismasterclip>TRUE</ismasterclip>
            <duration>129</duration>
            <in>0</in>
            <out>129</out>
            <name>CH_BreatheFence_B.png.109.png</name>
            <rate>
              <timebase>12</timebase>
              <ntsc>FALSE</ntsc>
            </rate>
            <media>
              <video>
                <track>
                  <clipitem frameBlend="FALSE" id="clipitem-112">
                    <name>CH_BreatheFence_B.png.109.png</name>
                    <masterclipid>masterclip-111</masterclipid>
                    <rate>
                      <timebase>12</timebase>
                      <ntsc>FALSE</ntsc>
                    </rate>
                    <alphatype>straight</alphatype>
                    <pixelaspectratio>square</pixelaspectratio>
                    <anamorphic>FALSE</anamorphic>
                    <file id="file-111">
                      <name>CH_BreatheFence_B.png.109.png</name>
                      <pathurl>file://localhost/Users/MAK/Dropbox/4thBoxAssets/CA_files_by_Character/BreatheFacingFence/CH_BreatheFence_B.png/CH_BreatheFence_B.png.109.png</pathurl>
                      <rate>
                        <timebase>12</timebase>
                        <ntsc>FALSE</ntsc>
                      </rate>
                      <duration>129</duration>
                      <timecode>
                        <rate>
                          <timebase>12</timebase>
                          <ntsc>FALSE</ntsc>
                        </rate>
                      </timecode>
                      <media>
                        <video>
                          <duration>1</duration>
                          <samplecharacteristics>
                            <anamorphic>FALSE</anamorphic>
                            <pixelaspectratio>square</pixelaspectratio>
                            <fielddominance>none</fielddominance>
                            <width>1993</width>
                            <height>1300</height>
                          </samplecharacteristics>
                        </video>
                      </media>
                    </file>
                  </clipitem>
                </track>
              </video>
            </media>
          </clip>
          <clip explodedTracks="true" frameBlend="FALSE" id="masterclip-112">
            <uuid>180c27c8-8c6d-4d02-acb3-248ef7476746</uuid>
            <masterclipid>masterclip-112</masterclipid>
            <ismasterclip>TRUE</ismasterclip>
            <duration>129</duration>
            <in>0</in>
            <out>129</out>
            <name>CH_BreatheFence_B.png.110.png</name>
            <rate>
              <timebase>12</timebase>
              <ntsc>FALSE</ntsc>
            </rate>
            <media>
              <video>
                <track>
                  <clipitem frameBlend="FALSE" id="clipitem-113">
                    <name>CH_BreatheFence_B.png.110.png</name>
                    <masterclipid>masterclip-112</masterclipid>
                    <rate>
                      <timebase>12</timebase>
                      <ntsc>FALSE</ntsc>
                    </rate>
                    <alphatype>straight</alphatype>
                    <pixelaspectratio>square</pixelaspectratio>
                    <anamorphic>FALSE</anamorphic>
                    <file id="file-112">
                      <name>CH_BreatheFence_B.png.110.png</name>
                      <pathurl>file://localhost/Users/MAK/Dropbox/4thBoxAssets/CA_files_by_Character/BreatheFacingFence/CH_BreatheFence_B.png/CH_BreatheFence_B.png.110.png</pathurl>
                      <rate>
                        <timebase>12</timebase>
                        <ntsc>FALSE</ntsc>
                      </rate>
                      <duration>129</duration>
                      <timecode>
                        <rate>
                          <timebase>12</timebase>
                          <ntsc>FALSE</ntsc>
                        </rate>
                      </timecode>
                      <media>
                        <video>
                          <duration>1</duration>
                          <samplecharacteristics>
                            <anamorphic>FALSE</anamorphic>
                            <pixelaspectratio>square</pixelaspectratio>
                            <fielddominance>none</fielddominance>
                            <width>1993</width>
                            <height>1300</height>
                          </samplecharacteristics>
                        </video>
                      </media>
                    </file>
                  </clipitem>
                </track>
              </video>
            </media>
          </clip>
          <clip explodedTracks="true" frameBlend="FALSE" id="masterclip-113">
            <uuid>b9ecd5b6-6768-481f-b9bd-09b54c5567d6</uuid>
            <masterclipid>masterclip-113</masterclipid>
            <ismasterclip>TRUE</ismasterclip>
            <duration>129</duration>
            <in>0</in>
            <out>129</out>
            <name>CH_BreatheFence_B.png.111.png</name>
            <rate>
              <timebase>12</timebase>
              <ntsc>FALSE</ntsc>
            </rate>
            <media>
              <video>
                <track>
                  <clipitem frameBlend="FALSE" id="clipitem-114">
                    <name>CH_BreatheFence_B.png.111.png</name>
                    <masterclipid>masterclip-113</masterclipid>
                    <rate>
                      <timebase>12</timebase>
                      <ntsc>FALSE</ntsc>
                    </rate>
                    <alphatype>straight</alphatype>
                    <pixelaspectratio>square</pixelaspectratio>
                    <anamorphic>FALSE</anamorphic>
                    <file id="file-113">
                      <name>CH_BreatheFence_B.png.111.png</name>
                      <pathurl>file://localhost/Users/MAK/Dropbox/4thBoxAssets/CA_files_by_Character/BreatheFacingFence/CH_BreatheFence_B.png/CH_BreatheFence_B.png.111.png</pathurl>
                      <rate>
                        <timebase>12</timebase>
                        <ntsc>FALSE</ntsc>
                      </rate>
                      <duration>129</duration>
                      <timecode>
                        <rate>
                          <timebase>12</timebase>
                          <ntsc>FALSE</ntsc>
                        </rate>
                      </timecode>
                      <media>
                        <video>
                          <duration>1</duration>
                          <samplecharacteristics>
                            <anamorphic>FALSE</anamorphic>
                            <pixelaspectratio>square</pixelaspectratio>
                            <fielddominance>none</fielddominance>
                            <width>1993</width>
                            <height>1300</height>
                          </samplecharacteristics>
                        </video>
                      </media>
                    </file>
                  </clipitem>
                </track>
              </video>
            </media>
          </clip>
          <clip explodedTracks="true" frameBlend="FALSE" id="masterclip-114">
            <uuid>e5eaf631-049e-4ad6-9db1-93d5720febc8</uuid>
            <masterclipid>masterclip-114</masterclipid>
            <ismasterclip>TRUE</ismasterclip>
            <duration>129</duration>
            <in>0</in>
            <out>129</out>
            <name>CH_BreatheFence_B.png.112.png</name>
            <rate>
              <timebase>12</timebase>
              <ntsc>FALSE</ntsc>
            </rate>
            <media>
              <video>
                <track>
                  <clipitem frameBlend="FALSE" id="clipitem-115">
                    <name>CH_BreatheFence_B.png.112.png</name>
                    <masterclipid>masterclip-114</masterclipid>
                    <rate>
                      <timebase>12</timebase>
                      <ntsc>FALSE</ntsc>
                    </rate>
                    <alphatype>straight</alphatype>
                    <pixelaspectratio>square</pixelaspectratio>
                    <anamorphic>FALSE</anamorphic>
                    <file id="file-114">
                      <name>CH_BreatheFence_B.png.112.png</name>
                      <pathurl>file://localhost/Users/MAK/Dropbox/4thBoxAssets/CA_files_by_Character/BreatheFacingFence/CH_BreatheFence_B.png/CH_BreatheFence_B.png.112.png</pathurl>
                      <rate>
                        <timebase>12</timebase>
                        <ntsc>FALSE</ntsc>
                      </rate>
                      <duration>129</duration>
                      <timecode>
                        <rate>
                          <timebase>12</timebase>
                          <ntsc>FALSE</ntsc>
                        </rate>
                      </timecode>
                      <media>
                        <video>
                          <duration>1</duration>
                          <samplecharacteristics>
                            <anamorphic>FALSE</anamorphic>
                            <pixelaspectratio>square</pixelaspectratio>
                            <fielddominance>none</fielddominance>
                            <width>1993</width>
                            <height>1300</height>
                          </samplecharacteristics>
                        </video>
                      </media>
                    </file>
                  </clipitem>
                </track>
              </video>
            </media>
          </clip>
          <clip explodedTracks="true" frameBlend="FALSE" id="masterclip-115">
            <uuid>bb9c36e3-3ead-4762-ad98-c584f2a1e37b</uuid>
            <masterclipid>masterclip-115</masterclipid>
            <ismasterclip>TRUE</ismasterclip>
            <duration>129</duration>
            <in>0</in>
            <out>129</out>
            <name>CH_BreatheFence_B.png.113.png</name>
            <rate>
              <timebase>12</timebase>
              <ntsc>FALSE</ntsc>
            </rate>
            <media>
              <video>
                <track>
                  <clipitem frameBlend="FALSE" id="clipitem-116">
                    <name>CH_BreatheFence_B.png.113.png</name>
                    <masterclipid>masterclip-115</masterclipid>
                    <rate>
                      <timebase>12</timebase>
                      <ntsc>FALSE</ntsc>
                    </rate>
                    <alphatype>straight</alphatype>
                    <pixelaspectratio>square</pixelaspectratio>
                    <anamorphic>FALSE</anamorphic>
                    <file id="file-115">
                      <name>CH_BreatheFence_B.png.113.png</name>
                      <pathurl>file://localhost/Users/MAK/Dropbox/4thBoxAssets/CA_files_by_Character/BreatheFacingFence/CH_BreatheFence_B.png/CH_BreatheFence_B.png.113.png</pathurl>
                      <rate>
                        <timebase>12</timebase>
                        <ntsc>FALSE</ntsc>
                      </rate>
                      <duration>129</duration>
                      <timecode>
                        <rate>
                          <timebase>12</timebase>
                          <ntsc>FALSE</ntsc>
                        </rate>
                      </timecode>
                      <media>
                        <video>
                          <duration>1</duration>
                          <samplecharacteristics>
                            <anamorphic>FALSE</anamorphic>
                            <pixelaspectratio>square</pixelaspectratio>
                            <fielddominance>none</fielddominance>
                            <width>1993</width>
                            <height>1300</height>
                          </samplecharacteristics>
                        </video>
                      </media>
                    </file>
                  </clipitem>
                </track>
              </video>
            </media>
          </clip>
          <clip explodedTracks="true" frameBlend="FALSE" id="masterclip-116">
            <uuid>aadc692c-ed62-4616-8521-690e69df88db</uuid>
            <masterclipid>masterclip-116</masterclipid>
            <ismasterclip>TRUE</ismasterclip>
            <duration>129</duration>
            <in>0</in>
            <out>129</out>
            <name>CH_BreatheFence_B.png.114.png</name>
            <rate>
              <timebase>12</timebase>
              <ntsc>FALSE</ntsc>
            </rate>
            <media>
              <video>
                <track>
                  <clipitem frameBlend="FALSE" id="clipitem-117">
                    <name>CH_BreatheFence_B.png.114.png</name>
                    <masterclipid>masterclip-116</masterclipid>
                    <rate>
                      <timebase>12</timebase>
                      <ntsc>FALSE</ntsc>
                    </rate>
                    <alphatype>straight</alphatype>
                    <pixelaspectratio>square</pixelaspectratio>
                    <anamorphic>FALSE</anamorphic>
                    <file id="file-116">
                      <name>CH_BreatheFence_B.png.114.png</name>
                      <pathurl>file://localhost/Users/MAK/Dropbox/4thBoxAssets/CA_files_by_Character/BreatheFacingFence/CH_BreatheFence_B.png/CH_BreatheFence_B.png.114.png</pathurl>
                      <rate>
                        <timebase>12</timebase>
                        <ntsc>FALSE</ntsc>
                      </rate>
                      <duration>129</duration>
                      <timecode>
                        <rate>
                          <timebase>12</timebase>
                          <ntsc>FALSE</ntsc>
                        </rate>
                      </timecode>
                      <media>
                        <video>
                          <duration>1</duration>
                          <samplecharacteristics>
                            <anamorphic>FALSE</anamorphic>
                            <pixelaspectratio>square</pixelaspectratio>
                            <fielddominance>none</fielddominance>
                            <width>1993</width>
                            <height>1300</height>
                          </samplecharacteristics>
                        </video>
                      </media>
                    </file>
                  </clipitem>
                </track>
              </video>
            </media>
          </clip>
          <clip explodedTracks="true" frameBlend="FALSE" id="masterclip-117">
            <uuid>d9f1d262-8658-4783-a104-fcdcc57637a4</uuid>
            <masterclipid>masterclip-117</masterclipid>
            <ismasterclip>TRUE</ismasterclip>
            <duration>129</duration>
            <in>0</in>
            <out>129</out>
            <name>CH_BreatheFence_B.png.115.png</name>
            <rate>
              <timebase>12</timebase>
              <ntsc>FALSE</ntsc>
            </rate>
            <media>
              <video>
                <track>
                  <clipitem frameBlend="FALSE" id="clipitem-118">
                    <name>CH_BreatheFence_B.png.115.png</name>
                    <masterclipid>masterclip-117</masterclipid>
                    <rate>
                      <timebase>12</timebase>
                      <ntsc>FALSE</ntsc>
                    </rate>
                    <alphatype>straight</alphatype>
                    <pixelaspectratio>square</pixelaspectratio>
                    <anamorphic>FALSE</anamorphic>
                    <file id="file-117">
                      <name>CH_BreatheFence_B.png.115.png</name>
                      <pathurl>file://localhost/Users/MAK/Dropbox/4thBoxAssets/CA_files_by_Character/BreatheFacingFence/CH_BreatheFence_B.png/CH_BreatheFence_B.png.115.png</pathurl>
                      <rate>
                        <timebase>12</timebase>
                        <ntsc>FALSE</ntsc>
                      </rate>
                      <duration>129</duration>
                      <timecode>
                        <rate>
                          <timebase>12</timebase>
                          <ntsc>FALSE</ntsc>
                        </rate>
                      </timecode>
                      <media>
                        <video>
                          <duration>1</duration>
                          <samplecharacteristics>
                            <anamorphic>FALSE</anamorphic>
                            <pixelaspectratio>square</pixelaspectratio>
                            <fielddominance>none</fielddominance>
                            <width>1993</width>
                            <height>1300</height>
                          </samplecharacteristics>
                        </video>
                      </media>
                    </file>
                  </clipitem>
                </track>
              </video>
            </media>
          </clip>
          <clip explodedTracks="true" frameBlend="FALSE" id="masterclip-118">
            <uuid>98856649-d61a-49f9-8916-c81b42011f78</uuid>
            <masterclipid>masterclip-118</masterclipid>
            <ismasterclip>TRUE</ismasterclip>
            <duration>129</duration>
            <in>0</in>
            <out>129</out>
            <name>CH_BreatheFence_B.png.116.png</name>
            <rate>
              <timebase>12</timebase>
              <ntsc>FALSE</ntsc>
            </rate>
            <media>
              <video>
                <track>
                  <clipitem frameBlend="FALSE" id="clipitem-119">
                    <name>CH_BreatheFence_B.png.116.png</name>
                    <masterclipid>masterclip-118</masterclipid>
                    <rate>
                      <timebase>12</timebase>
                      <ntsc>FALSE</ntsc>
                    </rate>
                    <alphatype>straight</alphatype>
                    <pixelaspectratio>square</pixelaspectratio>
                    <anamorphic>FALSE</anamorphic>
                    <file id="file-118">
                      <name>CH_BreatheFence_B.png.116.png</name>
                      <pathurl>file://localhost/Users/MAK/Dropbox/4thBoxAssets/CA_files_by_Character/BreatheFacingFence/CH_BreatheFence_B.png/CH_BreatheFence_B.png.116.png</pathurl>
                      <rate>
                        <timebase>12</timebase>
                        <ntsc>FALSE</ntsc>
                      </rate>
                      <duration>129</duration>
                      <timecode>
                        <rate>
                          <timebase>12</timebase>
                          <ntsc>FALSE</ntsc>
                        </rate>
                      </timecode>
                      <media>
                        <video>
                          <duration>1</duration>
                          <samplecharacteristics>
                            <anamorphic>FALSE</anamorphic>
                            <pixelaspectratio>square</pixelaspectratio>
                            <fielddominance>none</fielddominance>
                            <width>1993</width>
                            <height>1300</height>
                          </samplecharacteristics>
                        </video>
                      </media>
                    </file>
                  </clipitem>
                </track>
              </video>
            </media>
          </clip>
          <clip explodedTracks="true" frameBlend="FALSE" id="masterclip-119">
            <uuid>458d85d0-645d-4b3d-86e2-2a791db9f8e5</uuid>
            <masterclipid>masterclip-119</masterclipid>
            <ismasterclip>TRUE</ismasterclip>
            <duration>129</duration>
            <in>0</in>
            <out>129</out>
            <name>CH_BreatheFence_B.png.117.png</name>
            <rate>
              <timebase>12</timebase>
              <ntsc>FALSE</ntsc>
            </rate>
            <media>
              <video>
                <track>
                  <clipitem frameBlend="FALSE" id="clipitem-120">
                    <name>CH_BreatheFence_B.png.117.png</name>
                    <masterclipid>masterclip-119</masterclipid>
                    <rate>
                      <timebase>12</timebase>
                      <ntsc>FALSE</ntsc>
                    </rate>
                    <alphatype>straight</alphatype>
                    <pixelaspectratio>square</pixelaspectratio>
                    <anamorphic>FALSE</anamorphic>
                    <file id="file-119">
                      <name>CH_BreatheFence_B.png.117.png</name>
                      <pathurl>file://localhost/Users/MAK/Dropbox/4thBoxAssets/CA_files_by_Character/BreatheFacingFence/CH_BreatheFence_B.png/CH_BreatheFence_B.png.117.png</pathurl>
                      <rate>
                        <timebase>12</timebase>
                        <ntsc>FALSE</ntsc>
                      </rate>
                      <duration>129</duration>
                      <timecode>
                        <rate>
                          <timebase>12</timebase>
                          <ntsc>FALSE</ntsc>
                        </rate>
                      </timecode>
                      <media>
                        <video>
                          <duration>1</duration>
                          <samplecharacteristics>
                            <anamorphic>FALSE</anamorphic>
                            <pixelaspectratio>square</pixelaspectratio>
                            <fielddominance>none</fielddominance>
                            <width>1993</width>
                            <height>1300</height>
                          </samplecharacteristics>
                        </video>
                      </media>
                    </file>
                  </clipitem>
                </track>
              </video>
            </media>
          </clip>
          <clip explodedTracks="true" frameBlend="FALSE" id="masterclip-120">
            <uuid>f8e65cfd-306e-4757-80cc-9458979c9699</uuid>
            <masterclipid>masterclip-120</masterclipid>
            <ismasterclip>TRUE</ismasterclip>
            <duration>129</duration>
            <in>0</in>
            <out>129</out>
            <name>CH_BreatheFence_B.png.118.png</name>
            <rate>
              <timebase>12</timebase>
              <ntsc>FALSE</ntsc>
            </rate>
            <media>
              <video>
                <track>
                  <clipitem frameBlend="FALSE" id="clipitem-121">
                    <name>CH_BreatheFence_B.png.118.png</name>
                    <masterclipid>masterclip-120</masterclipid>
                    <rate>
                      <timebase>12</timebase>
                      <ntsc>FALSE</ntsc>
                    </rate>
                    <alphatype>straight</alphatype>
                    <pixelaspectratio>square</pixelaspectratio>
                    <anamorphic>FALSE</anamorphic>
                    <file id="file-120">
                      <name>CH_BreatheFence_B.png.118.png</name>
                      <pathurl>file://localhost/Users/MAK/Dropbox/4thBoxAssets/CA_files_by_Character/BreatheFacingFence/CH_BreatheFence_B.png/CH_BreatheFence_B.png.118.png</pathurl>
                      <rate>
                        <timebase>12</timebase>
                        <ntsc>FALSE</ntsc>
                      </rate>
                      <duration>129</duration>
                      <timecode>
                        <rate>
                          <timebase>12</timebase>
                          <ntsc>FALSE</ntsc>
                        </rate>
                      </timecode>
                      <media>
                        <video>
                          <duration>1</duration>
                          <samplecharacteristics>
                            <anamorphic>FALSE</anamorphic>
                            <pixelaspectratio>square</pixelaspectratio>
                            <fielddominance>none</fielddominance>
                            <width>1993</width>
                            <height>1300</height>
                          </samplecharacteristics>
                        </video>
                      </media>
                    </file>
                  </clipitem>
                </track>
              </video>
            </media>
          </clip>
          <clip explodedTracks="true" frameBlend="FALSE" id="masterclip-121">
            <uuid>b863ed5c-604d-4af7-84b0-072f09369d36</uuid>
            <masterclipid>masterclip-121</masterclipid>
            <ismasterclip>TRUE</ismasterclip>
            <duration>129</duration>
            <in>0</in>
            <out>129</out>
            <name>CH_BreatheFence_B.png.119.png</name>
            <rate>
              <timebase>12</timebase>
              <ntsc>FALSE</ntsc>
            </rate>
            <media>
              <video>
                <track>
                  <clipitem frameBlend="FALSE" id="clipitem-122">
                    <name>CH_BreatheFence_B.png.119.png</name>
                    <masterclipid>masterclip-121</masterclipid>
                    <rate>
                      <timebase>12</timebase>
                      <ntsc>FALSE</ntsc>
                    </rate>
                    <alphatype>straight</alphatype>
                    <pixelaspectratio>square</pixelaspectratio>
                    <anamorphic>FALSE</anamorphic>
                    <file id="file-121">
                      <name>CH_BreatheFence_B.png.119.png</name>
                      <pathurl>file://localhost/Users/MAK/Dropbox/4thBoxAssets/CA_files_by_Character/BreatheFacingFence/CH_BreatheFence_B.png/CH_BreatheFence_B.png.119.png</pathurl>
                      <rate>
                        <timebase>12</timebase>
                        <ntsc>FALSE</ntsc>
                      </rate>
                      <duration>129</duration>
                      <timecode>
                        <rate>
                          <timebase>12</timebase>
                          <ntsc>FALSE</ntsc>
                        </rate>
                      </timecode>
                      <media>
                        <video>
                          <duration>1</duration>
                          <samplecharacteristics>
                            <anamorphic>FALSE</anamorphic>
                            <pixelaspectratio>square</pixelaspectratio>
                            <fielddominance>none</fielddominance>
                            <width>1993</width>
                            <height>1300</height>
                          </samplecharacteristics>
                        </video>
                      </media>
                    </file>
                  </clipitem>
                </track>
              </video>
            </media>
          </clip>
          <clip explodedTracks="true" frameBlend="FALSE" id="masterclip-122">
            <uuid>73c1bc04-2cc3-461c-aff1-4c00094080f7</uuid>
            <masterclipid>masterclip-122</masterclipid>
            <ismasterclip>TRUE</ismasterclip>
            <duration>129</duration>
            <in>0</in>
            <out>129</out>
            <name>CH_BreatheFence_B.png.120.png</name>
            <rate>
              <timebase>12</timebase>
              <ntsc>FALSE</ntsc>
            </rate>
            <media>
              <video>
                <track>
                  <clipitem frameBlend="FALSE" id="clipitem-123">
                    <name>CH_BreatheFence_B.png.120.png</name>
                    <masterclipid>masterclip-122</masterclipid>
                    <rate>
                      <timebase>12</timebase>
                      <ntsc>FALSE</ntsc>
                    </rate>
                    <alphatype>straight</alphatype>
                    <pixelaspectratio>square</pixelaspectratio>
                    <anamorphic>FALSE</anamorphic>
                    <file id="file-122">
                      <name>CH_BreatheFence_B.png.120.png</name>
                      <pathurl>file://localhost/Users/MAK/Dropbox/4thBoxAssets/CA_files_by_Character/BreatheFacingFence/CH_BreatheFence_B.png/CH_BreatheFence_B.png.120.png</pathurl>
                      <rate>
                        <timebase>12</timebase>
                        <ntsc>FALSE</ntsc>
                      </rate>
                      <duration>129</duration>
                      <timecode>
                        <rate>
                          <timebase>12</timebase>
                          <ntsc>FALSE</ntsc>
                        </rate>
                      </timecode>
                      <media>
                        <video>
                          <duration>1</duration>
                          <samplecharacteristics>
                            <anamorphic>FALSE</anamorphic>
                            <pixelaspectratio>square</pixelaspectratio>
                            <fielddominance>none</fielddominance>
                            <width>1993</width>
                            <height>1300</height>
                          </samplecharacteristics>
                        </video>
                      </media>
                    </file>
                  </clipitem>
                </track>
              </video>
            </media>
          </clip>
          <clip explodedTracks="true" frameBlend="FALSE" id="masterclip-123">
            <uuid>c1d872ba-3fa2-4a8f-a62f-02d3f5ff0f8a</uuid>
            <masterclipid>masterclip-123</masterclipid>
            <ismasterclip>TRUE</ismasterclip>
            <duration>129</duration>
            <in>0</in>
            <out>129</out>
            <name>CH_BreatheFence_B.png.121.png</name>
            <rate>
              <timebase>12</timebase>
              <ntsc>FALSE</ntsc>
            </rate>
            <media>
              <video>
                <track>
                  <clipitem frameBlend="FALSE" id="clipitem-124">
                    <name>CH_BreatheFence_B.png.121.png</name>
                    <masterclipid>masterclip-123</masterclipid>
                    <rate>
                      <timebase>12</timebase>
                      <ntsc>FALSE</ntsc>
                    </rate>
                    <alphatype>straight</alphatype>
                    <pixelaspectratio>square</pixelaspectratio>
                    <anamorphic>FALSE</anamorphic>
                    <file id="file-123">
                      <name>CH_BreatheFence_B.png.121.png</name>
                      <pathurl>file://localhost/Users/MAK/Dropbox/4thBoxAssets/CA_files_by_Character/BreatheFacingFence/CH_BreatheFence_B.png/CH_BreatheFence_B.png.121.png</pathurl>
                      <rate>
                        <timebase>12</timebase>
                        <ntsc>FALSE</ntsc>
                      </rate>
                      <duration>129</duration>
                      <timecode>
                        <rate>
                          <timebase>12</timebase>
                          <ntsc>FALSE</ntsc>
                        </rate>
                      </timecode>
                      <media>
                        <video>
                          <duration>1</duration>
                          <samplecharacteristics>
                            <anamorphic>FALSE</anamorphic>
                            <pixelaspectratio>square</pixelaspectratio>
                            <fielddominance>none</fielddominance>
                            <width>1993</width>
                            <height>1300</height>
                          </samplecharacteristics>
                        </video>
                      </media>
                    </file>
                  </clipitem>
                </track>
              </video>
            </media>
          </clip>
          <clip explodedTracks="true" frameBlend="FALSE" id="masterclip-124">
            <uuid>dc339a83-cf00-45e6-bed2-d07e52a4c485</uuid>
            <masterclipid>masterclip-124</masterclipid>
            <ismasterclip>TRUE</ismasterclip>
            <duration>129</duration>
            <in>0</in>
            <out>129</out>
            <name>CH_BreatheFence_B.png.122.png</name>
            <rate>
              <timebase>12</timebase>
              <ntsc>FALSE</ntsc>
            </rate>
            <media>
              <video>
                <track>
                  <clipitem frameBlend="FALSE" id="clipitem-125">
                    <name>CH_BreatheFence_B.png.122.png</name>
                    <masterclipid>masterclip-124</masterclipid>
                    <rate>
                      <timebase>12</timebase>
                      <ntsc>FALSE</ntsc>
                    </rate>
                    <alphatype>straight</alphatype>
                    <pixelaspectratio>square</pixelaspectratio>
                    <anamorphic>FALSE</anamorphic>
                    <file id="file-124">
                      <name>CH_BreatheFence_B.png.122.png</name>
                      <pathurl>file://localhost/Users/MAK/Dropbox/4thBoxAssets/CA_files_by_Character/BreatheFacingFence/CH_BreatheFence_B.png/CH_BreatheFence_B.png.122.png</pathurl>
                      <rate>
                        <timebase>12</timebase>
                        <ntsc>FALSE</ntsc>
                      </rate>
                      <duration>129</duration>
                      <timecode>
                        <rate>
                          <timebase>12</timebase>
                          <ntsc>FALSE</ntsc>
                        </rate>
                      </timecode>
                      <media>
                        <video>
                          <duration>1</duration>
                          <samplecharacteristics>
                            <anamorphic>FALSE</anamorphic>
                            <pixelaspectratio>square</pixelaspectratio>
                            <fielddominance>none</fielddominance>
                            <width>1993</width>
                            <height>1300</height>
                          </samplecharacteristics>
                        </video>
                      </media>
                    </file>
                  </clipitem>
                </track>
              </video>
            </media>
          </clip>
          <clip explodedTracks="true" frameBlend="FALSE" id="masterclip-125">
            <uuid>540c489f-c1bf-4a61-8b36-645b98a7faca</uuid>
            <masterclipid>masterclip-125</masterclipid>
            <ismasterclip>TRUE</ismasterclip>
            <duration>129</duration>
            <in>0</in>
            <out>129</out>
            <name>CH_BreatheFence_B.png.123.png</name>
            <rate>
              <timebase>12</timebase>
              <ntsc>FALSE</ntsc>
            </rate>
            <media>
              <video>
                <track>
                  <clipitem frameBlend="FALSE" id="clipitem-126">
                    <name>CH_BreatheFence_B.png.123.png</name>
                    <masterclipid>masterclip-125</masterclipid>
                    <rate>
                      <timebase>12</timebase>
                      <ntsc>FALSE</ntsc>
                    </rate>
                    <alphatype>straight</alphatype>
                    <pixelaspectratio>square</pixelaspectratio>
                    <anamorphic>FALSE</anamorphic>
                    <file id="file-125">
                      <name>CH_BreatheFence_B.png.123.png</name>
                      <pathurl>file://localhost/Users/MAK/Dropbox/4thBoxAssets/CA_files_by_Character/BreatheFacingFence/CH_BreatheFence_B.png/CH_BreatheFence_B.png.123.png</pathurl>
                      <rate>
                        <timebase>12</timebase>
                        <ntsc>FALSE</ntsc>
                      </rate>
                      <duration>129</duration>
                      <timecode>
                        <rate>
                          <timebase>12</timebase>
                          <ntsc>FALSE</ntsc>
                        </rate>
                      </timecode>
                      <media>
                        <video>
                          <duration>1</duration>
                          <samplecharacteristics>
                            <anamorphic>FALSE</anamorphic>
                            <pixelaspectratio>square</pixelaspectratio>
                            <fielddominance>none</fielddominance>
                            <width>1993</width>
                            <height>1300</height>
                          </samplecharacteristics>
                        </video>
                      </media>
                    </file>
                  </clipitem>
                </track>
              </video>
            </media>
          </clip>
          <clip explodedTracks="true" frameBlend="FALSE" id="masterclip-126">
            <uuid>90502571-d9c8-4d04-b198-cae9409d71ce</uuid>
            <masterclipid>masterclip-126</masterclipid>
            <ismasterclip>TRUE</ismasterclip>
            <duration>129</duration>
            <in>0</in>
            <out>129</out>
            <name>CH_BreatheFence_B.png.124.png</name>
            <rate>
              <timebase>12</timebase>
              <ntsc>FALSE</ntsc>
            </rate>
            <media>
              <video>
                <track>
                  <clipitem frameBlend="FALSE" id="clipitem-127">
                    <name>CH_BreatheFence_B.png.124.png</name>
                    <masterclipid>masterclip-126</masterclipid>
                    <rate>
                      <timebase>12</timebase>
                      <ntsc>FALSE</ntsc>
                    </rate>
                    <alphatype>straight</alphatype>
                    <pixelaspectratio>square</pixelaspectratio>
                    <anamorphic>FALSE</anamorphic>
                    <file id="file-126">
                      <name>CH_BreatheFence_B.png.124.png</name>
                      <pathurl>file://localhost/Users/MAK/Dropbox/4thBoxAssets/CA_files_by_Character/BreatheFacingFence/CH_BreatheFence_B.png/CH_BreatheFence_B.png.124.png</pathurl>
                      <rate>
                        <timebase>12</timebase>
                        <ntsc>FALSE</ntsc>
                      </rate>
                      <duration>129</duration>
                      <timecode>
                        <rate>
                          <timebase>12</timebase>
                          <ntsc>FALSE</ntsc>
                        </rate>
                      </timecode>
                      <media>
                        <video>
                          <duration>1</duration>
                          <samplecharacteristics>
                            <anamorphic>FALSE</anamorphic>
                            <pixelaspectratio>square</pixelaspectratio>
                            <fielddominance>none</fielddominance>
                            <width>1993</width>
                            <height>1300</height>
                          </samplecharacteristics>
                        </video>
                      </media>
                    </file>
                  </clipitem>
                </track>
              </video>
            </media>
          </clip>
          <clip explodedTracks="true" frameBlend="FALSE" id="masterclip-127">
            <uuid>41bc29bb-32a5-47b0-a9c1-f8936c624574</uuid>
            <masterclipid>masterclip-127</masterclipid>
            <ismasterclip>TRUE</ismasterclip>
            <duration>129</duration>
            <in>0</in>
            <out>129</out>
            <name>CH_BreatheFence_B.png.125.png</name>
            <rate>
              <timebase>12</timebase>
              <ntsc>FALSE</ntsc>
            </rate>
            <media>
              <video>
                <track>
                  <clipitem frameBlend="FALSE" id="clipitem-128">
                    <name>CH_BreatheFence_B.png.125.png</name>
                    <masterclipid>masterclip-127</masterclipid>
                    <rate>
                      <timebase>12</timebase>
                      <ntsc>FALSE</ntsc>
                    </rate>
                    <alphatype>straight</alphatype>
                    <pixelaspectratio>square</pixelaspectratio>
                    <anamorphic>FALSE</anamorphic>
                    <file id="file-127">
                      <name>CH_BreatheFence_B.png.125.png</name>
                      <pathurl>file://localhost/Users/MAK/Dropbox/4thBoxAssets/CA_files_by_Character/BreatheFacingFence/CH_BreatheFence_B.png/CH_BreatheFence_B.png.125.png</pathurl>
                      <rate>
                        <timebase>12</timebase>
                        <ntsc>FALSE</ntsc>
                      </rate>
                      <duration>129</duration>
                      <timecode>
                        <rate>
                          <timebase>12</timebase>
                          <ntsc>FALSE</ntsc>
                        </rate>
                      </timecode>
                      <media>
                        <video>
                          <duration>1</duration>
                          <samplecharacteristics>
                            <anamorphic>FALSE</anamorphic>
                            <pixelaspectratio>square</pixelaspectratio>
                            <fielddominance>none</fielddominance>
                            <width>1993</width>
                            <height>1300</height>
                          </samplecharacteristics>
                        </video>
                      </media>
                    </file>
                  </clipitem>
                </track>
              </video>
            </media>
          </clip>
          <clip explodedTracks="true" frameBlend="FALSE" id="masterclip-128">
            <uuid>679f7eed-43dd-48aa-9753-8955edf9b9df</uuid>
            <masterclipid>masterclip-128</masterclipid>
            <ismasterclip>TRUE</ismasterclip>
            <duration>129</duration>
            <in>0</in>
            <out>129</out>
            <name>CH_BreatheFence_B.png.126.png</name>
            <rate>
              <timebase>12</timebase>
              <ntsc>FALSE</ntsc>
            </rate>
            <media>
              <video>
                <track>
                  <clipitem frameBlend="FALSE" id="clipitem-129">
                    <name>CH_BreatheFence_B.png.126.png</name>
                    <masterclipid>masterclip-128</masterclipid>
                    <rate>
                      <timebase>12</timebase>
                      <ntsc>FALSE</ntsc>
                    </rate>
                    <alphatype>straight</alphatype>
                    <pixelaspectratio>square</pixelaspectratio>
                    <anamorphic>FALSE</anamorphic>
                    <file id="file-128">
                      <name>CH_BreatheFence_B.png.126.png</name>
                      <pathurl>file://localhost/Users/MAK/Dropbox/4thBoxAssets/CA_files_by_Character/BreatheFacingFence/CH_BreatheFence_B.png/CH_BreatheFence_B.png.126.png</pathurl>
                      <rate>
                        <timebase>12</timebase>
                        <ntsc>FALSE</ntsc>
                      </rate>
                      <duration>129</duration>
                      <timecode>
                        <rate>
                          <timebase>12</timebase>
                          <ntsc>FALSE</ntsc>
                        </rate>
                      </timecode>
                      <media>
                        <video>
                          <duration>1</duration>
                          <samplecharacteristics>
                            <anamorphic>FALSE</anamorphic>
                            <pixelaspectratio>square</pixelaspectratio>
                            <fielddominance>none</fielddominance>
                            <width>1993</width>
                            <height>1300</height>
                          </samplecharacteristics>
                        </video>
                      </media>
                    </file>
                  </clipitem>
                </track>
              </video>
            </media>
          </clip>
          <clip explodedTracks="true" frameBlend="FALSE" id="masterclip-129">
            <uuid>1165d582-5a62-46f8-9eb6-ca0d7152adb2</uuid>
            <masterclipid>masterclip-129</masterclipid>
            <ismasterclip>TRUE</ismasterclip>
            <duration>129</duration>
            <in>0</in>
            <out>129</out>
            <name>CH_BreatheFence_B.png.127.png</name>
            <rate>
              <timebase>12</timebase>
              <ntsc>FALSE</ntsc>
            </rate>
            <media>
              <video>
                <track>
                  <clipitem frameBlend="FALSE" id="clipitem-130">
                    <name>CH_BreatheFence_B.png.127.png</name>
                    <masterclipid>masterclip-129</masterclipid>
                    <rate>
                      <timebase>12</timebase>
                      <ntsc>FALSE</ntsc>
                    </rate>
                    <alphatype>straight</alphatype>
                    <pixelaspectratio>square</pixelaspectratio>
                    <anamorphic>FALSE</anamorphic>
                    <file id="file-129">
                      <name>CH_BreatheFence_B.png.127.png</name>
                      <pathurl>file://localhost/Users/MAK/Dropbox/4thBoxAssets/CA_files_by_Character/BreatheFacingFence/CH_BreatheFence_B.png/CH_BreatheFence_B.png.127.png</pathurl>
                      <rate>
                        <timebase>12</timebase>
                        <ntsc>FALSE</ntsc>
                      </rate>
                      <duration>129</duration>
                      <timecode>
                        <rate>
                          <timebase>12</timebase>
                          <ntsc>FALSE</ntsc>
                        </rate>
                      </timecode>
                      <media>
                        <video>
                          <duration>1</duration>
                          <samplecharacteristics>
                            <anamorphic>FALSE</anamorphic>
                            <pixelaspectratio>square</pixelaspectratio>
                            <fielddominance>none</fielddominance>
                            <width>1993</width>
                            <height>1300</height>
                          </samplecharacteristics>
                        </video>
                      </media>
                    </file>
                  </clipitem>
                </track>
              </video>
            </media>
          </clip>
          <clip explodedTracks="true" frameBlend="FALSE" id="masterclip-130">
            <uuid>310913c2-774d-4168-81d4-51c5d594c3c1</uuid>
            <masterclipid>masterclip-130</masterclipid>
            <ismasterclip>TRUE</ismasterclip>
            <duration>129</duration>
            <in>0</in>
            <out>129</out>
            <name>CH_BreatheFence_B.png.128.png</name>
            <rate>
              <timebase>12</timebase>
              <ntsc>FALSE</ntsc>
            </rate>
            <media>
              <video>
                <track>
                  <clipitem frameBlend="FALSE" id="clipitem-131">
                    <name>CH_BreatheFence_B.png.128.png</name>
                    <masterclipid>masterclip-130</masterclipid>
                    <rate>
                      <timebase>12</timebase>
                      <ntsc>FALSE</ntsc>
                    </rate>
                    <alphatype>straight</alphatype>
                    <pixelaspectratio>square</pixelaspectratio>
                    <anamorphic>FALSE</anamorphic>
                    <file id="file-130">
                      <name>CH_BreatheFence_B.png.128.png</name>
                      <pathurl>file://localhost/Users/MAK/Dropbox/4thBoxAssets/CA_files_by_Character/BreatheFacingFence/CH_BreatheFence_B.png/CH_BreatheFence_B.png.128.png</pathurl>
                      <rate>
                        <timebase>12</timebase>
                        <ntsc>FALSE</ntsc>
                      </rate>
                      <duration>129</duration>
                      <timecode>
                        <rate>
                          <timebase>12</timebase>
                          <ntsc>FALSE</ntsc>
                        </rate>
                      </timecode>
                      <media>
                        <video>
                          <duration>1</duration>
                          <samplecharacteristics>
                            <anamorphic>FALSE</anamorphic>
                            <pixelaspectratio>square</pixelaspectratio>
                            <fielddominance>none</fielddominance>
                            <width>1993</width>
                            <height>1300</height>
                          </samplecharacteristics>
                        </video>
                      </media>
                    </file>
                  </clipitem>
                </track>
              </video>
            </media>
          </clip>
        </children>
      </bin>
    </children>
  </project>

</xmeml>
